<?xml version="1.0" encoding="utf-8"?>
<!-- Generator: Adobe Illustrator 23.0.4, SVG Export Plug-In . SVG Version: 6.00 Build 0)  -->
<svg version="1.0" id="Working_from_Home_Illustration_02"
	 xmlns="http://www.w3.org/2000/svg" xmlns:xlink="http://www.w3.org/1999/xlink" x="0px" y="0px" viewBox="0 0 3000 3000"
	 style="enable-background:new 0 0 3000 3000;" xml:space="preserve">
<style type="text/css">
	.st0{fill:#50C0E7;}
	.st1{fill:#BEE3F4;}
	.st2{fill:#A7D062;}
	.st3{fill:#28364C;}
	.st4{fill:#AD6E47;}
	.st5{opacity:0.2;}
	.st6{fill:#87502E;}
	.st7{fill:#9FBBE2;}
	.st8{fill:#ECF4FB;}
	.st9{fill:#2E592B;}
	.st10{fill:#F9B516;}
	.st11{fill:#E82431;}
	.st12{fill:#243E81;}
	.st13{fill:#F9C9B1;}
	.st14{fill:#FDCE8F;}
	.st15{fill:#293134;}
	.st16{fill:#5CBD80;}
	.st17{clip-path:url(#SVGID_2_);}
	.st18{fill:#223F80;}
	.st19{fill:#FFFFFF;}
	.st20{fill:#152E4F;}
	.st21{fill:#EC1F2F;}
	.st22{fill:#3C66AF;}
	.st23{clip-path:url(#SVGID_6_);}
	.st24{fill:#231F20;}
	.st25{fill:#F58A6A;}
	.st26{fill:#0A1831;}
	.st27{fill:#4DBFC1;}
	.st28{fill:#C67061;}
	.st29{opacity:0.3;}
	.st30{fill-rule:evenodd;clip-rule:evenodd;fill:#28364C;}
	.st31{fill-rule:evenodd;clip-rule:evenodd;fill:#3C66AF;}
	.st32{clip-path:url(#SVGID_10_);}
	.st33{clip-path:url(#SVGID_12_);}
	.st34{clip-path:url(#SVGID_14_);}
	.st35{opacity:0.35;}
	.st36{fill:#C04827;}
</style>
<g>
	<g>
		<path class="st0" d="M1615.5,800.41l-70.68-13.34c-6.54-25.01-16.48-48.64-29.24-70.41l40.6-59.48
			c7.78-11.4,6.34-26.71-3.41-36.47l-20.92-20.92l-20.92-20.92c-9.76-9.76-25.07-11.19-36.47-3.41l-59.47,40.6
			c-21.78-12.76-45.4-22.7-70.41-29.24l-13.34-70.68c-2.56-13.56-14.4-23.38-28.2-23.38h-29.58h-29.58
			c-13.8,0-25.64,9.82-28.2,23.38l-13.34,70.68c-25.01,6.54-48.63,16.48-70.41,29.24l-59.48-40.6c-11.4-7.78-26.71-6.35-36.47,3.41
			l-20.92,20.92l-20.92,20.92c-9.76,9.76-11.19,25.07-3.41,36.47l40.6,59.48c-12.76,21.78-22.7,45.4-29.24,70.41l-70.68,13.34
			c-13.56,2.56-23.38,14.4-23.38,28.2v29.58v29.58c0,13.8,9.82,25.64,23.38,28.2l70.68,13.34c6.54,25.01,16.48,48.63,29.24,70.41
			l-40.6,59.48c-7.78,11.4-6.34,26.71,3.41,36.47l20.92,20.92l20.92,20.92c9.76,9.76,25.07,11.19,36.47,3.41l59.48-40.59
			c21.78,12.76,45.4,22.7,70.41,29.24l13.34,70.68c2.56,13.56,14.4,23.38,28.2,23.38h29.58h29.58c13.8,0,25.64-9.82,28.2-23.38
			l13.34-70.68c25.01-6.54,48.63-16.48,70.41-29.24l59.47,40.59c11.4,7.78,26.71,6.35,36.47-3.41l20.92-20.92l20.92-20.92
			c9.76-9.76,11.19-25.07,3.41-36.47l-40.6-59.48c12.76-21.78,22.7-45.4,29.24-70.41l70.68-13.34c13.56-2.56,23.38-14.4,23.38-28.2
			v-29.58v-29.58C1638.87,814.82,1629.06,802.97,1615.5,800.41z M1273.46,1038.89c-99.8,0-180.7-80.9-180.7-180.7
			s80.9-180.7,180.7-180.7c99.8,0,180.7,80.9,180.7,180.7S1373.25,1038.89,1273.46,1038.89z"/>
	</g>
	<g>
		<path class="st1" d="M957.13,1085.68l-45.84-8.65c-4.24-16.22-10.69-31.54-18.96-45.67l26.33-38.57
			c5.04-7.39,4.12-17.33-2.21-23.65l-13.57-13.57l-13.57-13.57c-6.33-6.33-16.26-7.26-23.65-2.21l-38.57,26.33
			c-14.13-8.27-29.44-14.72-45.67-18.96l-8.65-45.84c-1.66-8.79-9.34-15.16-18.29-15.16h-19.18H716.1
			c-8.95,0-16.63,6.37-18.29,15.16l-8.65,45.84c-16.22,4.24-31.54,10.69-45.67,18.96l-38.57-26.33c-7.39-5.04-17.33-4.12-23.65,2.21
			l-13.57,13.57l-13.57,13.57c-6.33,6.33-7.26,16.26-2.21,23.65l26.33,38.57c-8.27,14.12-14.72,29.44-18.96,45.67l-45.84,8.65
			c-8.79,1.66-15.16,9.34-15.16,18.29v19.18v19.18c0,8.95,6.37,16.63,15.16,18.29l45.84,8.65c4.24,16.22,10.69,31.54,18.96,45.67
			l-26.33,38.57c-5.04,7.39-4.12,17.33,2.21,23.65l13.57,13.57l13.57,13.57c6.33,6.33,16.26,7.26,23.65,2.21l38.57-26.33
			c14.13,8.27,29.45,14.72,45.67,18.96l8.65,45.84c1.66,8.79,9.34,15.16,18.29,15.16h19.18h19.18c8.95,0,16.63-6.37,18.29-15.16
			l8.65-45.84c16.22-4.24,31.54-10.69,45.67-18.96l38.57,26.33c7.39,5.04,17.33,4.12,23.65-2.21l13.57-13.57l13.57-13.57
			c6.33-6.33,7.26-16.26,2.21-23.65l-26.33-38.57c8.27-14.12,14.72-29.44,18.96-45.67l45.84-8.65c8.79-1.66,15.16-9.34,15.16-18.29
			v-19.18v-19.18C972.29,1095.02,965.92,1087.34,957.13,1085.68z M735.29,1240.35c-64.73,0-117.2-52.47-117.2-117.19
			c0-64.72,52.47-117.2,117.2-117.2s117.2,52.47,117.2,117.2C852.48,1187.88,800.01,1240.35,735.29,1240.35z"/>
	</g>
	<g>
		<g>
			<path class="st2" d="M581.65,1534.93c0,0,11.03-32.6,20.36-51.76c9.33-19.16,25.33-56.82,25.47-90.04
				c0.14-33.21-13.09-53.59-43.57-52.47c-30.48,1.12-27.41,46.24-25,76.53S582.57,1523.35,581.65,1534.93z"/>
		</g>
		<g>
			<path class="st2" d="M607.04,1571.29c0,0,18.41-6.92,38.57-23.09c31.33-25.14,59.96-82.82,28.81-94.49
				c-31.15-11.67-40.46,28.28-45.97,51.63C622.95,1528.7,606.88,1557.41,607.04,1571.29z"/>
		</g>
		<g>
			<path class="st2" d="M548.59,1543.99c0,0-0.35-29.93,0.06-54.93c0.41-25,0.98-73.3-29.05-67.58
				c-30.03,5.72-20.1,41.44-16.53,52.53C511.42,1499.93,537.69,1536.46,548.59,1543.99z"/>
		</g>
		<g>
			<g>
				<g>
					<path class="st3" d="M573.29,1668.95c-1.5-33.92,5.13-116.94,11.08-185.48c5.25-60.48,2.97-113.87,2.95-114.4l3.2-0.14
						c0.02,0.53,2.31,54.13-2.96,114.82c-5.94,68.44-12.56,151.32-11.07,185.06L573.29,1668.95z"/>
				</g>
			</g>
			<g>
				<g>
					<path class="st3" d="M577.45,1619.68l-2.84-1.49c0.72-1.37,17.8-33.7,31.25-48c23.14-24.59,41.46-55.93,56.03-95.81l3.01,1.1
						c-14.72,40.29-33.27,71.99-56.71,96.91C595.06,1586.37,577.63,1619.35,577.45,1619.68z"/>
				</g>
			</g>
			<g>
				<g>
					<path class="st3" d="M574.78,1601.13c-0.76-0.93-18.6-22.92-24.06-44.54c-1.83-7.26-5.64-18.09-10.04-30.63
						c-8.3-23.62-18.62-53.02-18.99-69.24l3.2-0.07c0.36,15.71,10.59,44.84,18.81,68.25c4.43,12.62,8.26,23.51,10.13,30.91
						c5.28,20.91,23.26,43.07,23.44,43.29L574.78,1601.13z"/>
				</g>
			</g>
		</g>
		<g>
			<g>
				<path class="st4" d="M615.2,1711.92h-81.05c-1.58,0-2.85-1.28-2.85-2.85v-75.25h86.76v75.25
					C618.06,1710.65,616.78,1711.92,615.2,1711.92z"/>
			</g>
			<g class="st5">
				<rect x="531.3" y="1638.23" class="st3" width="86.76" height="19.04"/>
			</g>
			<g>
				<rect x="531.3" y="1633.82" class="st6" width="86.76" height="19.04"/>
			</g>
		</g>
		<g class="st5">
			<path class="st3" d="M607.06,1570.19c0,0,38.04-34.25,64.07-117.53c0,0-18.62-8.06-32.63,20.06c0,0-7.56,21.55-12.79,42.33
				c0,0-6.65,17.75-10.46,27.77S606.41,1567.46,607.06,1570.19z"/>
		</g>
		<g class="st5">
			<path class="st3" d="M580.77,1526.1c0,0,18.55-152.84,3.15-185.44c0,0-23.76-1.41-26.19,39.51
				C555.29,1421.08,564.56,1454.37,580.77,1526.1z"/>
		</g>
		<g class="st5">
			<path class="st3" d="M545.28,1539.18c0,0-27.7-67.22-25.68-117.71c0,0-24.37,3.41-20.99,35.17
				C501.98,1488.41,534.47,1531.03,545.28,1539.18z"/>
		</g>
	</g>
	<g>
		<g>
			<path class="st7" d="M2064.51,646.9h-725.45c-16.14,0-29.22,13.08-29.22,29.22v525.71c0,16.14,13.08,29.22,29.22,29.22h725.45
				c16.14,0,29.22-13.08,29.22-29.22V676.12C2093.73,659.98,2080.64,646.9,2064.51,646.9z"/>
		</g>
		<g>
			<path class="st8" d="M2020.31,727.19h-637.05c-6.15,0-11.13,4.98-11.13,11.13v427.59c0,6.15,4.98,11.13,11.13,11.13h637.05
				c6.15,0,11.13-4.98,11.13-11.13V738.33C2031.44,732.18,2026.46,727.19,2020.31,727.19z"/>
		</g>
		<g>
			<circle class="st9" cx="1894.54" cy="687.28" r="14.67"/>
		</g>
		<g>
			
				<ellipse transform="matrix(0.973 -0.2307 0.2307 0.973 -105.8437 469.166)" class="st10" cx="1953.72" cy="687.28" rx="14.67" ry="14.67"/>
		</g>
		<g>
			
				<ellipse transform="matrix(0.0772 -0.997 0.997 0.0772 1172.3472 2641.1426)" class="st11" cx="2012.9" cy="687.28" rx="14.67" ry="14.67"/>
		</g>
		<g>
			<rect x="1416.6" y="765.95" class="st11" width="358.66" height="360.86"/>
		</g>
		<g>
			<rect x="1821.27" y="765.95" class="st12" width="165.7" height="165.7"/>
		</g>
		<g>
			<rect x="1821.27" y="961.11" class="st10" width="165.7" height="165.7"/>
		</g>
		<g>
			<g>
				<g>
					<g>
						<polygon class="st13" points="1549.08,1055.19 1590.15,1081.13 1643.72,1050.17 1616.84,932.23 1576.2,961.42 1554.76,976.82 
							1556.63,1009.99 1557.75,1029.88 						"/>
					</g>
				</g>
				<g>
					<g>
						<path class="st14" d="M1576.2,961.42l-21.44,15.4l1.87,33.18c16.75-7.86,30.37-22.55,36.09-40.2
							C1587.06,966.98,1581.74,964.21,1576.2,961.42z"/>
					</g>
				</g>
				<g>
					<g>
						<path class="st13" d="M1529.8,977.17c33.46,30.63,67.21-2.77,67.21-2.77l23.66-58.77l2.17-5.43l1.38-3.42
							c0,0,0.01-0.72-0.05-2.03c0-0.22-0.01-0.44-0.02-0.68v-0.05c-0.3-7.63-2.35-29.56-15.27-46.42
							c-5.35-6.98-12.57-13.1-22.32-16.95c-6.47-2.57-14.03-4.14-22.89-4.32c-19.11-0.39-32.9,12.51-41.47,30.86
							c-0.05,0.1-0.1,0.21-0.15,0.31c-1.52,3.27-2.86,6.71-4.05,10.28C1506.43,912.64,1510.55,959.51,1529.8,977.17z"/>
					</g>
				</g>
				<g>
					<g>
						<path class="st15" d="M1642.87,931.41c12.64-22.31-3.22-33.38-3.22-33.38s12.36-11.46,8.98-24.21
							c-3.38-12.75-53.13-55.23-103.98-69.51c-50.85-14.28-82.77,14.62-46.23,43.92c0,0-0.64,29.05,18.57,39.48l10.95-31.15
							c10.97-1,68.27,15.14,87.12,18.14l4.31,68.6l8.1,35.55L1642.87,931.41z"/>
					</g>
					<g id="XMLID_42_">
						<path class="st15" d="M1593.44,844.05c-5.77,1.37-10.77,5.55-13.04,10.91s-1.76,11.75,1.33,16.7
							c3.31,5.3,9.26,8.86,11.76,14.56c1.48,3.38,1.59,7.17,2.39,10.76c2.05,9.12,9.03,17.05,17.97,20.4
							c3.86,1.45,8.4,2.03,12.03,0.08c3.76-2.02,5.65-6.21,6.99-10.19c4.77-14.23,5.74-29.65,2.77-44.34"/>
					</g>
				</g>
				<g>
					<g>
						<path class="st13" d="M1609.1,904.34c2.49-3.84,7.34-5.81,11.9-5.4c4.56,0.41,8.76,2.95,11.78,6.39
							c6.91,7.85,7.39,20.61,1.11,28.97s-18.68,11.42-28.14,6.96"/>
					</g>
				</g>
			</g>
			<g>
				<g>
					<path class="st16" d="M1420.89,1126.81c0,0,28.37-72.62,54.07-82.67c25.7-10.05,82.67-14.52,82.67-14.52
						s35.98,42.45,80.44-2.23c0,0,70.36,1.36,83.79,10.05c18.99,12.29,53.4,89.38,53.4,89.38"/>
				</g>
			</g>
			<g>
				<defs>
					<path id="SVGID_1_" d="M1420.89,1126.81c0,0,28.37-72.62,54.07-82.67c25.7-10.05,82.67-14.52,82.67-14.52
						s35.98,42.45,80.44-2.23c0,0,70.36,1.36,83.79,10.05c18.99,12.29,53.4,89.38,53.4,89.38"/>
				</defs>
				<clipPath id="SVGID_2_">
					<use xlink:href="#SVGID_1_"  style="overflow:visible;"/>
				</clipPath>
				<g class="st17">
					<polygon class="st18" points="1638.07,1027.38 1682.06,1144.43 1793.87,1131.92 1742.81,932.23 					"/>
				</g>
				<g class="st17">
					<polygon class="st18" points="1556.63,1009.99 1527.1,1213.98 1344.57,1129.55 1422.17,966.51 					"/>
				</g>
			</g>
		</g>
		<g>
			
				<ellipse transform="matrix(0.2298 -0.9732 0.9732 0.2298 109.1972 2427.8782)" class="st11" cx="1588.48" cy="1144.95" rx="34.47" ry="34.47"/>
		</g>
		<g>
			<g>
				<g>
					<path class="st19" d="M1606.33,1141.05c0.04-0.18,0.06-0.37,0.05-0.56c0-1.52-1.15-2.75-2.56-2.75l-30.69,0
						c-1.41,0-2.56,1.23-2.56,2.75c0,0.19,0.02,0.38,0.05,0.56c-2.23,1.04-3.79,3.42-3.79,6.19l0,3.32l12.82,0l0-2.91
						c0-1.32-0.46-2.52-1.22-3.51l20.08,0c-0.76,0.98-1.22,2.19-1.22,3.51l0,2.91h12.82v-3.32
						C1610.12,1144.47,1608.56,1142.09,1606.33,1141.05z"/>
				</g>
			</g>
		</g>
	</g>
	<g>
		<rect x="386.96" y="2294.98" class="st3" width="2395.39" height="8.95"/>
	</g>
	<g id="XMLID_180_">
		<g id="XMLID_448_">
			<g>
				
					<rect x="239.08" y="2100.45" transform="matrix(0.2056 -0.9786 0.9786 0.2056 -1599.385 2263.3896)" class="st4" width="710.73" height="32.78"/>
			</g>
			<g>
				
					<rect x="758.78" y="1761.47" transform="matrix(0.9787 -0.2055 0.2055 0.9787 -418.5271 204.5149)" class="st4" width="32.78" height="710.73"/>
			</g>
			<g>
				<rect x="540.2" y="2358.75" class="st4" width="292.31" height="32.77"/>
			</g>
			<g>
				<rect x="498.61" y="1746.85" class="st6" width="381.43" height="44.41"/>
			</g>
			<g>
				
					<rect x="1787.29" y="2100.45" transform="matrix(0.2056 -0.9786 0.9786 0.2056 -369.4621 3778.5293)" class="st4" width="710.73" height="32.78"/>
			</g>
			<g>
				
					<rect x="2306.99" y="1761.47" transform="matrix(0.9787 -0.2055 0.2055 0.9787 -385.4735 522.7212)" class="st4" width="32.78" height="710.73"/>
			</g>
			<g>
				<rect x="2088.41" y="2358.75" class="st4" width="292.31" height="32.77"/>
			</g>
			<g>
				<rect x="2046.82" y="1746.85" class="st6" width="381.43" height="44.41"/>
			</g>
			<g id="XMLID_452_">
				<rect x="497.42" y="1711.92" class="st4" width="1930.83" height="36.46"/>
			</g>
		</g>
		<g id="XMLID_900_">
			<g id="XMLID_970_">
				<g id="XMLID_972_">
					<polygon class="st20" points="1092.01,1678.7 1269.68,1678.7 1285.69,1549.47 1108.01,1549.47 					"/>
				</g>
				<g id="XMLID_971_">
					<polygon class="st3" points="1108.01,1549.47 1285.69,1549.47 1276.17,1626.28 1100.35,1611.39 					"/>
				</g>
			</g>
			<g id="XMLID_967_">
				<path class="st20" d="M1487.97,1606.81H723.51c-1.86,0-3.36-1.5-3.36-3.36v-507.9c0-1.86,1.5-3.36,3.36-3.36h764.47
					c1.86,0,3.36,1.5,3.36,3.36v507.9C1491.33,1605.31,1489.83,1606.81,1487.97,1606.81z"/>
			</g>
			<g id="XMLID_966_">
				<rect x="737.31" y="1109.56" class="st8" width="736.86" height="479.88"/>
			</g>
			<g id="XMLID_903_">
				<path class="st20" d="M929.71,1711.92h430.14v-39.8H933.92c-2.32,0-4.21,1.88-4.21,4.21V1711.92z"/>
			</g>
			<g id="XMLID_902_">
				<path class="st3" d="M1180.91,1711.92h178.94v-39.8h-174.74c-2.32,0-4.21,1.88-4.21,4.21V1711.92z"/>
			</g>
			<g id="XMLID_901_">
				<rect x="1093.5" y="1670.28" class="st3" width="177.26" height="0.8"/>
			</g>
			<g id="XMLID_1152_">
				<g id="XMLID_97_">
					<path class="st19" d="M790.27,1428.78h471.32c1.35,0,2.44-1.09,2.44-2.44v-282.76c0-1.35-1.09-2.44-2.44-2.44H790.27
						c-1.35,0-2.44,1.09-2.44,2.44v282.76C787.82,1427.69,788.92,1428.78,790.27,1428.78z"/>
					<path class="st3" d="M1261.58,1429.58H790.27c-1.79,0-3.24-1.45-3.24-3.24v-282.76c0-1.79,1.45-3.24,3.24-3.24h471.32
						c1.79,0,3.24,1.45,3.24,3.24v282.76C1264.83,1428.13,1263.37,1429.58,1261.58,1429.58z M790.27,1141.94
						c-0.9,0-1.64,0.74-1.64,1.64v282.76c0,0.9,0.73,1.64,1.64,1.64h471.32c0.9,0,1.64-0.74,1.64-1.64v-282.76
						c0-0.9-0.74-1.64-1.64-1.64H790.27z"/>
				</g>
				<g id="XMLID_96_">
					<line class="st19" x1="1264.02" y1="1193.26" x2="787.82" y2="1193.26"/>
					<rect x="787.82" y="1192.66" class="st3" width="476.2" height="1.2"/>
				</g>
				<g id="XMLID_95_">
					<path class="st21" d="M1225.66,1167.49c0,4.2,3.41,7.61,7.61,7.61c4.2,0,7.61-3.41,7.61-7.61c0-4.2-3.41-7.61-7.61-7.61
						C1229.07,1159.87,1225.66,1163.28,1225.66,1167.49z"/>
				</g>
				<g id="XMLID_94_">
					<path class="st10" d="M1194.34,1167.49c0,4.2,3.41,7.61,7.61,7.61c4.2,0,7.61-3.41,7.61-7.61c0-4.2-3.41-7.61-7.61-7.61
						C1197.75,1159.87,1194.34,1163.28,1194.34,1167.49z"/>
				</g>
				<g id="XMLID_93_">
					<path class="st9" d="M1163.03,1167.49c0,4.2,3.41,7.61,7.61,7.61c4.2,0,7.61-3.41,7.61-7.61c0-4.2-3.41-7.61-7.61-7.61
						C1166.44,1159.87,1163.03,1163.28,1163.03,1167.49z"/>
				</g>
				<g id="XMLID_85_">
					<g id="XMLID_87_">
						<g id="XMLID_89_">
							<g id="XMLID_90_">
								<path class="st10" d="M898.49,1356.26c-37.28,0-67.61-30.33-67.61-67.61c0-37.28,30.33-67.61,67.61-67.61
									c37.28,0,67.61,30.33,67.61,67.61C966.1,1325.93,935.77,1356.26,898.49,1356.26z M898.49,1229.14
									c-32.81,0-59.51,26.69-59.51,59.5c0,32.82,26.7,59.51,59.51,59.51c32.81,0,59.51-26.69,59.51-59.51
									C958,1255.84,931.3,1229.14,898.49,1229.14z"/>
							</g>
						</g>
						<g id="XMLID_88_">
							<path class="st10" d="M846.53,1288.65c0,28.7,23.26,51.96,51.96,51.96c28.7,0,51.96-23.26,51.96-51.96
								c0-28.7-23.26-51.96-51.96-51.96C869.79,1236.69,846.53,1259.95,846.53,1288.65z"/>
						</g>
					</g>
					<g id="XMLID_86_">
						<path class="st21" d="M853.43,1314.52c-4.38-7.62-6.9-16.45-6.9-25.87c0-28.7,23.26-51.96,51.96-51.96v51.96L853.43,1314.52z"
							/>
					</g>
				</g>
				<g id="XMLID_37_">
					<g id="XMLID_39_">
						<g id="XMLID_46_">
							<g id="XMLID_47_">
								<path class="st10" d="M1048.74,1356.26c-37.28,0-67.61-30.33-67.61-67.61c0-37.28,30.33-67.61,67.61-67.61
									c37.28,0,67.61,30.33,67.61,67.61C1116.36,1325.93,1086.03,1356.26,1048.74,1356.26z M1048.74,1229.14
									c-32.81,0-59.51,26.69-59.51,59.5c0,32.82,26.69,59.51,59.51,59.51s59.51-26.69,59.51-59.51
									C1108.26,1255.84,1081.56,1229.14,1048.74,1229.14z"/>
							</g>
						</g>
						<g id="XMLID_41_">
							<path class="st10" d="M996.78,1288.65c0,28.7,23.26,51.96,51.96,51.96c28.7,0,51.96-23.26,51.96-51.96
								c0-28.7-23.26-51.96-51.96-51.96C1020.04,1236.69,996.78,1259.95,996.78,1288.65z"/>
						</g>
					</g>
					<g id="XMLID_38_">
						<path class="st21" d="M1019.29,1245.84c8.37-5.77,18.52-9.15,29.46-9.15v51.96L1019.29,1245.84z"/>
					</g>
				</g>
				<g id="XMLID_36_">
					<rect x="821.83" y="1373.35" class="st3" width="408.19" height="9.45"/>
				</g>
				<g id="XMLID_27_">
					<rect x="1170.64" y="1229.73" class="st3" width="29.69" height="9.45"/>
				</g>
				<g id="XMLID_16_">
					<rect x="1170.64" y="1260.56" class="st3" width="59.38" height="9.45"/>
				</g>
				<g id="XMLID_14_">
					<rect x="821.83" y="1393.8" class="st3" width="408.19" height="9.45"/>
				</g>
				<g id="XMLID_13_">
					<rect x="1142.4" y="1224.14" class="st21" width="20.63" height="20.63"/>
				</g>
				<g id="XMLID_10_">
					<rect x="1142.4" y="1254.97" class="st10" width="20.63" height="20.63"/>
				</g>
			</g>
		</g>
		<g id="XMLID_362_">
			<g id="XMLID_596_">
				<g id="XMLID_616_">
					<polygon class="st12" points="2033.23,1678.7 2210.91,1678.7 2226.91,1525.17 2049.24,1525.17 					"/>
				</g>
				<g id="XMLID_607_">
					<polygon class="st12" points="2049.24,1525.17 2226.91,1525.17 2217.62,1614.29 2045.31,1562.82 					"/>
				</g>
			</g>
			<g id="XMLID_544_">
				<path class="st12" d="M1769,1552.07h764.47c1.86,0,3.36-1.5,3.36-3.36v-507.9c0-1.86-1.5-3.36-3.36-3.36H1769
					c-1.86,0-3.36,1.5-3.36,3.36v507.9C1765.64,1550.57,1767.15,1552.07,1769,1552.07z"/>
			</g>
			<g id="XMLID_543_">
				
					<rect x="1782.81" y="1054.82" transform="matrix(-1 -1.224647e-16 1.224647e-16 -1 4302.4746 2589.5293)" class="st8" width="736.86" height="479.88"/>
			</g>
			<g id="XMLID_540_">
				<path class="st12" d="M1870.94,1711.92h430.14v-39.8h-427.51c-1.45,0-2.62,1.18-2.62,2.62V1711.92z"/>
			</g>
			<g id="XMLID_534_">
				<path class="st3" d="M2122.13,1711.92h178.94v-39.8h-174.74c-2.32,0-4.21,1.88-4.21,4.21V1711.92z"/>
			</g>
			<g id="XMLID_530_">
				<rect x="2034.73" y="1669.08" class="st3" width="177.26" height="3.21"/>
			</g>
			<g id="XMLID_506_">
				<g id="XMLID_29_">
					<path class="st19" d="M1928.22,1485.21H2471c1.55,0,2.81-1.26,2.81-2.81v-325.64c0-1.55-1.26-2.81-2.81-2.81h-542.79
						c-1.55,0-2.81,1.26-2.81,2.81v325.64C1925.41,1483.95,1926.66,1485.21,1928.22,1485.21z"/>
					<path class="st3" d="M2471,1486.01h-542.79c-1.99,0-3.61-1.62-3.61-3.61v-325.63c0-1.99,1.62-3.61,3.61-3.61H2471
						c1.99,0,3.61,1.62,3.61,3.61v325.64C2474.61,1484.39,2472.99,1486.01,2471,1486.01z M1928.22,1154.76
						c-1.11,0-2.01,0.9-2.01,2.01v325.63c0,1.11,0.9,2.01,2.01,2.01H2471c1.11,0,2.01-0.9,2.01-2.01v-325.64
						c0-1.11-0.9-2.01-2.01-2.01H1928.22z"/>
				</g>
				<g id="XMLID_28_">
					<line class="st19" x1="2473.81" y1="1213.98" x2="1925.41" y2="1213.98"/>
					<rect x="1925.41" y="1213.38" class="st3" width="548.41" height="1.2"/>
				</g>
				<g id="XMLID_26_">
					<circle class="st21" cx="2438.39" cy="1184.3" r="8.77"/>
				</g>
				<g id="XMLID_8_">
					<path class="st10" d="M2393.57,1184.3c0,4.84,3.92,8.77,8.76,8.77c4.84,0,8.77-3.93,8.77-8.77c0-4.84-3.92-8.77-8.77-8.77
						C2397.49,1175.53,2393.57,1179.45,2393.57,1184.3z"/>
				</g>
				<g id="XMLID_2_">
					<path class="st9" d="M2357.5,1184.3c0,4.84,3.92,8.77,8.76,8.77s8.77-3.93,8.77-8.77c0-4.84-3.92-8.77-8.77-8.77
						S2357.5,1179.45,2357.5,1184.3z"/>
				</g>
				<g>
					<g>
						<path class="st3" d="M1594.09,1298.84c1.02,0,1.03-1.59,0-1.59C1593.06,1297.25,1593.06,1298.84,1594.09,1298.84
							L1594.09,1298.84z"/>
					</g>
				</g>
				<g>
					<g>
						<path class="st3" d="M2258.83,1576.71c1.02,0,1.03-1.59,0-1.59C2257.81,1575.12,2257.81,1576.71,2258.83,1576.71
							L2258.83,1576.71z"/>
					</g>
				</g>
			</g>
			<g id="XMLID_363_">
				<g id="XMLID_84_">
					<path class="st19" d="M1836.31,1432.84h542.78c1.55,0,2.81-1.26,2.81-2.81v-325.64c0-1.55-1.26-2.81-2.81-2.81h-542.78
						c-1.55,0-2.81,1.26-2.81,2.81v325.64C1833.5,1431.58,1834.76,1432.84,1836.31,1432.84z"/>
					<path class="st3" d="M2379.09,1433.64h-542.78c-1.99,0-3.61-1.62-3.61-3.61v-325.64c0-1.99,1.62-3.61,3.61-3.61h542.78
						c1.99,0,3.61,1.62,3.61,3.61v325.64C2382.71,1432.02,2381.09,1433.64,2379.09,1433.64z M1836.31,1102.38
						c-1.11,0-2.01,0.9-2.01,2.01v325.64c0,1.11,0.9,2.01,2.01,2.01h542.78c1.11,0,2.01-0.9,2.01-2.01v-325.64
						c0-1.11-0.9-2.01-2.01-2.01H1836.31z"/>
				</g>
				<g id="XMLID_83_">
					<line class="st19" x1="2381.91" y1="1161.6" x2="1833.5" y2="1161.6"/>
					<rect x="1833.5" y="1161" class="st3" width="548.41" height="1.2"/>
				</g>
				<g id="XMLID_82_">
					<path class="st21" d="M2337.72,1131.92c0,4.84,3.92,8.77,8.77,8.77c4.84,0,8.77-3.93,8.77-8.77c0-4.84-3.93-8.77-8.77-8.77
						C2341.65,1123.16,2337.72,1127.08,2337.72,1131.92z"/>
				</g>
				<g id="XMLID_81_">
					<path class="st10" d="M2301.66,1131.92c0,4.84,3.92,8.77,8.76,8.77c4.84,0,8.77-3.93,8.77-8.77c0-4.84-3.92-8.77-8.77-8.77
						C2305.58,1123.16,2301.66,1127.08,2301.66,1131.92z"/>
				</g>
				<g id="XMLID_80_">
					<path class="st9" d="M2265.59,1131.92c0,4.84,3.92,8.77,8.76,8.77c4.84,0,8.77-3.93,8.77-8.77c0-4.84-3.92-8.77-8.77-8.77
						C2269.52,1123.16,2265.59,1127.08,2265.59,1131.92z"/>
				</g>
				<g id="XMLID_22_">
					<g id="XMLID_79_">
						<polygon class="st3" points="1870.77,1194.15 2114.09,1194.15 2113.91,1185.57 1870.53,1185.57 						"/>
					</g>
					<g id="XMLID_78_">
						<polygon class="st3" points="2131.71,1194.15 2344.65,1194.15 2344.53,1185.57 2131.53,1185.57 						"/>
					</g>
					<g id="XMLID_77_">
						<polygon class="st3" points="1871.59,1223.61 2345.07,1223.61 2344.95,1215.04 1871.35,1215.04 						"/>
					</g>
					<g id="XMLID_76_">
						<polygon class="st3" points="1872.42,1253.02 2061.82,1253.02 2061.63,1244.47 1872.18,1244.47 						"/>
					</g>
					<g id="XMLID_75_">
						<polygon class="st3" points="2152.4,1253.02 2342.21,1253.02 2342.08,1244.47 2152.23,1244.47 						"/>
					</g>
					<g id="XMLID_74_">
						<polygon class="st3" points="1873.24,1282.38 2345.91,1282.38 2345.79,1273.84 1873,1273.84 						"/>
					</g>
					<g id="XMLID_73_">
						<polygon class="st3" points="1935.17,1311.69 2346.33,1311.69 2346.2,1303.16 1934.95,1303.16 						"/>
					</g>
					<g id="XMLID_72_">
						<polygon class="st3" points="2152.4,1341.39 2342.21,1341.39 2342.08,1332.83 2152.23,1332.83 						"/>
					</g>
					<g id="XMLID_71_">
						<polygon class="st3" points="1873.24,1370.75 2345.91,1370.75 2345.79,1362.2 1873,1362.2 						"/>
					</g>
					<g id="XMLID_70_">
						<polygon class="st3" points="1935.17,1400.05 2346.33,1400.05 2346.2,1391.53 1934.95,1391.53 						"/>
					</g>
					<g id="XMLID_53_">
						<polygon class="st3" points="1923.14,1337.09 1874.07,1337.09 1873.83,1328.57 1922.92,1328.57 						"/>
					</g>
				</g>
			</g>
		</g>
		<g id="XMLID_315_">
			<g>
				<g id="XMLID_68_">
					<defs>
						
							<ellipse id="SVGID_3_" transform="matrix(0.2594 -0.9658 0.9658 0.2594 -705.4142 1836.5248)" cx="844.7" cy="1378.19" rx="48.85" ry="29.07"/>
					</defs>
					<clipPath id="SVGID_4_">
						<use xlink:href="#SVGID_3_"  style="overflow:visible;"/>
					</clipPath>
				</g>
			</g>
			<g>
				<g id="XMLID_66_">
					<g id="XMLID_67_">
						<polygon class="st22" points="563.18,1703.94 553.96,1702.09 639.03,1409.67 760.02,1344.99 766.32,1351.97 647.64,1414.57 
													"/>
					</g>
				</g>
				<g id="XMLID_64_">
					<g id="XMLID_65_">
						<path class="st22" d="M729.69,1711.92H525.7v-17.83h200.77c1.78,0,3.23,1.45,3.23,3.23V1711.92z"/>
					</g>
				</g>
				<g id="XMLID_62_">
					<g id="XMLID_63_">
						<path class="st18" d="M627.7,1711.92h-102v-17.83h99.71c1.26,0,2.28,1.02,2.28,2.28V1711.92z"/>
					</g>
				</g>
				<g id="XMLID_59_">
					<g id="XMLID_61_">
						<path class="st18" d="M655.88,1412.12c0,6.93-5.62,12.55-12.55,12.55c-6.93,0-12.55-5.62-12.55-12.55
							c0-6.93,5.62-12.55,12.55-12.55C650.27,1399.57,655.88,1405.19,655.88,1412.12z"/>
					</g>
				</g>
				<g id="XMLID_57_">
					<g id="XMLID_58_">
						<path class="st18" d="M857.67,1331.09l-25.64,94.28l-37.33-9.18c-23.26-7.04-36.42-31.6-29.38-54.86l2.88-9.51
							c7.04-23.26,31.6-36.42,54.86-29.38L857.67,1331.09z"/>
					</g>
				</g>
				<g id="XMLID_54_">
					<g id="XMLID_55_">
						<path class="st18" d="M785.66,1360.37L785.66,1360.37c-2.84,9.39-12.85,14.75-22.23,11.91l-9.01-2.72
							c-8.45-2.56-13.23-11.48-10.68-19.94h0c2.56-8.45,11.48-13.23,19.94-10.68l12.53,3.79
							C783.69,1344.99,787.92,1352.89,785.66,1360.37z"/>
					</g>
				</g>
				<g id="XMLID_49_">
					
						<ellipse transform="matrix(0.2594 -0.9658 0.9658 0.2594 -705.4142 1836.5248)" class="st22" cx="844.7" cy="1378.19" rx="48.85" ry="29.07"/>
				</g>
				<g id="XMLID_40_">
					<defs>
						
							<ellipse id="SVGID_5_" transform="matrix(0.2594 -0.9658 0.9658 0.2594 -705.4142 1836.5248)" cx="844.7" cy="1378.19" rx="48.85" ry="29.07"/>
					</defs>
					<clipPath id="SVGID_6_">
						<use xlink:href="#SVGID_5_"  style="overflow:visible;"/>
					</clipPath>
					<g id="XMLID_48_" class="st23">
						<path class="st10" d="M810.47,1382.28c4.68,10.1,16.66,14.5,26.76,9.82c10.1-4.68,14.5-16.66,9.82-26.76
							c-4.68-10.1-16.66-14.5-26.76-9.82C810.19,1360.19,805.79,1372.17,810.47,1382.28z"/>
					</g>
				</g>
			</g>
			<g>
				<g id="XMLID_24_">
					<defs>
						
							<ellipse id="SVGID_7_" transform="matrix(0.2594 -0.9658 0.9658 0.2594 -705.4142 1836.5248)" cx="844.7" cy="1378.19" rx="48.85" ry="29.07"/>
					</defs>
					<clipPath id="SVGID_8_">
						<use xlink:href="#SVGID_7_"  style="overflow:visible;"/>
					</clipPath>
				</g>
			</g>
		</g>
	</g>
	<g id="XMLID_1370_">
		<g id="XMLID_294_">
			<g id="XMLID_216_">
				<path class="st3" d="M1352.33,1711.5h370.98l34.6-245.29c1.23-8.71-5.42-16.51-14.08-16.51h-341.42
					c-7.55,0-13.95,5.64-15.02,13.24L1352.33,1711.5z"/>
			</g>
			<g id="XMLID_309_">
				<path class="st12" d="M1337.08,1711.5h370.98l34.6-245.29c1.23-8.71-5.42-16.51-14.08-16.51h-341.42
					c-7.55,0-13.95,5.64-15.02,13.24L1337.08,1711.5z"/>
			</g>
			<g id="XMLID_364_">
				<polygon class="st8" points="1349.58,1685.98 1381.26,1461.41 1731.17,1461.41 1699.49,1685.98 				"/>
			</g>
			<g id="XMLID_428_">
				<path class="st19" d="M1672.16,1664.28h-294.38c-4.44,0-7.54-3.6-6.91-8.04l24.1-171.45c0.62-4.44,4.73-8.04,9.17-8.04h294.38
					c4.44,0,7.54,3.6,6.91,8.04l-24.1,171.45C1680.71,1660.68,1676.6,1664.28,1672.16,1664.28z"/>
				<path class="st3" d="M1672.16,1665.08h-294.38c-2.37,0-4.48-0.93-5.94-2.6c-1.48-1.7-2.11-3.96-1.77-6.35l24.09-171.45
					c0.68-4.82,5.15-8.73,9.97-8.73h294.38c2.37,0,4.48,0.93,5.94,2.6c1.48,1.7,2.11,3.96,1.77,6.35l-24.1,171.45
					C1681.45,1661.16,1676.98,1665.08,1672.16,1665.08z M1404.13,1477.55c-4.05,0-7.81,3.3-8.38,7.35l-24.09,171.45
					c-0.27,1.93,0.22,3.73,1.39,5.08c1.15,1.32,2.83,2.05,4.73,2.05h294.38c4.05,0,7.81-3.3,8.38-7.35l24.1-171.45
					c0.27-1.93-0.22-3.73-1.39-5.08c-1.15-1.32-2.83-2.05-4.73-2.05H1404.13z"/>
			</g>
			<g id="XMLID_427_">
				<line class="st19" x1="1391.32" y1="1510.72" x2="1701.78" y2="1510.72"/>
				<rect x="1391.32" y="1510.12" class="st3" width="310.47" height="1.2"/>
			</g>
			<g id="XMLID_425_">
				<path class="st9" d="M1649.36,1493.92c-0.38,2.74-2.92,4.96-5.66,4.96c-2.74,0-4.65-2.22-4.26-4.96
					c0.38-2.74,2.92-4.96,5.66-4.96C1647.84,1488.96,1649.75,1491.18,1649.36,1493.92z"/>
			</g>
			<g id="XMLID_423_">
				<path class="st10" d="M1669.78,1493.92c-0.39,2.74-2.92,4.96-5.66,4.96c-2.74,0-4.65-2.22-4.26-4.96
					c0.39-2.74,2.92-4.96,5.66-4.96C1668.25,1488.96,1670.16,1491.18,1669.78,1493.92z"/>
			</g>
			<g id="XMLID_422_">
				<path class="st21" d="M1690.19,1493.92c-0.38,2.74-2.92,4.96-5.66,4.96c-2.74,0-4.65-2.22-4.26-4.96
					c0.38-2.74,2.92-4.96,5.66-4.96C1688.67,1488.96,1690.58,1491.18,1690.19,1493.92z"/>
			</g>
			<g id="XMLID_349_">
				<path class="st12" d="M1249.53,1694.17h253.56v17.33h-254.77v-16.12C1248.32,1694.71,1248.86,1694.17,1249.53,1694.17z"/>
			</g>
			<g id="XMLID_293_">
				<path class="st3" d="M1470.48,1694.17h252.83v17.33h-254.77v-15.39C1468.54,1695.04,1469.41,1694.17,1470.48,1694.17z"/>
			</g>
			<g id="XMLID_351_">
				<rect x="1339.53" y="1693.37" class="st3" width="376.17" height="1.6"/>
			</g>
			<g id="XMLID_421_">
				<g id="XMLID_441_">
					<g id="XMLID_33_">
						<polygon class="st3" points="1404.69,1531.58 1546.54,1531.58 1547.65,1523.63 1405.81,1523.63 						"/>
					</g>
					<g id="XMLID_30_">
						<polygon class="st3" points="1556.81,1531.58 1680.94,1531.58 1682.06,1523.63 1557.92,1523.63 						"/>
					</g>
					<g id="XMLID_25_">
						<polygon class="st3" points="1400.86,1558.9 1677.11,1558.9 1678.23,1550.95 1401.98,1550.95 						"/>
					</g>
					<g id="XMLID_23_">
						<polygon class="st3" points="1397.03,1586.22 1507.63,1586.22 1508.75,1578.27 1398.15,1578.27 						"/>
					</g>
					<g id="XMLID_21_">
						<polygon class="st3" points="1560.52,1586.22 1671.36,1586.22 1672.48,1578.27 1561.64,1578.27 						"/>
					</g>
					<g id="XMLID_19_">
						<polygon class="st3" points="1393.2,1613.55 1669.45,1613.55 1670.56,1605.59 1394.31,1605.59 						"/>
					</g>
					<g id="XMLID_9_">
						<polygon class="st3" points="1425.11,1640.87 1665.62,1640.87 1666.73,1632.92 1426.22,1632.92 						"/>
					</g>
					<g id="XMLID_7_">
						<polygon class="st3" points="1418.07,1640.87 1389.37,1640.87 1390.48,1632.92 1419.19,1632.92 						"/>
					</g>
				</g>
			</g>
		</g>
		<g id="XMLID_1392_">
			<g>
				<g>
					<path class="st24" d="M1465.32,2378.22l49.59,52.58c0,0-111.39-32-111.06-33.04c0.33-1.04,18.05-33.44,18.05-33.44
						L1465.32,2378.22z"/>
				</g>
				<g>
					<polygon class="st19" points="1400.21,2409.2 1511.28,2442.24 1514.92,2430.8 1403.86,2397.75 					"/>
				</g>
			</g>
			<g>
				<g>
					<path class="st24" d="M1720.53,2368.5l71.12,12.92c0,0-108.67,40.3-109.02,39.26c-0.35-1.03-5.3-37.63-5.3-37.63
						L1720.53,2368.5z"/>
				</g>
				<g>
					<polygon class="st19" points="1686.48,2432.06 1795.5,2392.8 1791.64,2381.42 1682.62,2420.69 					"/>
				</g>
			</g>
			<g id="XMLID_5_">
				<path class="st25" d="M1660.58,1662.79c16.4-17.34,34.89-32.71,54.94-45.67c5.57-3.6,11.35-7.09,15.7-12.09
					c3.29-3.79,5.64-8.3,7.69-12.88c7.78-17.35,11.78-36.37,11.66-55.38c-0.02-3.77-1.24-8.69-5.01-8.93
					c-9.38,22.03-39.52,52.94-44.73,52.35s10.7-17.31,15.53-26.9c1.01-2.01,1.74-5-0.25-6.04c-1-0.52-2.21-0.2-3.27,0.17
					c-19.27,6.74-31.34,25.42-41.76,42.97c-10.42,17.55-21.98,36.39-40.94,43.95l-10.7,37.78L1660.58,1662.79z"/>
			</g>
			<g id="XMLID_1482_">
				<g>
					<polyline class="st11" points="1592.64,1659.17 1645.76,1608.9 1699.39,1673.29 1655.36,1720.51 					"/>
				</g>
				<g>
					<polygon class="st26" points="1655.95,1721.06 1654.77,1719.96 1698.32,1673.26 1645.7,1610.06 1593.19,1659.75 
						1592.08,1658.59 1645.83,1607.73 1700.46,1673.32 					"/>
				</g>
			</g>
			<g id="XMLID_31_">
				<path class="st25" d="M1702.21,2237.08l19.63,132.22c0,0-18.89,18.45-43.12,17.57c-13.46-48.87-57.75-130.35-57.75-130.35
					L1702.21,2237.08z"/>
			</g>
			<g id="XMLID_1473_">
				<path class="st11" d="M1363.04,1849.66c0,0,232.01-3.66,269.78,70.67c35.84,70.54,88.39,381.51,88.39,381.51l-91.37,26.16
					c0,0-83.89-211.2-99.08-310.9c-25.16-7.65-297.31,9.38-354.24,1.88c-56.93-7.5-111.87-78.39-80.32-183.71"/>
			</g>
			<g id="XMLID_1469_">
				<path class="st19" d="M1616.93,2323.76l4.25,13.54c2.48,7.91,10.76,12.45,18.76,10.28l82.45-22.29
					c7.51-2.03,12.34-9.33,11.26-17.03l-1.92-13.82c-1.28-9.18-10.31-15.18-19.27-12.79l-84.77,22.57
					C1619.19,2306.48,1614.3,2315.37,1616.93,2323.76z"/>
			</g>
			<g id="XMLID_1468_">
				<polyline class="st25" points="1380.9,1406.78 1363.04,1490.66 1275.38,1463.67 1309.06,1368.32 				"/>
			</g>
			<g id="XMLID_1465_">
				<g>
					<path class="st27" d="M1238.62,1461.83l28.26-22.91c0,0,92.89-0.1,115.81,44.34c22.92,44.44,0,58.42,0,58.42L1238.62,1461.83z"
						/>
				</g>
				<g>
					<path class="st3" d="M1382.71,1542.62l-0.41-0.23l-145.11-80.43l29.4-23.83h0.28c0,0,0,0,0,0c1.12,0,93.66,0.46,116.52,44.78
						c23,44.59-0.06,59.33-0.3,59.47L1382.71,1542.62z M1240.05,1461.71l142.59,79.04c2.8-2.09,19.98-17.09-0.66-57.11
						c-21.82-42.3-109.16-43.85-114.82-43.91L1240.05,1461.71z"/>
				</g>
			</g>
			<g id="XMLID_1464_">
				<path class="st25" d="M1371.71,1269.34c32.83-3.23,43.49,39.83,46.16,57.21c3.12,20.27,12,95.31-11.08,100.59
					c-13.95,3.19-51.54,2.53-66.68-4.05c-17.78-7.72-24.52-36.97-31.05-54.77C1293.74,1326.53,1311.89,1275.23,1371.71,1269.34z"/>
			</g>
			<g>
				<path class="st28" d="M1418.26,1329.15c0,0-20.28,7.1-21.88,19.93c-1.6,12.82-12.17,35.02-30.13,29.93s-21.17-40.09,8.76-52.38
					C1404.92,1314.34,1418.26,1329.15,1418.26,1329.15z"/>
			</g>
			<g id="XMLID_32_">
				<path class="st25" d="M1530.49,2266.96l-64.3,110.64c0,0-25.94,4.95-45.65-9.17c15.77-48.17,39.59-130.13,39.59-130.13
					L1530.49,2266.96z"/>
			</g>
			<g id="XMLID_1433_">
				<path class="st11" d="M1186.27,1859.59c0,0-27.48,159.39,124.19,159.39h185.8c9.57,0,18.5,6.74,14.17,18.81
					c-19.85,55.33-74.73,240.67-74.73,240.67l99.38,33.79c0,0,152.64-344.32,72.53-397.49c-103.84-68.91-285.3-65.07-285.3-65.07"/>
			</g>
			<g id="XMLID_1403_">
				<path class="st26" d="M1537.27,2313.22l-4.4-1.95c1.52-3.43,150.91-343.06,73.4-394.51c-102-67.7-282.12-64.7-283.92-64.67
					l-0.1-4.81c1.83-0.04,183.42-3.07,286.68,65.47c34.21,22.71,32.44,97.19-5.25,221.38
					C1575.81,2225.95,1537.65,2312.36,1537.27,2313.22z"/>
			</g>
			<g id="XMLID_1400_">
				<path class="st19" d="M1431.21,2269.19l-5.39,13.14c-3.44,8.4,1.11,17.93,9.81,20.53l92.33,27.56c7.3,2.18,15.09-1.32,18.3-8.23
					l5.92-12.72c3.95-8.47-0.53-18.48-9.49-21.18l-92.86-27.98C1442.27,2258.03,1434.21,2261.87,1431.21,2269.19z"/>
			</g>
			<g id="XMLID_1397_">
				<g>
					<path class="st27" d="M1290.49,1454.15c0,0,95.94,4.6,137.26,61.72c35.18,48.62,103.01,178.02,103.01,178.02l100.68-73.84
						l60.7,68c0,0-129.48,131.53-180.19,131.53c-58.68,0-161.71-177.1-161.71-177.1"/>
				</g>
				<g>
					<path class="st26" d="M1511.95,1820.38c-58.47,0-158.18-170.25-162.4-177.5l1.39-0.8c1.03,1.77,103.46,176.7,161.01,176.7
						c48.16,0,170-121.61,179.09-130.76l-59.71-66.89l-100.84,73.96l-0.43-0.83c-0.68-1.29-68.21-129.9-102.95-177.92
						c-40.62-56.14-135.69-61.34-136.65-61.39l0.08-1.6c0.96,0.05,96.8,5.28,137.87,62.05c33.35,46.09,96.76,166.14,102.64,177.29
						l100.51-73.72l61.68,69.1l-0.53,0.54C1687.41,1693.99,1562.41,1820.38,1511.95,1820.38z"/>
				</g>
			</g>
			<g id="XMLID_1394_">
				<path class="st27" d="M1418.5,1622.1l-43.53,242.81c0,0-94.78,45.8-175.14,33.43c-80.36-12.36-111.27-50.34-111.27-50.34
					s37.09-246.27,74.69-321.5c36.22-72.46,95.87-88.32,174.4-64.52"/>
			</g>
			<g id="XMLID_56_">
				<path class="st26" d="M1512.53,1821.99c-0.21,0-0.42,0-0.63-0.01c-28.75-0.66-61.84-37.93-77.74-55.84l-2.46-2.76
					c-14.65-16.4-32.14-44.51-32.32-44.79l-63.51-106.39l4.13-2.46l63.49,106.36c0.15,0.24,17.43,28,31.79,44.09l2.47,2.77
					c15.45,17.4,47.59,53.61,74.25,54.22c27.93,0.67,86.98-48.29,87.58-48.78l3.08,3.69
					C1600.21,1774.14,1542.51,1821.99,1512.53,1821.99z"/>
			</g>
			<g id="XMLID_997_">
				<path class="st15" d="M1431.04,1321.72c-1.72,2.04-4.02,3.5-6.42,4.65c-17.25,8.3-33.05,8.29-36.87,30.03
					c-1.21,6.91-3.67,14.91-10.33,17.1c-2.35,0.77-4.97,0.68-7.2,1.75c-8.36,4.03-8.33,22.53-11.82,30.17
					c-4.34,9.51-11.85,17.51-22.28,19.98c-16.53,3.92-42.9-0.02-49.89-17.83c-2.02-5.14-3.84-11.23-6.99-16.13
					c-3.57-5.56-9.36-8.79-13.23-14.08c-4.07-5.56-1.95-11.56,0.48-17.17c5.27-12.18,4.03-23.93,0.76-36.42
					c-2.65-10.13,1.99-19.81,10.12-25.77c5.35-3.91,11.55-7.11,14.31-13.49c1.93-4.45,2.43-9.35,3.51-14.08
					c2.54-11.02,11.13-18.59,22.84-17.91c14.41,0.84,26.6,8.51,41.43,5.87c8.19-1.46,16.84-5.07,24.44-1.69
					c9.69,4.3,11.01,16.56,19.67,21.94c4.66,2.89,10.56,2.67,15.77,4.37C1433.11,1287.48,1440.82,1310.13,1431.04,1321.72z"/>
			</g>
			<g>
				<g>
					<path class="st15" d="M1394.4,1383.48c-0.05-0.04-0.11-0.07-0.17-0.11c-0.57-0.3-1.21-0.15-1.42,0.33
						c-2.75,6.29,0.44,12.32,4.34,15.88c4.78,4.36,11.28,5.93,16.13,3.89c0.51-0.21,0.65-0.82,0.31-1.35
						c-0.34-0.53-1.02-0.79-1.53-0.57c-4.05,1.7-9.51,0.36-13.54-3.31c-3.29-3-5.97-8.11-3.64-13.45
						C1395.08,1384.37,1394.86,1383.81,1394.4,1383.48z"/>
				</g>
			</g>
			<g>
				<g>
					<path class="st3" d="M1822.79,1870.61c1.02,0,1.03-1.59,0-1.59C1821.77,1869.02,1821.77,1870.61,1822.79,1870.61
						L1822.79,1870.61z"/>
				</g>
			</g>
			<g>
				<path class="st28" d="M1376.2,1428.87c0,0-7.22-2.57-13.16-13.79l-6.75,43.26c0,0,8.51,4.88,11.97,7.84L1376.2,1428.87z"/>
			</g>
			<g>
				<path class="st28" d="M1745.55,1527.84c0,0-2.76,47.75-21.75,72.14c-18.99,24.39-48.82,43.99-48.82,43.99l2.17,2.61
					c0,0,21.06-19.13,33.62-26.33c12.57-7.2,20.92-11.19,28.13-28.1c0,0,10.35-20.35,10.99-41.2
					C1749.89,1550.95,1753.64,1527.19,1745.55,1527.84z"/>
			</g>
			<g>
				<path class="st28" d="M1700.82,1580.19c0,0-11.75,5.23-9.75,0.41c2-4.82,24.39-25.67,24.39-25.67l-13.94,20.06
					C1701.53,1574.98,1698.15,1580.3,1700.82,1580.19z"/>
			</g>
			<g>
				<path class="st26" d="M1504.57,1717.17l-2.97-3.78c13.61-10.69,127.26-94.42,128.41-95.27c1-0.73,2.39-0.59,3.22,0.33l60.7,68
					l-3.59,3.2l-59.24-66.36C1616.56,1634,1517.19,1707.25,1504.57,1717.17z"/>
			</g>
			<g>
				<path class="st26" d="M1378.25,1477.45c-99.04-43.46-151.12-15.63-151.63-15.34l-0.78-1.4c0.52-0.29,53.22-28.54,153.06,15.27
					L1378.25,1477.45z"/>
			</g>
			<g>
				
					<rect x="1321.22" y="1782.02" transform="matrix(0.1764 -0.9843 0.9843 0.1764 -612.161 2837.2217)" class="st26" width="136.35" height="4.81"/>
			</g>
			<g>
				
					<rect x="1450.1" y="2347.23" transform="matrix(0.5026 -0.8645 0.8645 0.5026 -1293.9417 2450.385)" class="st26" width="64.68" height="4.81"/>
			</g>
			<g>
				
					<rect x="1716.15" y="2324.74" transform="matrix(0.9892 -0.1468 0.1468 0.9892 -326.0252 277.7944)" class="st26" width="4.81" height="44.8"/>
			</g>
			<g>
				<path class="st26" d="M1677.66,1647.2l-1.03-1.23c1.04-0.86,25.5-21.21,30.85-24.51c0.68-0.42,1.57-0.92,2.63-1.52
					c7.17-4.03,22.1-12.43,28.04-28.07c14.75-38.84,12.64-54.07,10.07-59.68c-1.35-2.94-2.93-3.59-2.95-3.59l0.55-1.51
					c0.22,0.08,2.24,0.9,3.86,4.43c3.27,7.14,4.18,23.5-10.03,60.92c-6.15,16.19-21.41,24.77-28.75,28.9
					c-1.03,0.58-1.91,1.07-2.57,1.48C1703.07,1626.06,1677.91,1646.98,1677.66,1647.2z"/>
			</g>
			<g>
				<path class="st26" d="M1681.13,1575.59l-1.02-0.64c10.01-15.94,27.17-28.06,33.86-28.45c1.6-0.11,2.72,0.35,3.32,1.31
					c1.47,2.37-1.02,6.9-1.31,7.41l-1.05-0.59c0.69-1.21,2.27-4.69,1.33-6.18c-0.35-0.56-1.1-0.81-2.23-0.75
					C1708.41,1548.03,1691.63,1558.87,1681.13,1575.59z"/>
			</g>
			<g class="st29">
				<g>
					<path class="st26" d="M1611.12,2099.42l81.02,286.04c0,0-8.01,2.53-13.42,1.41c0,0-6.93-23.63-16.52-45.31l-22.26,6.02
						c0,0-12.91,4.06-18.76-10.28l-4.25-13.54c0,0-3.4-9.7,4.85-16.48l-40.83-111.87L1611.12,2099.42z"/>
				</g>
			</g>
			<g class="st29">
				<g>
					<path class="st26" d="M1148.99,2010.26h354.52c0,0,31.26-0.44,31.26,28.41s-93.67,221.62-93.67,221.62l69.33-222.5
						c0,0,6.36-17.13-14.17-18.81l-189.13-0.03l-103.01,1.72C1204.12,2020.67,1165.25,2020.73,1148.99,2010.26z"/>
				</g>
			</g>
		</g>
		<g id="XMLID_1371_">
			<g id="XMLID_1389_">
				<path class="st12" d="M1386.16,2044.77c0,0-121.71,0-265.52,0c-176.21,0-219.29-329.77-127.08-485.76
					c78.99-133.63,214.76-138.89,299.83-17.68C1378.46,1662.54,1278.82,1998.06,1386.16,2044.77z"/>
			</g>
			<g id="XMLID_1386_">
				<path class="st12" d="M1498.97,2044.77h-382.06v-25.79h382.06c7.12,0,12.9,5.77,12.9,12.9l0,0
					C1511.87,2039,1506.1,2044.77,1498.97,2044.77z"/>
			</g>
			<g id="XMLID_1372_">
				<path class="st3" d="M1350.98,2044.77c0,0-115.45,0-259.25,0c-176.21,0-215.76-326.24-123.55-482.23
					c78.99-133.63,211.23-142.41,296.3-21.21C1349.54,1662.54,1243.63,1998.06,1350.98,2044.77z"/>
			</g>
			<g>
				<rect x="1188.02" y="1887.49" class="st3" width="131.01" height="521.54"/>
			</g>
			<g>
				<g>
					<path class="st30" d="M1238.22,2510.96c17.6,0,31.96-14.35,31.96-31.96c0-17.6-14.36-31.96-31.96-31.96
						c-17.6,0-31.96,14.36-31.96,31.96C1206.26,2496.6,1220.62,2510.96,1238.22,2510.96z"/>
				</g>
				<g>
					<path class="st30" d="M1570.4,2510.96c17.6,0,31.96-14.35,31.96-31.96c0-17.6-14.36-31.96-31.96-31.96
						c-17.6,0-31.96,14.36-31.96,31.96C1538.45,2496.6,1552.8,2510.96,1570.4,2510.96z"/>
				</g>
				<g>
					<path class="st30" d="M936.65,2510.96c17.6,0,31.96-14.35,31.96-31.96c0-17.6-14.36-31.96-31.96-31.96
						c-17.6,0-31.96,14.36-31.96,31.96C904.69,2496.6,919.05,2510.96,936.65,2510.96z"/>
				</g>
				<g>
					<path class="st30" d="M1231.02,2370.5h50.61c7.05,0,12.76,5.71,12.76,12.76v23.07l258.01,15
						c18.76,1.09,33.42,16.63,33.42,35.42v0h-291.43h-22.68h-30.78v0H926.82l0,0c0-18.8,14.66-34.33,33.42-35.42l258.01-15v-23.07
						C1218.25,2376.21,1223.97,2370.5,1231.02,2370.5z"/>
				</g>
			</g>
			<g>
				<path class="st30" d="M1146.08,2106.38h242.76c34.03,0,61.61-27.59,61.61-61.61l0,0h-365.98l0,0
					C1084.47,2078.8,1112.05,2106.38,1146.08,2106.38z"/>
			</g>
			<g>
				<g>
					<path class="st31" d="M1362.94,2148.26L1362.94,2148.26c0-15.58-12.63-28.22-28.22-28.22h-162.38
						c-15.58,0-28.22,12.63-28.22,28.22l0,0c0,15.58,12.63,28.22,28.22,28.22h162.38
						C1350.3,2176.47,1362.94,2163.84,1362.94,2148.26z"/>
				</g>
				<g>
					<path class="st31" d="M1362.94,2228.07L1362.94,2228.07c0-15.58-12.63-28.22-28.22-28.22h-162.38
						c-15.58,0-28.22,12.63-28.22,28.22l0,0c0,15.58,12.63,28.22,28.22,28.22h162.38
						C1350.3,2256.29,1362.94,2243.66,1362.94,2228.07z"/>
				</g>
				<g>
					<path class="st31" d="M1362.94,2307.89L1362.94,2307.89c0-15.58-12.63-28.22-28.22-28.22h-162.38
						c-15.58,0-28.22,12.63-28.22,28.22v0c0,15.58,12.63,28.22,28.22,28.22h162.38C1350.3,2336.11,1362.94,2323.48,1362.94,2307.89z
						"/>
				</g>
				<g>
					<path class="st31" d="M1362.94,2386.92L1362.94,2386.92c0-15.58-12.63-28.22-28.22-28.22h-162.38
						c-15.58,0-28.22,12.63-28.22,28.22l0,0c0,15.58,12.63,28.22,28.22,28.22h162.38
						C1350.3,2415.14,1362.94,2402.51,1362.94,2386.92z"/>
				</g>
			</g>
		</g>
	</g>
	<g>
		<g>
			<g>
				<path class="st2" d="M2413.33,2221.32c-1.82-7.76-2.18-15.68-1.14-23.58c2.04-15.57,7.88-30.37,9.73-45.97
					c1.65-13.88-0.6-27.13-7.55-39.3c-9.94-17.41-26.03-30.1-38.79-45.31c-0.5-0.6-0.87-1.28-1.14-2.02
					c-2.45-6.8-6.42-13.01-12.27-18.05c-2.99-2.58-6.8,0.77-5.18,4.17c2.98,6.24,6.76,11.87,10.98,17.16
					c0.54,0.67,0.96,1.44,1.19,2.27c3.3,11.84,1.82,25.34-2.13,36.79c-8.36,24.24-25.8,44.13-33.93,68.52
					c-3.68,11.04-5.39,22.87-3.32,34.42c1.97,10.96,8.25,20.37,11.02,31.06c6.88,26.58-23.08,40.93-39.88,54.68
					c-20.68,16.93-37.18,38.9-47.87,63.38c-0.08,0.19-0.15,0.39-0.2,0.58c-0.31,1.19-0.76,2.34-1.59,3.25
					c-0.51,0.57-1.01,1.16-1.49,1.77c-2.64,3.37,2.18,8.04,4.83,4.65c9.88-12.65,26.86-13.79,41.63-14.85
					c2.81-0.2,5.65-0.43,8.5-0.75c0.67-0.07,1.34-0.04,1.99,0.1c7.89,1.63,15.93,1.98,23.99-0.26c7.27-2.02,13.3-6.24,18.25-11.87
					c4.86-5.52,8.83-12.12,14.84-16.52c10-7.3,23.03-8.34,34.52-12.03c12.71-4.09,22.89-11.95,26.77-25.2
					c4.36-14.88,0.29-30.42-4.62-44.59C2417.92,2236.4,2415.13,2229,2413.33,2221.32z"/>
			</g>
			<g class="st29">
				<defs>
					<path id="SVGID_9_" class="st29" d="M2413.33,2221.32c-1.82-7.76-2.18-15.68-1.14-23.58c2.04-15.57,7.88-30.37,9.73-45.97
						c1.65-13.88-0.6-27.13-7.55-39.3c-9.94-17.41-26.03-30.1-38.79-45.31c-0.5-0.6-0.87-1.28-1.14-2.02
						c-2.45-6.8-6.42-13.01-12.27-18.05c-2.99-2.58-6.8,0.77-5.18,4.17c2.98,6.24,6.76,11.87,10.98,17.16
						c0.54,0.67,0.96,1.44,1.19,2.27c3.3,11.84,1.82,25.34-2.13,36.79c-8.36,24.24-25.8,44.13-33.93,68.52
						c-3.68,11.04-5.39,22.87-3.32,34.42c1.97,10.96,8.25,20.37,11.02,31.06c6.88,26.58-23.08,40.93-39.88,54.68
						c-20.68,16.93-37.18,38.9-47.87,63.38c-0.08,0.19-0.15,0.39-0.2,0.58c-0.31,1.19-0.76,2.34-1.59,3.25
						c-0.51,0.57-1.01,1.16-1.49,1.77c-2.64,3.37,2.18,8.04,4.83,4.65c9.88-12.65,26.86-13.79,41.63-14.85
						c2.81-0.2,5.65-0.43,8.5-0.75c0.67-0.07,1.34-0.04,1.99,0.1c7.89,1.63,15.93,1.98,23.99-0.26c7.27-2.02,13.3-6.24,18.25-11.87
						c4.86-5.52,8.83-12.12,14.84-16.52c10-7.3,23.03-8.34,34.52-12.03c12.71-4.09,22.89-11.95,26.77-25.2
						c4.36-14.88,0.29-30.42-4.62-44.59C2417.92,2236.4,2415.13,2229,2413.33,2221.32z"/>
				</defs>
				<clipPath id="SVGID_10_">
					<use xlink:href="#SVGID_9_"  style="overflow:visible;"/>
				</clipPath>
				<g class="st32">
					<path class="st3" d="M2254.63,2369.8c0,0,69.13-60.74,76.07-63.95c6.95-3.21,45.29-20.87,46.49-51.83
						c1.2-30.96-5.34-58.25,0-74.81c5.34-16.57,19.1-48.63,8.21-72.68c-10.88-24.04-5.1-41.9-23.22-59.42
						c-18.12-17.52-93.47,59.96-79.04,104.85c14.43,44.89,28.86,122.9,0.53,140.54C2255.36,2310.13,2222.26,2397.94,2254.63,2369.8z
						"/>
				</g>
			</g>
			<g>
				<path class="st3" d="M2393.64,2161.36c-2.19,7.3-6.45,13.7-12.25,18.49c1.21-4.13,2.58-8.21,3.96-12.28
					c6.35-18.78,13.03-39.39,5.75-58.94c-1.68-4.52-8.99-2.56-7.28,2.01c3.26,8.75,3.43,17.71,2.08,26.59
					c-1.54-2.9-2.32-6.16-2.24-9.65c0.11-4.86-7.45-4.86-7.55,0c-0.16,7.3,2.62,14.35,7.73,19.5c-1.53,5.91-3.48,11.73-5.4,17.39
					c-2.93,8.67-5.9,17.38-7.4,26.43c-1.09,6.55-1.32,13.12-1.08,19.7c-6.26-5.03-10.51-12.37-11.31-20.52
					c-0.47-4.79-8.02-4.84-7.55,0c1.22,12.58,8.38,23.95,19.48,30.05c1.13,12.64,3.13,26.07,1.16,38.78
					c-0.61,0.85-0.73,1.87-0.51,2.83c-0.7,3.4-1.71,6.75-3.13,10c-4.47,10.22-12.83,16.07-21.92,21.12
					c0.51-5.15,1.37-10.23,2.59-15.29c1.13-4.72-6.15-6.74-7.28-2.01c-1.7,7.07-2.75,14.25-3.19,21.5
					c-2.72,1.44-5.43,2.89-8.04,4.46c-7.67,4.59-15.09,10.55-18.92,18.83c-3.7,8-4.25,17.46,0.58,25.12
					c2.59,4.1,9.13,0.31,6.52-3.81c-4.05-6.42-2.73-14.33,1.06-20.56c11.08,1.06,22.27-0.62,32.54-4.93
					c1.89-0.79,3.21-2.49,2.64-4.65c-0.47-1.78-2.77-3.43-4.65-2.64c-7.79,3.27-15.92,4.93-24.25,4.95c4-3.45,8.73-6.16,13.28-8.61
					c7.47-4.01,15.2-7.55,21.95-12.74c6.44-4.95,11.29-11.23,14.39-18.74c1.42-3.45,2.44-6.96,3.16-10.52
					c9.89-6.59,16.05-17.57,16.6-29.5c0.23-4.86-7.33-4.85-7.55,0c-0.32,6.94-3.14,13.45-7.72,18.47
					c0.49-9.69-0.56-19.55-1.48-29.16c-0.92-9.61-1.71-19.41-0.26-29.01c0.22-1.44,0.48-2.87,0.76-4.29
					c0.75,0.12,1.58-0.02,2.43-0.56c9.47-6.01,16.37-15.08,19.6-25.83C2402.32,2158.7,2395.04,2156.71,2393.64,2161.36z"/>
			</g>
		</g>
		<g>
			<g>
				<path class="st2" d="M2247.75,2206.75c2.77-3.31,4.87-7.04,6.29-11.12c2.8-8.02,3.59-16.59,6.49-24.58
					c2.58-7.11,6.89-12.96,13.21-17.15c9.04-5.99,19.91-8.21,29.77-12.45c0.39-0.17,0.73-0.41,1.04-0.7
					c2.84-2.69,6.27-4.72,10.32-5.73c2.07-0.52,3.1,2.03,1.49,3.27c-2.96,2.29-6.15,4.09-9.48,5.62c-0.42,0.19-0.81,0.46-1.12,0.81
					c-4.48,4.92-7.05,11.8-7.93,18.3c-1.86,13.75,1.72,27.6-0.28,41.37c-0.91,6.23-2.96,12.37-6.77,17.44
					c-3.62,4.81-8.95,7.83-12.89,12.33c-9.79,11.17,1.19,25.39,5.96,36.13c5.87,13.21,8.5,27.84,7.7,42.27
					c-0.01,0.11-0.02,0.22-0.04,0.33c-0.14,0.65-0.2,1.31-0.02,1.96c0.11,0.4,0.21,0.81,0.29,1.22c0.45,2.27-3.01,3.36-3.47,1.07
					c-1.7-8.52-9.62-13.2-16.5-17.31c-1.31-0.78-2.63-1.58-3.92-2.43c-0.3-0.2-0.64-0.34-0.99-0.44c-4.21-1.13-8.18-2.92-11.53-5.96
					c-3.02-2.74-4.91-6.25-5.93-10.18c-1-3.85-1.32-8.01-3.15-11.59c-3.06-5.96-9.1-9.63-13.75-14.22
					c-5.15-5.07-8.15-11.35-6.8-18.69c1.51-8.25,7.26-14.77,13.09-20.42C2241.86,2212.92,2245.01,2210.02,2247.75,2206.75z"/>
			</g>
			<g class="st29">
				<defs>
					<path id="SVGID_11_" class="st29" d="M2247.75,2206.75c2.77-3.31,4.87-7.04,6.29-11.12c2.8-8.02,3.59-16.59,6.49-24.58
						c2.58-7.11,6.89-12.96,13.21-17.15c9.04-5.99,19.91-8.21,29.77-12.45c0.39-0.17,0.73-0.41,1.04-0.7
						c2.84-2.69,6.27-4.72,10.32-5.73c2.07-0.52,3.1,2.03,1.49,3.27c-2.96,2.29-6.15,4.09-9.48,5.62c-0.42,0.19-0.81,0.46-1.12,0.81
						c-4.48,4.92-7.05,11.8-7.93,18.3c-1.86,13.75,1.72,27.6-0.28,41.37c-0.91,6.23-2.96,12.37-6.77,17.44
						c-3.62,4.81-8.95,7.83-12.89,12.33c-9.79,11.17,1.19,25.39,5.96,36.13c5.87,13.21,8.5,27.84,7.7,42.27
						c-0.01,0.11-0.02,0.22-0.04,0.33c-0.14,0.65-0.2,1.31-0.02,1.96c0.11,0.4,0.21,0.81,0.29,1.22c0.45,2.27-3.01,3.36-3.47,1.07
						c-1.7-8.52-9.62-13.2-16.5-17.31c-1.31-0.78-2.63-1.58-3.92-2.43c-0.3-0.2-0.64-0.34-0.99-0.44
						c-4.21-1.13-8.18-2.92-11.53-5.96c-3.02-2.74-4.91-6.25-5.93-10.18c-1-3.85-1.32-8.01-3.15-11.59
						c-3.06-5.96-9.1-9.63-13.75-14.22c-5.15-5.07-8.15-11.35-6.8-18.69c1.51-8.25,7.26-14.77,13.09-20.42
						C2241.86,2212.92,2245.01,2210.02,2247.75,2206.75z"/>
				</defs>
				<clipPath id="SVGID_12_">
					<use xlink:href="#SVGID_11_"  style="overflow:visible;"/>
				</clipPath>
				<g class="st33">
					<path class="st3" d="M2288.29,2317.12c0,0-18.62-46.17-21.19-49.41c-2.58-3.24-16.8-21.11-9.85-36.36s16.76-26.84,18.21-36.15
						c1.45-9.31,2.61-28.15,13.72-37.12s12.66-19.01,25.68-23.06s30.57,51.72,12.67,69.9s-43.86,52.36-34.46,67.78
						C2302.47,2288.11,2297.09,2338.6,2288.29,2317.12z"/>
				</g>
			</g>
			<g>
				<path class="st3" d="M2271.86,2182.57c-0.72,4.06-0.22,8.19,1.42,11.92c0.42-2.29,0.75-4.6,1.08-6.89
					c1.5-10.62,3.29-22.21,11.57-29.88c1.91-1.77,4.97,0.95,3.03,2.74c-3.7,3.44-5.97,7.72-7.47,12.34
					c1.45-1.03,2.62-2.41,3.43-4.12c1.13-2.38,4.78-0.54,3.65,1.84c-1.7,3.57-4.76,6.29-8.48,7.54c-0.7,3.23-1.17,6.52-1.62,9.72
					c-0.69,4.9-1.38,9.84-2.86,14.58c-1.07,3.43-2.56,6.66-4.27,9.78c4.25-0.91,8.09-3.42,10.46-7.16c1.39-2.2,5.06-0.39,3.65,1.84
					c-3.65,5.78-9.88,9.54-16.73,9.78c-3.62,5.83-7.86,11.83-10,18.46c0.09,0.56-0.1,1.08-0.44,1.49c-0.49,1.81-0.82,3.68-0.92,5.59
					c-0.33,6.03,2.29,10.89,5.45,15.54c1.01-2.61,1.83-5.28,2.47-8.02c0.6-2.56,4.61-1.76,4.01,0.8c-0.9,3.83-2.14,7.56-3.69,11.17
					c0.97,1.36,1.92,2.72,2.8,4.11c2.59,4.08,4.72,8.77,4.56,13.7c-0.16,4.77-2.2,9.47-6.4,12c-2.25,1.35-4.49-2.07-2.22-3.43
					c3.52-2.11,4.81-6.26,4.49-10.19c-5.61-2.18-10.61-5.72-14.52-10.3c-0.72-0.85-0.94-1.98-0.14-2.89
					c0.66-0.75,2.17-0.98,2.89-0.14c2.97,3.48,6.49,6.26,10.51,8.29c-1.09-2.64-2.72-5.1-4.32-7.39c-2.63-3.75-5.51-7.35-7.5-11.5
					c-1.91-3.96-2.72-8.17-2.39-12.56c0.15-2.01,0.51-3.96,1.03-5.85c-3.17-5.59-3.48-12.4-0.84-18.29c1.07-2.4,4.72-0.56,3.65,1.84
					c-1.53,3.43-1.76,7.26-0.77,10.8c2.12-4.8,5.03-9.31,7.81-13.73c2.78-4.42,5.55-8.96,7.19-13.95c0.25-0.75,0.47-1.5,0.68-2.26
					c-0.39-0.12-0.76-0.4-1.04-0.86c-3.11-5.21-4.24-11.27-3.18-17.25C2268.31,2179.17,2272.32,2179.98,2271.86,2182.57z"/>
			</g>
		</g>
		<g>
			<g>
				<path class="st2" d="M2277.07,2237.17c-5.22-9.4-12.51-17.01-21.27-23.18c-9.52-6.71-20.04-12.04-27.87-20.88
					c-7.57-8.54-12.39-19.46-13.7-30.79c-1.52-13.1,0.76-26.24,1.71-39.29c1.48-20.44-2.19-47.24-23.59-56.44
					c-2.57-1.11-4.89,0.7-4.49,3.45c2.11,14.4-5.03,28.66-14.26,39.25c-9.87,11.32-22.3,19.94-33.69,29.6
					c-10.48,8.89-20.5,19.21-26.05,31.98c-5.69,13.11-5.69,27.75-0.86,41.14c4.77,13.21,13.64,24.44,24.61,33.09
					c5.56,4.39,11.53,8.2,17.82,11.44c5.93,3.06,12.14,5.5,18.21,8.25c5.83,2.64,11.74,5.58,16.56,9.87
					c5.16,4.59,8.48,10.46,10.35,17.07c3.66,12.89,2.56,26.53,5.23,39.6c2.5,12.27,8.58,24.26,20.63,29.42
					c13.71,5.87,28.7,1.92,41.65-3.99c1.19-0.54,2.37-1.11,3.54-1.68c-1.28,6.67-2.41,13.35-3.19,20.09c-0.46,3.9,5.66,3.87,6.11,0
					c0.9-7.72,2.27-15.56,3.81-23.47c0.09-0.04,0.17-0.09,0.26-0.13c2.02-1.03,1.84-3.22,0.67-4.55
					C2286.65,2310.05,2296.27,2271.78,2277.07,2237.17z"/>
			</g>
			<g class="st29">
				<defs>
					<path id="SVGID_13_" class="st29" d="M2277.07,2237.17c-5.22-9.4-12.51-17.01-21.27-23.18c-9.52-6.71-20.04-12.04-27.87-20.88
						c-7.57-8.54-12.39-19.46-13.7-30.79c-1.52-13.1,0.76-26.24,1.71-39.29c1.48-20.44-2.19-47.24-23.59-56.44
						c-2.57-1.11-4.89,0.7-4.49,3.45c2.11,14.4-5.03,28.66-14.26,39.25c-9.87,11.32-22.3,19.94-33.69,29.6
						c-10.48,8.89-20.5,19.21-26.05,31.98c-5.69,13.11-5.69,27.75-0.86,41.14c4.77,13.21,13.64,24.44,24.61,33.09
						c5.56,4.39,11.53,8.2,17.82,11.44c5.93,3.06,12.14,5.5,18.21,8.25c5.83,2.64,11.74,5.58,16.56,9.87
						c5.16,4.59,8.48,10.46,10.35,17.07c3.66,12.89,2.56,26.53,5.23,39.6c2.5,12.27,8.58,24.26,20.63,29.42
						c13.71,5.87,28.7,1.92,41.65-3.99c1.19-0.54,2.37-1.11,3.54-1.68c-1.28,6.67-2.41,13.35-3.19,20.09c-0.46,3.9,5.66,3.87,6.11,0
						c0.9-7.72,2.27-15.56,3.81-23.47c0.09-0.04,0.17-0.09,0.26-0.13c2.02-1.03,1.84-3.22,0.67-4.55
						C2286.65,2310.05,2296.27,2271.78,2277.07,2237.17z"/>
				</defs>
				<clipPath id="SVGID_14_">
					<use xlink:href="#SVGID_13_"  style="overflow:visible;"/>
				</clipPath>
				<g class="st34">
					<path class="st3" d="M2187.86,2070.04c0,0,36.54,28.48-12.09,92.07c0,0-22.51,35.37,43.25,71.12s14.46,177.36,14.46,177.36
						s-62.52,16.55-94.58-51.84c-32.06-68.39-126.64-177.4-78.55-230.3C2108.44,2075.54,2187.86,2070.04,2187.86,2070.04z"/>
				</g>
			</g>
			<g>
				<path class="st3" d="M2257.94,2261.29c-1.58,7.81-3.67,15.49-6.3,23c-0.06-0.39-0.12-0.79-0.18-1.18
					c-1.59-9.95-3.47-20.07-7.16-29.49c-3.47-8.87-8.53-16.92-16-22.95c-0.69-0.56-1.4-1.1-2.11-1.62
					c2.24-6.96,2.69-14.18,1.66-21.47c-0.68-4.79-7.96-2.75-7.28,2.01c0.72,5.1,0.32,10.19-0.97,15.1
					c-5.11-3.05-10.5-5.66-15.81-8.4c-7.27-3.74-14.7-7.97-20.26-14.08c9.5-7.23,15.24-18.5,15.23-30.56c0-4.86-7.56-4.87-7.55,0
					c0.01,9.57-4.46,18.68-12.05,24.43c-3.71-7.02-4.06-15.12-2.08-23.02c5.51-21.99,23.85-38.57,25.6-61.85
					c0.36-4.85-7.19-4.83-7.55,0c-1.32,17.66-13.51,31.91-20.88,47.62c-2.99-5.35-4.3-11.47-3.34-17.64
					c0.74-4.76-6.53-6.8-7.28-2.01c-1.43,9.16,0.36,18.34,5.69,26.01c0.5,0.72,1.12,1.18,1.79,1.44c-2.97,8.94-4.12,18.9-0.89,27.92
					c1.34,3.73,3.28,7.09,5.64,10.12c-9.64,2.77-19.28-1.59-23.55-10.97c-2.01-4.42-8.53-0.58-6.52,3.81
					c5.85,12.82,20.99,18.91,34.1,13.76c0.53-0.21,0.97-0.5,1.33-0.84c1.68,1.54,3.46,2.98,5.32,4.34
					c12.29,8.98,28.22,13.44,39.32,23.83c-10.61,8.18-25.07,8.6-36.42,1.46c-4.13-2.6-7.92,3.94-3.81,6.52
					c14.24,8.96,32.11,7.76,45.23-2.37c0.55,0.75,1.09,1.52,1.6,2.33c5.03,8,7.58,17.24,9.5,26.41c1.57,7.45,2.77,14.97,3.65,22.54
					c-8.1-0.61-15.43-4.37-20.88-10.36c-3.28-3.6-8.61,1.75-5.34,5.34c6.88,7.56,16.31,11.91,26.47,12.6c0.18,0.01,0.35,0.01,0.52,0
					c0.09,1.06,0.18,2.13,0.26,3.19c1.85,25.13,0.08,50.43-5.26,75.06c-1.03,4.74,6.25,6.76,7.28,2.01
					c4.76-21.92,6.87-44.41,6.09-66.84c-0.19-5.6-0.57-11.19-1.12-16.76c5.15-11.73,9.08-23.87,11.62-36.43
					C2266.19,2258.55,2258.91,2256.52,2257.94,2261.29z"/>
			</g>
		</g>
		<g class="st35">
			<ellipse class="st3" cx="2286.81" cy="2478.58" rx="87.91" ry="18.5"/>
		</g>
		<g>
			<polygon class="st36" points="2361.06,2479.77 2212.56,2479.77 2198.9,2324.98 2374.73,2324.98 			"/>
		</g>
		<g class="st35">
			<polygon class="st3" points="2372.47,2350.57 2200.98,2350.57 2202.65,2367.53 2370.97,2367.53 			"/>
		</g>
	</g>
	<g>
		<g>
			<g>
				
					<ellipse transform="matrix(0.7071 -0.7071 0.7071 0.7071 -264.5105 663.7097)" class="st12" cx="668.91" cy="651.15" rx="100.14" ry="100.14"/>
			</g>
		</g>
		<g>
			<g>
				
					<ellipse transform="matrix(0.9239 -0.3827 0.3827 0.9239 -198.7598 306.2773)" class="st19" cx="670.56" cy="652.79" rx="84.63" ry="84.63"/>
			</g>
		</g>
		<g>
			<g>
				<polygon class="st12" points="671.32,703.1 666.51,703.1 666.51,658.73 634.91,595.19 639.22,593.05 671.32,657.6 				"/>
			</g>
		</g>
	</g>
	<g id="XMLID_1_">
		<path class="st3" d="M1504.24,1894.22H953.38v-74.65h550.86c10.27,0,18.6,16.71,18.6,37.32l0,0
			C1522.83,1877.52,1514.51,1894.22,1504.24,1894.22z"/>
	</g>
</g>
</svg>
