<svg xmlns="http://www.w3.org/2000/svg" xmlns:xlink="http://www.w3.org/1999/xlink" viewBox="0 0 103.29 59.16"><defs><style>.cls-1{fill:none;}.cls-2{fill:#e2e9fb;}.cls-3{clip-path:url(#clip-path);}.cls-4{fill:#d3ddf8;}.cls-5{fill:#3d6b6b;}.cls-6{fill:#244140;}.cls-7{fill:#f1543b;}.cls-8{fill:#ff765f;}.cls-9{fill:#d1e2ee;}.cls-10{fill:#fff;}.cls-11{fill:#208674;}.cls-12{fill:#5d59bc;}.cls-13{fill:#443e90;}.cls-14{fill:#ffa44a;}.cls-15{fill:#635dad;}.cls-16{fill:#ebe5f9;}.cls-17{fill:#433e90;opacity:0.36;}.cls-18{fill:#ffa47f;}.cls-19{fill:#f6979b;}.cls-20{fill:#402015;}.cls-21{fill:#9f4424;}.cls-22{fill:#005644;}.cls-23{fill:#584441;}.cls-24{fill:#bd7850;}.cls-25{fill:#f27049;}.cls-26{fill:#ffc17d;}.cls-27{fill:#412014;}</style><clipPath id="clip-path" transform="translate(0 1.04)"><path class="cls-1" d="M2.75,58S-1.47,52.42.55,45.75,7.74,34,6.07,26.23C4.08,17.06,8.7,9.56,17,10.32,31.81,11.68,40.64,1.57,45.68.53c14.94-3.08,17.66,8.2,25.73,9.3,17.4,2.37,22.78,10,22.15,24.53C93.36,39.15,106.68,48.75,99,58Z"/></clipPath></defs><g id="Layer_2" data-name="Layer 2"><g id="layer_1-2" data-name="layer 1"><path class="cls-2" d="M2.75,58S-1.47,52.42.55,45.75,7.74,34,6.07,26.23C4.08,17.06,8.73,9.32,17,10.32,30.73,12,40.64,1.57,45.68.53c14.94-3.08,17.66,8.2,25.73,9.3,17.4,2.37,22.78,10,22.15,24.53C93.36,39.15,106.68,48.75,99,58Z" transform="translate(0 1.04)"/><g class="cls-3"><rect class="cls-4" x="29.11" y="-9.79" width="1.47" height="36.84" transform="translate(38.47 -20.17) rotate(90)"/><rect class="cls-4" x="29.11" y="1.4" width="1.47" height="36.84" transform="translate(49.67 -8.97) rotate(90)"/><rect class="cls-4" x="29.11" y="12.6" width="1.47" height="36.84" transform="translate(60.86 2.22) rotate(90)"/><rect class="cls-4" x="11.13" width="1.47" height="32.8"/><rect class="cls-4" x="23.26" width="1.47" height="32.8"/><rect class="cls-4" x="35.39" width="1.47" height="32.8"/><rect class="cls-4" x="47.53" width="1.47" height="32.8"/><path class="cls-4" d="M20.73,25a3.93,3.93,0,0,0-.52,1.41q-.13.52-.24,1.05h-.23a27.48,27.48,0,0,1,.57-2.87,1.7,1.7,0,0,1,1.28-1.21c.55-.16,1.11-.29,1.67-.44a10.59,10.59,0,0,0-2.23.23,8.74,8.74,0,0,0-.85.25,28.51,28.51,0,0,1,1.29-3.06,8.1,8.1,0,0,0-2.27,7.1H19l0,0a31.58,31.58,0,0,0-.69-3.21,5.6,5.6,0,0,0-1.95-2.26c-.07-.05-.14,0-.11.11.4.93,1.06,1.67,1.48,2.58.34.74.61,1.51.88,2.29a2.15,2.15,0,0,0-1.38-.73c-.93-.11-1.35.44-1.65,1.25,0,.09.11.14.15.07a1.77,1.77,0,0,1,1.58-.66,2.32,2.32,0,0,1,1.42.59H18l.52,3.13h1.79l.51-3.13H20.4c.15-.35.28-.72.44-1.07s.44-.89,1-.8a11.29,11.29,0,0,1,1.14.31C23.12,25.89,21.26,24.34,20.73,25Z" transform="translate(0 1.04)"/><path class="cls-4" d="M82.55,11V31.76h20.74V11Zm17.63,17.63H85.65V14.12h14.53Z" transform="translate(0 1.04)"/><path class="cls-4" d="M73.52,22.07v7.32h7.32V22.07Zm6.23,6.22H74.62V23.17h5.13Z" transform="translate(0 1.04)"/><path class="cls-4" d="M64.55,22.07v7.32h7.32V22.07Zm6.22,6.22H65.64V23.17h5.13Z" transform="translate(0 1.04)"/><path class="cls-4" d="M64.55,11.88V19.2h7.32V11.88Zm6.22,6.22H65.64V13h5.13Z" transform="translate(0 1.04)"/><path class="cls-4" d="M55.53,22.07v7.32h7.32V22.07Zm6.22,6.22H56.62V23.17h5.13Z" transform="translate(0 1.04)"/></g><path class="cls-5" d="M96.78,30.09a.13.13,0,0,0-.1-.12,5.81,5.81,0,0,0-3.63.37,3.82,3.82,0,0,0-1.41,3,.12.12,0,0,0,.18.13h0C94.1,34.78,96.78,32.9,96.78,30.09Z" transform="translate(0 1.04)"/><path class="cls-5" d="M90.62,34.55a3.21,3.21,0,0,0-.49-2.47,11.43,11.43,0,0,0-2.34-1.88.12.12,0,0,0-.19.13c.24,1.09,0,2.37.58,3.36a2.07,2.07,0,0,0,2.25,1,.11.11,0,0,0,.09-.07A.11.11,0,0,0,90.62,34.55Z" transform="translate(0 1.04)"/><path class="cls-5" d="M97.64,38.32a2.65,2.65,0,0,0-1.91-.65,5.42,5.42,0,0,0-2.26.25,3,3,0,0,0-2,3.28.12.12,0,0,0,.06.16c1.08.54,1.74-.23,2.53-1a7.24,7.24,0,0,1,3.53-1.85C97.64,38.51,97.71,38.39,97.64,38.32Z" transform="translate(0 1.04)"/><path class="cls-5" d="M90,38.37a4,4,0,0,0-1.72-2.32.12.12,0,0,0-.17.1c-.2,1.71-.91,4.34.65,5.49h0a.11.11,0,0,0,.2,0C89.62,40.72,90.32,39.6,90,38.37Z" transform="translate(0 1.04)"/><path class="cls-5" d="M85.48,38.91a2.74,2.74,0,0,0-3-.74c-1.41.57-1.39,2.36-1.76,3.69a.13.13,0,0,0,.19.15c1.46-1.1,3.34-1.37,4.54-2.9h0C85.5,39.07,85.55,39,85.48,38.91Z" transform="translate(0 1.04)"/><path class="cls-5" d="M85.32,40.25a.12.12,0,0,0-.14-.07.1.1,0,0,0-.14,0,2.82,2.82,0,0,0-1.78,1.63c-.29,1,.12,2.1,0,3.14,0,.14.19.22.23.06.29-1,1.28-1.3,1.73-2.14A3.37,3.37,0,0,0,85.32,40.25Z" transform="translate(0 1.04)"/><path class="cls-5" d="M88.61,46.8A5.28,5.28,0,0,0,86,43.86a.13.13,0,0,0-.16.18c.23.53.16,1.1.35,1.63a1.93,1.93,0,0,0,.56.78,1.79,1.79,0,0,0,1.9.6C88.83,47,88.75,46.76,88.61,46.8Z" transform="translate(0 1.04)"/><path class="cls-5" d="M90.52,45.61a.06.06,0,0,0,0,0c-.41-1-.29-2.18-.92-3.07a.11.11,0,0,0-.19,0,2.45,2.45,0,0,0-.51,2.07,1.8,1.8,0,0,0,1.53,1.26C90.54,45.86,90.58,45.7,90.52,45.61Z" transform="translate(0 1.04)"/><path class="cls-5" d="M93.29,35.39c-.13-.16-.35,0-.51,0a3.57,3.57,0,0,0-.85.38,2.08,2.08,0,0,0-1,1.44.07.07,0,0,0,0,.05s0,0,0,0a.12.12,0,0,0,.22.08,2.66,2.66,0,0,0,1.57-.88C92.91,36.32,93.6,35.76,93.29,35.39Z" transform="translate(0 1.04)"/><path class="cls-6" d="M88.63,44.79c0-.53-.11-1.07-.21-1.6h0A8,8,0,0,0,89,40.73a.12.12,0,0,0,.11-.08,4.65,4.65,0,0,0,.36-1.48.12.12,0,1,0-.24,0,4.57,4.57,0,0,1-.21,1A8.2,8.2,0,0,0,88.93,39a.13.13,0,1,0-.25,0,7.7,7.7,0,0,1-.35,3.72,7.33,7.33,0,0,0-.67-1.89c-.74-1.37-2.27-2.34-3.63-1.91a.13.13,0,0,0-.07-.12,1.76,1.76,0,0,0-1.47.07c-.15.07-.06.31.09.24A1.55,1.55,0,0,1,83.77,39a2.61,2.61,0,0,0-.91.72c-.11.12.09.28.19.16a2.32,2.32,0,0,1,2.84-.56,3.23,3.23,0,0,1,.74.53,3.6,3.6,0,0,0-2.7,1.19c-.13.1,0,.31.15.21s.31-.27.48-.4a3.24,3.24,0,0,0-.12.81c0,.17.23.21.24,0a3.23,3.23,0,0,1,.19-1,.11.11,0,0,0,0-.05,2.38,2.38,0,0,1,1.83-.48.11.11,0,0,0,.12-.08,5.47,5.47,0,0,1,1.07,2,16,16,0,0,1,.62,4.63,2.57,2.57,0,0,1-1.18-1c-.09-.14-.29,0-.2.16a2.89,2.89,0,0,0,.53.62,3.1,3.1,0,0,1-.42-.08c-.15-.05-.24.2-.09.25a3.11,3.11,0,0,0,.69.12.11.11,0,0,0,.11-.06,2.69,2.69,0,0,0,.53.28h0c0,.77-.1,7-.16,7.69a.12.12,0,1,0,.24,0C88.72,53.2,88.77,46.28,88.63,44.79Z" transform="translate(0 1.04)"/><path class="cls-6" d="M93.32,39.81q-.36.22-.69.48A4.2,4.2,0,0,1,93.35,39a.12.12,0,1,0-.19-.16,4.73,4.73,0,0,0-.85,1.56.16.16,0,0,0,0,.1,9,9,0,0,0-1.62,1.8c0-.92.11-1.85.19-2.78,0-.65.09-1.39.17-2.15a3,3,0,0,1,1.14-.92.13.13,0,0,0-.09-.25,2.69,2.69,0,0,0-1,.74c0-.35.09-.71.15-1.06a.12.12,0,0,0,0-.12c.35-1.86,1.08-3.58,2.82-4.21.15-.05.06-.3-.09-.24a3.72,3.72,0,0,0-1.15.66,1.91,1.91,0,0,1,.21-.74.12.12,0,1,0-.22-.1,2.14,2.14,0,0,0-.23,1.06h0a6.52,6.52,0,0,0-1.51,3.27L90.24,34a.15.15,0,0,0,.07-.11,2.16,2.16,0,0,0-.2-1.07.13.13,0,0,0-.23.11,1.72,1.72,0,0,1,.18.78l-.32-.55c-.09-.14-.28,0-.2.17l1.51,2.51c-.09.47-.15.93-.2,1.39l0,0a.12.12,0,0,0,0,.16c0,.45-.08.89-.12,1.31-.19,2.13-.3,4.27-.36,6.41a2.7,2.7,0,0,1-.73-1.35c-.05-.17-.28-.06-.23.1a2.76,2.76,0,0,0,.89,1.53h.07c0,1.38-.09,8.18-.07,9.55,0,.17.25.13.25,0,0-2.25,0-9.94.15-12.19a.12.12,0,0,0,.07-.05,8.18,8.18,0,0,1,2.66-2.67C93.55,40,93.46,39.73,93.32,39.81Z" transform="translate(0 1.04)"/><path class="cls-7" d="M92.56,53.34a7.51,7.51,0,0,1-.49,2.45h0a7.7,7.7,0,0,1-1.09,2h-3.6a8.34,8.34,0,0,1-.83-8.34h5.26A8.92,8.92,0,0,1,92.56,53.34Z" transform="translate(0 1.04)"/><path class="cls-8" d="M91.34,58H87a.24.24,0,0,1-.24-.24h0a.23.23,0,0,1,.24-.24h4.32a.24.24,0,0,1,.24.24h0A.24.24,0,0,1,91.34,58Z" transform="translate(0 1.04)"/><path class="cls-8" d="M92.56,53.34a2.22,2.22,0,0,1-2,.35c-1.67-.49-1.61-3-1.47-4.28h2.73A8.92,8.92,0,0,1,92.56,53.34Z" transform="translate(0 1.04)"/><path class="cls-9" d="M67.11,52l2.18-3.58-2.14-1.56a10.35,10.35,0,0,0,.56-3.63l1.52.18,1-1-1-4.07-2.62.41a10.43,10.43,0,0,0-2.16-3l1.17-2.37L62,31.22,61,32.27l-.5,1.09a10.59,10.59,0,0,0-3.63-.56L56,30.29l-4.07,1-1,1,1.45,1.59a10.46,10.46,0,0,0-3,2.17L47,34.89l-1,1-1.16,2.54L47,40a10.51,10.51,0,0,0-.56,3.63l-2.51.84-1,1.06,2,3,2.62-.41a10.62,10.62,0,0,0,2.16,3l-1.17,2.37L51,56.74l1-1.05,1.56-2.14a10.37,10.37,0,0,0,3.64.56l.84,2.51,3,.05,1-1L61.77,53a10.27,10.27,0,0,0,3-2.17l1.33,2.23Zm-14-2.11a7.55,7.55,0,1,1,10.38-2.53A7.55,7.55,0,0,1,53.13,49.91Z" transform="translate(0 1.04)"/><path class="cls-10" d="M66.68,44.27l2.51-.84-1-4.07-2.61.4a10.76,10.76,0,0,0-2.17-3l1.18-2.38L61,32.25l-1.57,2.14a10.28,10.28,0,0,0-3.63-.56L55,31.31l-4.06,1,.4,2.62a10.61,10.61,0,0,0-3,2.17L46,35.92,43.78,39.5l2.14,1.56a10.55,10.55,0,0,0-.56,3.63l-2.51.85,1,4.07,2.62-.41a10.8,10.8,0,0,0,2.17,3l-1.18,2.37L51,56.72l1.57-2.14a10.76,10.76,0,0,0,3.63.56l.85,2.51,4.06-1L60.74,54a10.42,10.42,0,0,0,3-2.17l2.37,1.18,2.18-3.58-2.13-1.56A10.85,10.85,0,0,0,66.68,44.27Zm-4.21,4.14A7.55,7.55,0,1,1,59.94,38,7.55,7.55,0,0,1,62.47,48.41Z" transform="translate(0 1.04)"/><path class="cls-9" d="M62.47,48.41A7.55,7.55,0,1,1,59.94,38,7.55,7.55,0,0,1,62.47,48.41Z" transform="translate(0 1.04)"/><path class="cls-11" d="M53.65,46.22,50.22,43l.37-1,4.72-.26-.42,1.16-3.25,0,2.43,2.17Z" transform="translate(0 1.04)"/><path class="cls-11" d="M53.74,47.14l3.74-5.61.85.31-3.75,5.61Z" transform="translate(0 1.04)"/><path class="cls-11" d="M56.73,47.36l.43-1.15,3.26-.07L58,44l.42-1.14,3.43,3.27-.36,1Z" transform="translate(0 1.04)"/><rect class="cls-12" x="36.99" y="27.05" width="3.75" height="9.44" transform="translate(77.73 64.59) rotate(180)"/><rect class="cls-13" x="36.19" y="27.05" width="3.75" height="9.44" transform="translate(76.13 64.59) rotate(180)"/><rect class="cls-12" x="34.44" y="35.53" width="10.24" height="0.96" transform="translate(79.12 73.06) rotate(180)"/><rect class="cls-13" x="32.25" y="35.53" width="10.87" height="0.96" transform="translate(75.38 73.06) rotate(180)"/><rect class="cls-13" x="30.64" y="22.55" width="15.83" height="11.05" rx="0.44"/><rect class="cls-13" x="30.15" y="22.55" width="15.83" height="11.05" rx="0.44"/><rect class="cls-12" x="30.86" y="23.04" width="14.42" height="10.07" rx="0.4"/><path class="cls-2" d="M41,24.06H37.6a.06.06,0,0,1-.06-.06s0-.07.06-.07H41A.07.07,0,0,1,41,24,.06.06,0,0,1,41,24.06Z" transform="translate(0 1.04)"/><path class="cls-2" d="M36.6,24.06H33.78a.06.06,0,0,1-.06-.06.07.07,0,0,1,.06-.07H36.6a.07.07,0,0,1,.06.07A.06.06,0,0,1,36.6,24.06Z" transform="translate(0 1.04)"/><path class="cls-2" d="M41.39,28H35.73a.06.06,0,1,1,0-.12h5.66a.06.06,0,1,1,0,.12Z" transform="translate(0 1.04)"/><path class="cls-2" d="M34.71,28h-.49a.06.06,0,0,1,0-.12h.49a.06.06,0,0,1,0,.12Z" transform="translate(0 1.04)"/><path class="cls-2" d="M41.39,28.94h-3a.06.06,0,0,1-.06-.06.05.05,0,0,1,.06-.06h3a.06.06,0,0,1,.06.06A.06.06,0,0,1,41.39,28.94Z" transform="translate(0 1.04)"/><path class="cls-2" d="M37.48,28.94H34.22a.06.06,0,0,1-.06-.06.06.06,0,0,1,.06-.06h3.26a.05.05,0,0,1,.06.06A.06.06,0,0,1,37.48,28.94Z" transform="translate(0 1.04)"/><path class="cls-2" d="M43.05,29.88H37.39a.06.06,0,0,1-.06-.06.06.06,0,0,1,.06-.06h5.66a.06.06,0,0,1,.06.06A.06.06,0,0,1,43.05,29.88Z" transform="translate(0 1.04)"/><path class="cls-2" d="M36.37,29.88h-.49a.06.06,0,0,1-.06-.06.06.06,0,0,1,.06-.06h.49a.06.06,0,0,1,.06.06A.06.06,0,0,1,36.37,29.88Z" transform="translate(0 1.04)"/><path class="cls-2" d="M43.05,30.87H40a.06.06,0,0,1,0-.12h3a.06.06,0,1,1,0,.12Z" transform="translate(0 1.04)"/><path class="cls-2" d="M39.14,30.87H35.88a.06.06,0,1,1,0-.12h3.26a.06.06,0,1,1,0,.12Z" transform="translate(0 1.04)"/><path class="cls-2" d="M41.87,25H36.8a.06.06,0,0,1-.06-.06.06.06,0,0,1,.06-.06h5.07a.06.06,0,0,1,.06.06A.05.05,0,0,1,41.87,25Z" transform="translate(0 1.04)"/><path class="cls-2" d="M35.88,25h-.26a.06.06,0,0,1-.06-.06.06.06,0,0,1,.06-.06h.26a.06.06,0,0,1,.06.06A.06.06,0,0,1,35.88,25Z" transform="translate(0 1.04)"/><path class="cls-2" d="M41.87,25.92h-2.7a.06.06,0,0,1,0-.12h2.7a.06.06,0,1,1,0,.12Z" transform="translate(0 1.04)"/><path class="cls-2" d="M38.37,25.92H35.62a.06.06,0,0,1,0-.12h2.75a.06.06,0,1,1,0,.12Z" transform="translate(0 1.04)"/><path class="cls-14" d="M43.37,25.27a.33.33,0,0,1-.15,0,.23.23,0,0,1-.07-.13,1.31,1.31,0,0,1,0-.27.83.83,0,0,0,0-.25.23.23,0,0,0-.07-.14.35.35,0,0,0-.13-.08l-.23,0h-.06v.26a.51.51,0,0,1,.16,0,.1.1,0,0,1,0,0,.31.31,0,0,1,0,.11c0,.18,0,.29,0,.34a.47.47,0,0,0,.07.19.63.63,0,0,0,.12.1s-.08.05-.1.09a.41.41,0,0,0-.07.11s0,.11,0,.19,0,.21,0,.26a.22.22,0,0,1,0,.09l-.06,0a.4.4,0,0,1-.15,0v.26h.27a.35.35,0,0,0,.15-.09.21.21,0,0,0,.07-.13,1.15,1.15,0,0,0,0-.3c0-.09,0-.15,0-.19a.36.36,0,0,1,0-.11.15.15,0,0,1,.07-.07l.12,0Z" transform="translate(0 1.04)"/><path class="cls-14" d="M31.8,23.76l.12,0a.16.16,0,0,1,.07.07A.37.37,0,0,1,32,24v.19a1.9,1.9,0,0,0,0,.3.4.4,0,0,0,.07.13.35.35,0,0,0,.16.09l.21,0h.06v-.27H32.4a.12.12,0,0,1,0-.05.2.2,0,0,1,0-.09c0-.05,0-.13,0-.26a.5.5,0,0,0,0-.19.39.39,0,0,0-.06-.11.33.33,0,0,0-.11-.09.32.32,0,0,0,.12-.1.36.36,0,0,0,.07-.19,2,2,0,0,0,0-.34.27.27,0,0,1,0-.11.07.07,0,0,1,0,0,.42.42,0,0,1,.16,0v-.26H32.5l-.23,0a.29.29,0,0,0-.13.08.39.39,0,0,0-.08.14,1.38,1.38,0,0,0,0,.25,1.64,1.64,0,0,1,0,.27.24.24,0,0,1-.08.13.27.27,0,0,1-.15,0Z" transform="translate(0 1.04)"/><path class="cls-14" d="M44.37,30.14a.33.33,0,0,1-.15-.05.2.2,0,0,1-.07-.12,1.38,1.38,0,0,1,0-.27.9.9,0,0,0,0-.26.21.21,0,0,0-.07-.13.26.26,0,0,0-.13-.08.75.75,0,0,0-.23,0h-.06v.26h.16a.12.12,0,0,1,0,.05.28.28,0,0,1,0,.11c0,.17,0,.29,0,.34a.42.42,0,0,0,.07.18.65.65,0,0,0,.12.11.27.27,0,0,0-.1.08.35.35,0,0,0-.07.12q0,.08,0,.18c0,.13,0,.22,0,.26a.25.25,0,0,1,0,.1l-.06,0a.4.4,0,0,1-.15,0v.26h.06l.21,0a.35.35,0,0,0,.15-.08.21.21,0,0,0,.07-.14,1.07,1.07,0,0,0,0-.3.87.87,0,0,1,0-.18.34.34,0,0,1,0-.12.19.19,0,0,1,.07-.06.21.21,0,0,1,.12,0Z" transform="translate(0 1.04)"/><path class="cls-14" d="M32.86,28.52l.12,0a.16.16,0,0,1,.07.07.21.21,0,0,1,0,.12.77.77,0,0,1,0,.18,1.9,1.9,0,0,0,0,.3.46.46,0,0,0,.07.14.48.48,0,0,0,.16.08l.21,0h.06v-.27h-.16a.12.12,0,0,1-.05-.05.17.17,0,0,1,0-.09c0-.05,0-.13,0-.26a.42.42,0,0,0,0-.18.34.34,0,0,0-.06-.12.53.53,0,0,0-.11-.09.32.32,0,0,0,.12-.1.36.36,0,0,0,.07-.19,2,2,0,0,0,0-.34.27.27,0,0,1,0-.11.11.11,0,0,1,.05,0h.16v-.27h-.06l-.23,0a.41.41,0,0,0-.13.08.39.39,0,0,0-.08.14,1.51,1.51,0,0,0,0,.26,1.57,1.57,0,0,1,0,.26.32.32,0,0,1-.08.13.27.27,0,0,1-.15,0Z" transform="translate(0 1.04)"/><rect class="cls-12" x="5.61" y="38.6" width="13.25" height="20.44"/><rect class="cls-13" x="16.47" y="38.6" width="10.63" height="20.44"/><rect class="cls-15" x="5.61" y="38.6" width="21.5" height="1.4"/><rect class="cls-15" x="52.03" y="38.6" width="1.09" height="20.44"/><rect class="cls-12" x="51.73" y="37.55" width="0.3" height="20.44" transform="translate(103.76 96.59) rotate(180)"/><rect class="cls-12" x="3.5" y="37.49" width="50.38" height="1.32"/><rect class="cls-13" x="39.67" y="37.49" width="14.22" height="1.32"/><rect class="cls-16" x="6.29" y="40.71" width="9.54" height="4.11" rx="0.64"/><path class="cls-13" d="M15.5,40.38v2.69a.45.45,0,0,1-.45.45h-8a.45.45,0,0,1-.45-.45V40.38a.43.43,0,0,1,.06-.22.46.46,0,0,1,.39-.23h8a.46.46,0,0,1,.39.23A.43.43,0,0,1,15.5,40.38Z" transform="translate(0 1.04)"/><path class="cls-17" d="M15.44,40.16H6.68a.46.46,0,0,1,.39-.23h8A.46.46,0,0,1,15.44,40.16Z" transform="translate(0 1.04)"/><path class="cls-16" d="M11.48,41.81a.42.42,0,1,0-.42.42A.42.42,0,0,0,11.48,41.81Z" transform="translate(0 1.04)"/><rect class="cls-16" x="6.29" y="45.98" width="9.54" height="4.11" rx="0.64"/><path class="cls-13" d="M15.5,45.65v2.69a.45.45,0,0,1-.45.45h-8a.45.45,0,0,1-.45-.45V45.65a.4.4,0,0,1,.06-.22.46.46,0,0,1,.39-.23h8a.46.46,0,0,1,.39.23A.4.4,0,0,1,15.5,45.65Z" transform="translate(0 1.04)"/><path class="cls-17" d="M15.44,45.43H6.68a.46.46,0,0,1,.39-.23h8A.46.46,0,0,1,15.44,45.43Z" transform="translate(0 1.04)"/><path class="cls-16" d="M11.48,47.08a.42.42,0,0,0-.84,0,.42.42,0,1,0,.84,0Z" transform="translate(0 1.04)"/><rect class="cls-16" x="6.29" y="51.25" width="9.54" height="4.11" rx="0.64"/><path class="cls-13" d="M15.5,50.92v2.69a.45.45,0,0,1-.45.44h-8a.45.45,0,0,1-.45-.44V50.92a.4.4,0,0,1,.06-.22.44.44,0,0,1,.39-.23h8a.44.44,0,0,1,.39.23A.4.4,0,0,1,15.5,50.92Z" transform="translate(0 1.04)"/><path class="cls-17" d="M15.44,50.7H6.68a.44.44,0,0,1,.39-.23h8A.44.44,0,0,1,15.44,50.7Z" transform="translate(0 1.04)"/><path class="cls-16" d="M11.48,52.35a.42.42,0,0,0-.84,0,.42.42,0,0,0,.84,0Z" transform="translate(0 1.04)"/><path class="cls-18" d="M27.81,25.06s-.19,1.1.15,1.25a3.64,3.64,0,0,0,.81.19s-1.89,2.74-4-.25c0,0,.64,0,.84-.25a5.44,5.44,0,0,0,.23-2.38Z" transform="translate(0 1.04)"/><path class="cls-19" d="M25.57,26a5.44,5.44,0,0,0,.23-2.38l1.14.82a3.18,3.18,0,0,0-.56.81c-.3.56-.47,1.35.12,1.78a1.8,1.8,0,0,0,1.59.16c-.74.55-2,.95-3.36-.94C24.73,26.25,25.37,26.26,25.57,26Z" transform="translate(0 1.04)"/><path class="cls-18" d="M34.31,36c1.15.41,5.61.34,6.46.34,1,0,1.56-1.67.52-1.8S34.63,33.27,34,33.36C33,33.52,32.86,35.49,34.31,36Z" transform="translate(0 1.04)"/><path class="cls-18" d="M44.55,36.17c-.33-.36-.65-.71-.38-.47s.82,0,.48-.29a6.31,6.31,0,0,0-1.4-1.13c-.56-.27-1.88.36-2.45.3-.23,0-.27,1.2-.1,1.32.55.39,1.29.16,1.37.22a5.22,5.22,0,0,1,.46.62c.22.3.8.17.58-.13s0-.24.16,0,.85.16.59-.17c-.11-.14-.12-.23,0-.06C44.23,36.76,44.87,36.52,44.55,36.17Z" transform="translate(0 1.04)"/><path class="cls-18" d="M28.77,20.66V24A1.7,1.7,0,0,1,27,25.61h0A1.71,1.71,0,0,1,25.22,24v-.07a.73.73,0,0,1-.91-.8c0-1,.57-.86.57-.86V20.66Z" transform="translate(0 1.04)"/><path class="cls-20" d="M24.1,21.2a1.8,1.8,0,0,1,.73-2.2h0c.48-1,2.11-.95,2.59-.66a1,1,0,0,1,1.33.12,1.09,1.09,0,0,1,1.13.84A1.27,1.27,0,0,1,29,20.8a1.35,1.35,0,0,1-1.26-.13c-.35.29.09,2.28-.32,2.1.17,1.77-.28,2.38-1.3,2.7-.45.14-1.22-.28-1.74-1.25C24.17,23.76,23.52,22,24.1,21.2Z" transform="translate(0 1.04)"/><path class="cls-18" d="M27.75,21.82s-.74-.14-.74.86,1.17.8,1.17.8Z" transform="translate(0 1.04)"/><path class="cls-7" d="M28.1,26.46a2.54,2.54,0,0,1,1.8.52c.63.63.38,4.05,0,7.23s-.62,5.44-.62,5.44-.68,2.68-7.49,1.24c0,0-1.71-10.48-.1-13.62.51-1,2.92-1,3.28-1S28.1,26.46,28.1,26.46Z" transform="translate(0 1.04)"/><path class="cls-18" d="M28.6,30c.6,1.24,4.45,4.94,5.16,5.65s2.62-.19,2.2-1.27A45.55,45.55,0,0,0,30.81,28,1.55,1.55,0,0,0,28.6,30Z" transform="translate(0 1.04)"/><path class="cls-7" d="M30.8,33a16.46,16.46,0,0,1-3-3.83A1.65,1.65,0,0,1,30,26.86a15.42,15.42,0,0,1,3.42,3.52A5.06,5.06,0,0,1,30.8,33Z" transform="translate(0 1.04)"/><path class="cls-14" d="M40.74,56.3c-.39.18-.69,1.39-.69,1.39h3.59S42.8,57.36,42,57,41,56.16,40.74,56.3Z" transform="translate(0 1.04)"/><rect class="cls-21" x="40.05" y="57.69" width="3.58" height="0.32" transform="translate(83.69 116.75) rotate(180)"/><path class="cls-14" d="M34.4,56.3c-.39.18-.69,1.39-.69,1.39h3.58s-.83-.33-1.66-.7S34.7,56.16,34.4,56.3Z" transform="translate(0 1.04)"/><rect class="cls-21" x="33.71" y="57.69" width="3.58" height="0.32" transform="translate(71.01 116.75) rotate(180)"/><path class="cls-22" d="M38.29,42.49c.76,1.15,3.23,14.26,3.23,14.26L40.27,57,35.2,45.29S29.38,45.1,28.67,44A6.69,6.69,0,0,1,28,41c.32,0-1.86-1.85-1.86-1.85C31.13,39.19,37.71,41.61,38.29,42.49Z" transform="translate(0 1.04)"/><path class="cls-11" d="M35.2,45.29,40.27,57l.42-.1s-4.33-13-4.74-14c-.76-1.92-6.67-3.23-6.67-3.23L32,45A19.59,19.59,0,0,0,35.2,45.29Z" transform="translate(0 1.04)"/><path class="cls-22" d="M35.12,43.25c.42,1.11,0,13.43,0,13.43l-1.11,0L31,45.18s-7.67.69-8.38-.44a15.37,15.37,0,0,1-1.07-4.16A32.11,32.11,0,0,0,25,39.16C30,39.16,34.76,42.26,35.12,43.25Z" transform="translate(0 1.04)"/><path class="cls-11" d="M31.7,44.5c.41,1.12,2.82,12.2,2.82,12.2l-.56,0L31,45.18s-7.67.69-8.38-.44a15.37,15.37,0,0,1-1.07-4.16A32.11,32.11,0,0,0,25,39.16C20.47,47.32,31.34,43.52,31.7,44.5Z" transform="translate(0 1.04)"/><path class="cls-23" d="M27.52,57.35a.77.77,0,1,0,.77-.76A.76.76,0,0,0,27.52,57.35Z" transform="translate(0 1.04)"/><path class="cls-23" d="M24.14,57.35a.77.77,0,1,0,.77-.76A.76.76,0,0,0,24.14,57.35Z" transform="translate(0 1.04)"/><path class="cls-23" d="M20.76,57.35a.77.77,0,1,0,.77-.76A.76.76,0,0,0,20.76,57.35Z" transform="translate(0 1.04)"/><rect class="cls-24" x="24.05" y="39.68" width="1.7" height="17.26" transform="translate(49.81 97.67) rotate(180)"/><rect class="cls-23" x="23.39" y="45.29" width="3.02" height="2.94" transform="translate(49.81 94.57) rotate(180)"/><rect class="cls-23" x="23.77" y="46.43" width="2.28" height="2.94" transform="translate(49.81 96.84) rotate(180)"/><path class="cls-24" d="M20.32,56.84h9.17a1,1,0,0,0-1-1H21.35a1,1,0,0,0-1,1Z" transform="translate(0 1.04)"/><path class="cls-23" d="M25,31.72l.09.67,1.84,12.9H17.63L15.86,32.92a1,1,0,0,1,1.05-1.2Z" transform="translate(0 1.04)"/><path class="cls-24" d="M27.93,45.55l-1.79-.26L24.31,32.44a.6.6,0,0,1,.63-.72h0a1.26,1.26,0,0,1,1.17,1Z" transform="translate(0 1.04)"/><path class="cls-24" d="M32.17,46.49H23.39a.78.78,0,0,1-.78-.78h0a.78.78,0,0,1,.78-.78h8.78a.78.78,0,0,1,.78.78h0A.78.78,0,0,1,32.17,46.49Z" transform="translate(0 1.04)"/><path class="cls-23" d="M27.74,46.49H18.33a.78.78,0,0,1-.78-.78h0a.78.78,0,0,1,.78-.78h9.41a.78.78,0,0,1,.78.78h0A.78.78,0,0,1,27.74,46.49Z" transform="translate(0 1.04)"/><rect class="cls-10" x="53.31" y="11.13" width="11.16" height="7.1" rx="0.64"/><polygon class="cls-10" points="63.15 17.46 64.91 20.38 61.5 17.85 63.15 17.46"/><path class="cls-11" d="M56.4,11.87h3.33a.08.08,0,0,0,.08-.08.08.08,0,0,0-.08-.09H56.4a.09.09,0,0,0-.08.09A.09.09,0,0,0,56.4,11.87Z" transform="translate(0 1.04)"/><path class="cls-11" d="M60.34,11.87h1.35a.09.09,0,0,0,.08-.08.09.09,0,0,0-.08-.09H60.34a.08.08,0,0,0-.08.09A.08.08,0,0,0,60.34,11.87Z" transform="translate(0 1.04)"/><path class="cls-11" d="M56.4,13.18h1.78a.08.08,0,1,0,0-.16H56.4a.08.08,0,0,0,0,.16Z" transform="translate(0 1.04)"/><path class="cls-11" d="M58.7,13.18h3a.08.08,0,0,0,0-.16h-3a.08.08,0,1,0,0,.16Z" transform="translate(0 1.04)"/><path class="cls-11" d="M55.92,14.44H58.6a.08.08,0,0,0,.08-.08.09.09,0,0,0-.08-.08H55.92a.08.08,0,0,0-.08.08A.07.07,0,0,0,55.92,14.44Z" transform="translate(0 1.04)"/><path class="cls-11" d="M59.08,14.44h1.09a.08.08,0,0,0,.08-.08.09.09,0,0,0-.08-.08H59.08a.09.09,0,0,0-.08.08A.08.08,0,0,0,59.08,14.44Z" transform="translate(0 1.04)"/><path class="cls-11" d="M55.92,15.67h1.42a.09.09,0,0,0,.09-.08.08.08,0,0,0-.09-.08H55.92a.07.07,0,0,0-.08.08A.08.08,0,0,0,55.92,15.67Z" transform="translate(0 1.04)"/><path class="cls-11" d="M57.77,15.67h2.4a.09.09,0,0,0,.08-.08.08.08,0,0,0-.08-.08h-2.4a.07.07,0,0,0-.08.08A.08.08,0,0,0,57.77,15.67Z" transform="translate(0 1.04)"/><path class="cls-8" d="M54.28,15a.32.32,0,0,1,.16,0,.28.28,0,0,1,.1.09.53.53,0,0,1,.05.15,1.56,1.56,0,0,1,0,.25,1.83,1.83,0,0,0,0,.4.4.4,0,0,0,.1.18.42.42,0,0,0,.2.11.94.94,0,0,0,.28,0h.08v-.36a.56.56,0,0,1-.21,0,.13.13,0,0,1-.07-.06.29.29,0,0,1,0-.12c0-.06,0-.18,0-.35a1.19,1.19,0,0,0,0-.24.61.61,0,0,0-.09-.16.53.53,0,0,0-.14-.11.46.46,0,0,0,.16-.14.57.57,0,0,0,.1-.25c0-.07,0-.22,0-.45a.49.49,0,0,1,0-.15.14.14,0,0,1,.07-.06.78.78,0,0,1,.21,0v-.35h-.08a1.15,1.15,0,0,0-.3,0,.42.42,0,0,0-.18.11.4.4,0,0,0-.1.18,1.4,1.4,0,0,0,0,.34,1.53,1.53,0,0,1,0,.36.26.26,0,0,1-.1.16.28.28,0,0,1-.2.06Z" transform="translate(0 1.04)"/><path class="cls-8" d="M63.49,12.31a.37.37,0,0,1-.2-.05.35.35,0,0,1-.1-.17,2.45,2.45,0,0,1,0-.36,1.4,1.4,0,0,0,0-.34.31.31,0,0,0-.09-.18.54.54,0,0,0-.18-.11,1.19,1.19,0,0,0-.31,0h-.07v.36a.5.5,0,0,1,.21,0,.18.18,0,0,1,.07.05,1.39,1.39,0,0,1,0,.15,3.55,3.55,0,0,0,0,.45.73.73,0,0,0,.09.25.76.76,0,0,0,.16.14.47.47,0,0,0-.13.11.51.51,0,0,0-.09.16.76.76,0,0,0,0,.25c0,.16,0,.28,0,.34a.23.23,0,0,1,0,.13.13.13,0,0,1-.07,0,.48.48,0,0,1-.2,0v.36h.07a1,1,0,0,0,.29,0,.48.48,0,0,0,.2-.11.26.26,0,0,0,.09-.18,1.83,1.83,0,0,0,0-.4,1.36,1.36,0,0,1,0-.24.34.34,0,0,1,.06-.16.2.2,0,0,1,.09-.09.35.35,0,0,1,.16,0Z" transform="translate(0 1.04)"/><rect class="cls-10" x="34.95" y="8.62" width="11.6" height="7.38" rx="0.67" transform="translate(81.5 25.67) rotate(180)"/><polygon class="cls-10" points="36.31 16.25 34.49 19.29 38.04 16.66 36.31 16.25"/><path class="cls-15" d="M38.84,12.83l.64.21a1.46,1.46,0,0,1-.49.8,1.43,1.43,0,0,1-.87.26A1.41,1.41,0,0,1,37,13.65a1.72,1.72,0,0,1-.42-1.22A1.83,1.83,0,0,1,37,11.15a1.48,1.48,0,0,1,1.12-.45,1.36,1.36,0,0,1,1,.36,1.24,1.24,0,0,1,.33.6l-.65.16a.65.65,0,0,0-.25-.4.68.68,0,0,0-.45-.15.73.73,0,0,0-.59.26,1.29,1.29,0,0,0-.23.85,1.4,1.4,0,0,0,.23.89.74.74,0,0,0,.58.26.69.69,0,0,0,.46-.17A1.06,1.06,0,0,0,38.84,12.83Z" transform="translate(0 1.04)"/><path class="cls-15" d="M40.77,13.57v-.86h-.86v-.58h.86v-.86h.57v.86h.86v.58h-.86v.86Z" transform="translate(0 1.04)"/><path class="cls-15" d="M43.45,13.57v-.86h-.86v-.58h.86v-.86H44v.86h.86v.58H44v.86Z" transform="translate(0 1.04)"/><path class="cls-18" d="M72.32,21.41c.52.21-.13,3-3.22,7.53-.79,1.17-1.82-.56-1.41-1.29s2.14-3.87,2.14-3.87S71.34,21,72.32,21.41Z" transform="translate(0 1.04)"/><path class="cls-25" d="M72.32,21.41c.52.21-.13,3-3.22,7.53.82-2.81.86-3.7,1.18-4.93C70.49,23.19,71.34,21,72.32,21.41Z" transform="translate(0 1.04)"/><path class="cls-26" d="M69.6,23.61A3.53,3.53,0,0,0,71.45,25a12.35,12.35,0,0,0,.94-2.45c0-.09,0-.17,0-.24l0-.23c0-.37,0-.58-.15-.63a.23.23,0,0,0-.11,0,.77.77,0,0,0-.3,0l-.06,0C70.87,21.72,69.6,23.61,69.6,23.61Z" transform="translate(0 1.04)"/><path class="cls-14" d="M70.21,24.28a3.34,3.34,0,0,0,1.24.68,12.35,12.35,0,0,0,.94-2.45c0-.09,0-.17,0-.24l0-.23c0-.37,0-.58-.15-.63a.23.23,0,0,0-.11,0,.51.51,0,0,0-.3,0l-.06,0c-.77.3-1.39,1.92-1.57,2.6C70.26,24.1,70.23,24.19,70.21,24.28Z" transform="translate(0 1.04)"/><path class="cls-18" d="M68.7,29.21c-.11.19-.44.16-1.2-.25-.59-.33-3.46-2.45-3.46-2.45l.12-.74a27.94,27.94,0,0,1,4,2.06C68.64,28.35,69,28.78,68.7,29.21Z" transform="translate(0 1.04)"/><path class="cls-11" d="M69.83,32.26c-.39,5.78,2.31,24.66,2.31,24.66h.44s.85-19.3.79-20S73.29,33,73.29,33Z" transform="translate(0 1.04)"/><polygon class="cls-22" points="73.38 39.81 72.58 57.97 72.36 57.97 71.8 37.77 73.38 39.81"/><path class="cls-11" d="M81.31,52.4s-6.77-7.14-7.39-7.91c-.46-.57-1.77-7.33-1.77-7.33L70.55,36V32.42a6.83,6.83,0,0,1,4.79.31c1.34,4.18.68,11,.68,11l5.59,8.34Z" transform="translate(0 1.04)"/><polygon class="cls-22" points="72.12 38.21 71.26 37.43 72.19 39.28 72.12 38.21"/><path class="cls-22" d="M71.07,33.21s3.57.23,3.73,1.6.19,8.84.19,8.84l6.75,8.65L76,43.77c.16-4,1.09-8.28-.71-11.51Z" transform="translate(0 1.04)"/><path class="cls-11" d="M72.43,56.58c.29.13.53,1.19.53,1.19H70.23a6.11,6.11,0,0,0,1.26-.71C72.12,56.63,72.2,56.48,72.43,56.58Z" transform="translate(0 1.04)"/><rect class="cls-22" x="70.23" y="58.81" width="2.73" height="0.23"/><path class="cls-11" d="M81.32,52.1c.16-.28,1.19-.35,1.19-.35L82,54.62a7,7,0,0,0-.43-1.44C81.3,52.44,81.18,52.33,81.32,52.1Z" transform="translate(0 1.04)"/><polygon class="cls-22" points="82.72 52.84 82.24 55.7 82.03 55.66 82.51 52.8 82.72 52.84"/><path class="cls-26" d="M69.16,33.06A11.64,11.64,0,0,0,76,32.91a37.31,37.31,0,0,1-1.24-5,20.45,20.45,0,0,1,.06-3.18,11.83,11.83,0,0,1,.31-2c.17-.51-.27-.91-.66-1.16l-.23-.13a2,2,0,0,0-.27-.13s-.36-.05-1.46-.13a1,1,0,0,0-.81.43c-1,1.13-1.6,4.17-1.58,4.83a.84.84,0,0,0,.79.85A56.14,56.14,0,0,1,69.16,33.06Z" transform="translate(0 1.04)"/><path class="cls-14" d="M70.9,27.25A7.29,7.29,0,0,0,72.7,27a3,3,0,0,1-1.88.76Z" transform="translate(0 1.04)"/><path class="cls-14" d="M75,23a30.27,30.27,0,0,0-.18,5.5c.29,1.32,1.17,4.44,1.17,4.44s-1.95.49-3,.62a2.87,2.87,0,0,0,1.28-2.75c-.19-1.89.06-6.34-.28-8C74.58,21.83,75,23,75,23Z" transform="translate(0 1.04)"/><path class="cls-18" d="M83.39,25.55a.62.62,0,0,1-.12.68.56.56,0,0,1-.35.13c-.06,0-.22-.08-.28-.07s-.69.35-.72.33-.1-.39-.23-.49.47-.07.65-.37.29-.46.57-.47A.85.85,0,0,1,83.39,25.55Z" transform="translate(0 1.04)"/><path class="cls-18" d="M83.93,25.17c0-.05.08-.1,0-.17a.07.07,0,0,0-.06,0,.59.59,0,0,0-.36.26.57.57,0,0,1-.4.23l-.42,0c-.07,0-.06.12,0,.12h.09a.05.05,0,0,0,0,.09.77.77,0,0,0,.75-.11A2.1,2.1,0,0,0,83.93,25.17Z" transform="translate(0 1.04)"/><path class="cls-18" d="M84.13,25.57c0-.06.08-.11.05-.17s0,0-.06,0a.58.58,0,0,0-.36.26.61.61,0,0,1-.4.23,2.88,2.88,0,0,1-.42,0c-.07,0-.06.12,0,.12H83a.07.07,0,0,0,0,.1.75.75,0,0,0,.74-.11A2.45,2.45,0,0,0,84.13,25.57Z" transform="translate(0 1.04)"/><path class="cls-18" d="M84.05,26s.1-.09.09-.15a.09.09,0,0,0-.06-.06.58.58,0,0,0-.4.17.59.59,0,0,1-.44.14,2.93,2.93,0,0,1-.41-.07c-.07,0-.08.1,0,.12l.08,0s-.13.16-.09.18a1,1,0,0,0,.86,0A3,3,0,0,0,84.05,26Z" transform="translate(0 1.04)"/><path class="cls-18" d="M84.12,25.34a.19.19,0,0,0,.06-.17.08.08,0,0,0-.06,0,.59.59,0,0,0-.36.26.66.66,0,0,1-.4.23,3,3,0,0,1-.42,0c-.08,0-.06.13,0,.13H83a.06.06,0,0,0,0,.1.78.78,0,0,0,.75-.11A2.06,2.06,0,0,0,84.12,25.34Z" transform="translate(0 1.04)"/><path class="cls-18" d="M83.54,25.09s0-.08-.05-.08a1.28,1.28,0,0,0-.55,0,1.26,1.26,0,0,0-.37.39.06.06,0,0,0,0,.09s0,0,0,0c.21.05.29-.14.45-.24S83.48,25.33,83.54,25.09Z" transform="translate(0 1.04)"/><path class="cls-25" d="M83.33,25.54a.71.71,0,0,1,0,.72A2.78,2.78,0,0,0,83.33,25.54Z" transform="translate(0 1.04)"/><path class="cls-25" d="M83,25.49a.45.45,0,0,1-.16.43s.19-.15.22-.24A.25.25,0,0,0,83,25.49Z" transform="translate(0 1.04)"/><path class="cls-18" d="M73.89,22a9.08,9.08,0,0,0,.92,2.72A31.56,31.56,0,0,0,77.27,29c.79,1.17,1.82-.56,1.41-1.29s-2.14-3.87-2.14-3.87-1.07-1.95-2-2.34a.57.57,0,0,0-.31-.06.57.57,0,0,0-.18,0C73.92,21.48,73.87,21.68,73.89,22Z" transform="translate(0 1.04)"/><path class="cls-18" d="M77.67,29.23c.12.19.45.17,1.2-.25.59-.33,3.77-2.69,3.77-2.69l-.22-.52a30.13,30.13,0,0,0-4.17,2.08C77.73,28.38,77.43,28.8,77.67,29.23Z" transform="translate(0 1.04)"/><path class="cls-25" d="M74.4,23.81a22.75,22.75,0,0,0,2.78,5c.24.37.54.88,1.54.24,1.21-.77,1.6-1.07,1.6-1.07s-2,1.28-2.49,1.07S74.4,23.81,74.4,23.81Z" transform="translate(0 1.04)"/><path class="cls-25" d="M78.62,27.58a1.81,1.81,0,0,0-.49.39A3.17,3.17,0,0,0,78,26.5Z" transform="translate(0 1.04)"/><rect class="cls-23" x="60.02" y="28.3" width="9.14" height="0.43" transform="translate(129.18 58.07) rotate(180)"/><polygon class="cls-27" points="69.16 29.77 73.3 29.09 73.3 28.66 69.16 29.34 69.16 29.77"/><polygon class="cls-23" points="73.3 28.66 62.92 28.34 60.02 29.34 69.16 29.34 73.3 28.66"/><path class="cls-23" d="M60.28,28.3h9.11l-1.2-6a.37.37,0,0,0-.33-.3H59.65a.57.57,0,0,0-.49.71Z" transform="translate(0 1.04)"/><path class="cls-27" d="M60.06,28.3h9.1l-1.2-6a.35.35,0,0,0-.32-.3H59.26a.41.41,0,0,0-.36.52Z" transform="translate(0 1.04)"/><path class="cls-23" d="M60.06,28.3h7L62.31,22H59.26a.41.41,0,0,0-.36.52Z" transform="translate(0 1.04)"/><path class="cls-18" d="M63.29,29s0,0,0,0a.18.18,0,0,1-.1.11c-.06,0-.11,0-.14-.1h0c0,.12-.11.22-.21.21s-.13-.11-.14-.22a.41.41,0,0,1-.07.11c-.1.13-.23,0-.29-.1V28.9a1.45,1.45,0,0,1,.07-.35.62.62,0,0,1,.11-.25c.1-.1.18.06.22.18,0-.12.06-.23.19-.19a.28.28,0,0,1,.17.18.39.39,0,0,1,.08-.14c.09-.09.18,0,.21.13a.35.35,0,0,1,0,.14s0,0,0,0,.14.08.16.14S63.46,29.09,63.29,29Z" transform="translate(0 1.04)"/><path class="cls-26" d="M73.89,22A8.5,8.5,0,0,0,74.65,25a2.28,2.28,0,0,0,2.15-1.31,8.62,8.62,0,0,0-2.26-2.19.57.57,0,0,0-.31-.06.57.57,0,0,0-.18,0C73.92,21.48,73.87,21.68,73.89,22Z" transform="translate(0 1.04)"/><path class="cls-14" d="M71.69,21.57a1,1,0,0,1,.81-.43c1.1.08,1.46.13,1.46.13a2,2,0,0,1,.27.13.57.57,0,0,1,.31.06l-.08.07-.57.49-.39.34a4.43,4.43,0,0,1-.91.76c-.49.21-.78-.29-.86-.73A2.72,2.72,0,0,1,71.69,21.57Z" transform="translate(0 1.04)"/><path class="cls-18" d="M72.22,19.12a15.12,15.12,0,0,1,0,2.23c.32,1,1.86,0,1.86,0,0-.22,0-.49,0-.75,0-.55,0-1.09,0-1.24v-.05Z" transform="translate(0 1.04)"/><path class="cls-25" d="M72.21,19.45l0,.24a4.75,4.75,0,0,1,0,.6c0,.19,0,.49,0,.69.4.37,1.5-.45,1.82-1,0-.55.08-1.16.08-1.16Z" transform="translate(0 1.04)"/><path class="cls-7" d="M72.25,21.35c.26.66,1.46.19,1.83,0,.18-.11.31.09.13.2-.58.37-2,.8-2.14-.14C72.06,21.27,72.19,21.2,72.25,21.35Z" transform="translate(0 1.04)"/><path class="cls-26" d="M74.41,12.54c0-.08.57-.45.66-.5a2.84,2.84,0,0,1,4,1.5c1,2.64-.69,6.36,2,8.24a.18.18,0,0,1,0,.32,2.52,2.52,0,0,1-1.6,0c-1.5-.46-2.44-2.37-2.65-4-.17-1.42.15-3.24-.77-4.29a2,2,0,0,0-.78-.56C74.59,13,74,12.84,74.41,12.54Z" transform="translate(0 1.04)"/><path class="cls-14" d="M77.57,16.74a22.48,22.48,0,0,0,.31,2.71A5.61,5.61,0,0,0,79.36,22a.17.17,0,0,1,0,.15c-1.5-.46-2.44-2.37-2.65-4-.17-1.42.15-3.24-.77-4.29A3.6,3.6,0,0,1,77.57,16.74Z" transform="translate(0 1.04)"/><path class="cls-14" d="M70.44,13.38a13.45,13.45,0,0,0-.53,3.24c0,1.28.68,2.7,2.07,2.76.48,0,1.63-2.8,1.63-2.8Z" transform="translate(0 1.04)"/><path class="cls-18" d="M74.74,15.07s.09,2.91-.47,4S72.56,21,72.17,20.9c-1-.19-1.92-2.91-1.9-4.83C70.3,13.67,72.38,12.59,74.74,15.07Z" transform="translate(0 1.04)"/><path class="cls-27" d="M73.32,16.47c0-.29-.22-.48-.39-.43s-.29.37-.24.69.23.53.41.44A.72.72,0,0,0,73.32,16.47Z" transform="translate(0 1.04)"/><path class="cls-27" d="M71.43,16.54c0-.3-.13-.53-.27-.53s-.26.27-.25.59.15.55.29.53S71.44,16.84,71.43,16.54Z" transform="translate(0 1.04)"/><path class="cls-27" d="M70.75,16.38s.42-.38.76-.31a.29.29,0,0,0-.33-.15C70.93,16,70.75,16.38,70.75,16.38Z" transform="translate(0 1.04)"/><path class="cls-27" d="M73.43,16.35a1.13,1.13,0,0,0-.84-.2A.41.41,0,0,1,73,16C73.29,16,73.43,16.35,73.43,16.35Z" transform="translate(0 1.04)"/><path class="cls-25" d="M72.08,17.19a2,2,0,0,0-.41.72.43.43,0,0,1,0,.11.26.26,0,0,0,0,.2.3.3,0,0,0,.25.1.72.72,0,0,0,.4-.1,2.8,2.8,0,0,1-.37-.1c-.06,0-.11-.05-.1-.05s0,0,0,0l0-.09A3.9,3.9,0,0,0,72.08,17.19Z" transform="translate(0 1.04)"/><path class="cls-27" d="M72.6,18.49s-.47.5-.89.31c0,0,0,.77.32.73C72.52,19.47,72.58,18.94,72.6,18.49Z" transform="translate(0 1.04)"/><path class="cls-10" d="M71.71,18.8s0,.24.09.29a.89.89,0,0,0,.76-.24,2.6,2.6,0,0,0,0-.36S72.13,19,71.71,18.8Z" transform="translate(0 1.04)"/><path class="cls-27" d="M72.67,15.08c-.12,0-.08.25,0,.29a3.47,3.47,0,0,1,1.28.41S73.2,14.94,72.67,15.08Z" transform="translate(0 1.04)"/><path class="cls-27" d="M71.75,15c.12,0,.08.24,0,.28a3.38,3.38,0,0,0-1.28.42S71.22,14.81,71.75,15Z" transform="translate(0 1.04)"/><path class="cls-26" d="M76.25,13.91h0a2.81,2.81,0,0,0-1.09-1.22,5.18,5.18,0,0,0-2.53-.93c-3.71-.14-3.9,2.58-2,2.82,1.48.2,4,.32,4,.32a6.16,6.16,0,0,0,.06,2.36l.1-.07a7.49,7.49,0,0,1-.49,2c.61.47,2,0,2.34-1.71A6.72,6.72,0,0,0,76.25,13.91Z" transform="translate(0 1.04)"/><path class="cls-18" d="M74.21,17c.21-.23.93-.77,1.09-.26s-.59,2.16-1.12,1.36A1.09,1.09,0,0,1,74.21,17Z" transform="translate(0 1.04)"/><path class="cls-25" d="M74.41,17.26s.56-.52.58-.17a.88.88,0,0,1-.45.87.81.81,0,0,0,.11-.52C74.61,17.17,74.41,17.26,74.41,17.26Z" transform="translate(0 1.04)"/></g></g></svg>