<?xml version="1.0" encoding="utf-8"?>
<!-- Generator: Adobe Illustrator 25.3.1, SVG Export Plug-In . SVG Version: 6.00 Build 0)  -->
<svg version="1.1" id="Object" xmlns="http://www.w3.org/2000/svg" xmlns:xlink="http://www.w3.org/1999/xlink" x="0px" y="0px"
	 viewBox="0 0 4680 3120" enable-background="new 0 0 4680 3120" xml:space="preserve">
<g>
	<g>
		<path fill="#E9F2FF" d="M2253.9,439c0,0-428.1-216.7-815,318.6s-665.4,580.5-699.2,938s630.5,848.1,1593.7,736.8
			c963.2-111.4,1596.3-220.2,1608-718c0,0,13.5-212.6-282.4-371s-437.1-282.8-669.9-526.6C2989.1,816.7,2652.4,375.9,2253.9,439z"/>
		<path fill="#00ABFE" d="M2230.5,448.3c0,0-74.9-95.5-113,80.3c0,0-130.3-61.4-156.1,40.7c0,0-36.2,125.8,254.1,136.4
			c290.2,10.6,399.8,2.3,399.8,2.3s115-21.9,104.2-156.9c-10.7-135-187.8-118-187.8-118s2.4-110.6-127.9-122.3
			C2273.3,299,2230.5,448.3,2230.5,448.3z"/>
		<g>
			<g>
				<path fill="#CEDCED" d="M2001.9,775.8v354c0,23.9-19.4,43.2-43.2,43.2h-603c-23.9,0-43.2-19.4-43.2-43.2v-354
					c0-23.9,19.4-43.2,43.2-43.2h603C1982.6,732.6,2001.9,752,2001.9,775.8z"/>
				<path fill="#BAC9D6" d="M2001.9,775.8v19h-689.4v-19c0-23.9,19.4-43.2,43.2-43.2h603C1982.6,732.6,2001.9,752,2001.9,775.8z"/>
				<circle fill="#939393" cx="1353.2" cy="763.7" r="12"/>
				<circle fill="#CEDCED" cx="1391.4" cy="763.7" r="12"/>
				<circle fill="#FFFFFF" cx="1430.7" cy="763.7" r="12"/>
			</g>
			<path fill="#00ABFE" d="M1621.3,890.1v193.2c0,23.9-19.4,43.2-43.2,43.2h-172.1c-23.9,0-43.2-19.4-43.2-43.2V890.1
				c0-23.9,19.4-43.2,43.2-43.2H1578C1601.9,846.8,1621.3,866.2,1621.3,890.1z"/>
			<path fill="#7AD001" d="M1621.3,1031.7v51.5c0,23.9-19.4,43.2-43.2,43.2h-172.1c-23.9,0-43.2-19.4-43.2-43.2V955.6
				c4.8-4.2,9.7-8.3,14.7-12.3c9.4-7.5,21.4-15.1,32.7-11.1c6.1,2.1,10.6,7.2,14.8,12.2c20.9,25.1,39.1,52.6,54,81.6
				c27.9-7.3,47.6-36.9,76.4-38.2c25-1.1,44.9,19.4,61.2,38.3C1618.1,1028,1619.7,1029.8,1621.3,1031.7z"/>
			<path fill="#FFFFFF" d="M1666.3,897.3L1666.3,897.3c0-13.3,10.8-24.1,24.1-24.1h237.2c13.3,0,24.1,10.8,24.1,24.1v0
				c0,13.3-10.8,24.1-24.1,24.1h-237.2C1677.1,921.4,1666.3,910.6,1666.3,897.3z"/>
			<path fill="#BAC9D6" d="M1666.3,984.4L1666.3,984.4c0-13.3,10.8-24.1,24.1-24.1h174.1c13.3,0,24.1,10.8,24.1,24.1v0
				c0,13.3-10.8,24.1-24.1,24.1h-174.1C1677.1,1008.5,1666.3,997.7,1666.3,984.4z"/>
			<path fill="#BAC9D6" d="M1666.3,1076L1666.3,1076c0-13.3,10.8-24.1,24.1-24.1h174.1c13.3,0,24.1,10.8,24.1,24.1v0
				c0,13.3-10.8,24.1-24.1,24.1h-174.1C1677.1,1100.1,1666.3,1089.3,1666.3,1076z"/>
			<circle fill="#FEB000" cx="1503" cy="931.1" r="22.2"/>
		</g>
		<g>
			<path fill="#FF6162" d="M1446.1,568.8v-82.1c0-24.9,20.2-45.1,45.1-45.1h292.7c24.9,0,45.1,20.2,45.1,45.1v82.1
				c0,24.9-20.2,45.1-45.1,45.1h-292.7C1466.3,613.9,1446.1,593.7,1446.1,568.8z"/>
			<g>
				<path fill="#FFFFFF" d="M1483.6,550.2c-0.5,0-0.9-0.1-1.4-0.4c-1.2-0.8-1.5-2.3-0.7-3.5c18.9-29,61.3-38.6,90.8-20.5
					c3,1.8,5.8,3.9,8.5,5.8c4.6,3.3,8.9,6.4,13.8,8.6c21.2,9.2,45.2-3.7,57.7-12.3c2.1-1.5,4.3-3,6.4-4.5
					c13-9.3,26.5-18.8,42.5-18.2c14.8,0.6,26.9,9.7,38.7,18.6c1.4,1.1,2.8,2.1,4.2,3.1c16.3,12.1,30.2,16.1,41.2,11.8
					c1.3-0.5,2.7,0.1,3.2,1.4c0.5,1.3-0.1,2.7-1.4,3.2c-12.8,4.9-28.2,0.7-46-12.4c-1.4-1-2.8-2.1-4.2-3.1
					c-11.1-8.4-22.6-17.1-35.8-17.6c-14.3-0.6-27.1,8.5-39.4,17.3c-2.1,1.5-4.3,3.1-6.5,4.5c-10,6.8-27,16.3-44.8,16.3
					c-5.9,0-11.9-1-17.7-3.6c-5.4-2.3-10.1-5.8-14.7-9.1c-2.7-1.9-5.4-3.9-8.2-5.6c-26.8-16.4-66.9-7.3-84,19
					C1485.3,549.8,1484.5,550.2,1483.6,550.2z"/>
			</g>
		</g>
		<g>
			<g>
				<path fill="#CEDCED" d="M3741.8,777.3l-2.5,455.5c0,23.9-19.4,43.2-43.2,43.2l-784.9-1.4c-23.9,0-43.2-19.4-43.2-43.2l2.5-455.5
					c0-23.9,19.4-43.2,43.2-43.2l784.9,1.4C3722.4,734,3741.8,753.4,3741.8,777.3z"/>
				<path fill="#BAC9D6" d="M3741.8,777.3v19l-871.4-1.4v-19c0-23.9,19.4-43.2,43.2-43.2l784.9,1.4
					C3722.4,734,3741.8,753.4,3741.8,777.3z"/>
				<circle fill="#939393" cx="2911.1" cy="763.7" r="12"/>
				<circle fill="#CEDCED" cx="2949.3" cy="763.7" r="12"/>
				<circle fill="#FFFFFF" cx="2988.6" cy="763.7" r="12"/>
			</g>
			<rect x="2933.1" y="1051.9" fill="#FEB000" width="64.9" height="161.5"/>
			<rect x="3048.1" y="970.2" fill="#FF6162" width="64.9" height="243.2"/>
			<path fill="#FFFFFF" d="M3314.7,933.7L3314.7,933.7c0-20.1,16.3-36.4,36.4-36.4h289.2c20.1,0,36.4,16.3,36.4,36.4v0
				c0,20.1-16.3,36.4-36.4,36.4H3351C3330.9,970.1,3314.7,953.8,3314.7,933.7z"/>
			<path fill="#BAC9D6" d="M3314.7,1047.3L3314.7,1047.3c0-20.1,16.3-36.4,36.4-36.4h218.3c20.1,0,36.4,16.3,36.4,36.4l0,0
				c0,20.1-16.3,36.4-36.4,36.4H3351C3330.9,1083.7,3314.7,1067.4,3314.7,1047.3z"/>
			<rect x="3162.9" y="873.2" fill="#C87AED" width="64.9" height="340.2"/>
		</g>
		<g>
			<path fill="#FEB000" d="M2985.3,1659.4v-168.3c0-24.9,20.2-45.1,45.1-45.1h168.3c24.9,0,45.1,20.2,45.1,45.1v168.3
				c0,24.9-20.2,45.1-45.1,45.1h-168.3C3005.5,1704.6,2985.3,1684.4,2985.3,1659.4z"/>
			<g>
				
					<rect x="3147.3" y="1573.5" transform="matrix(0.7071 -0.7071 0.7071 0.7071 -220.3648 2708.8706)" fill="#008EC6" width="24.9" height="93.8"/>
				<circle fill="#C87AED" cx="3092.2" cy="1552.9" r="64.7"/>
				<circle fill="#FFFFFF" cx="3092.2" cy="1552.9" r="48.6"/>
			</g>
		</g>
		<g>
			<path fill="#7AD001" d="M2870.4,577.4V409.1c0-24.9,20.2-45.1,45.1-45.1h168.3c24.9,0,45.1,20.2,45.1,45.1v168.3
				c0,24.9-20.2,45.1-45.1,45.1h-168.3C2890.6,622.5,2870.4,602.3,2870.4,577.4z"/>
			<g>
				<path fill="#FFFFFF" d="M2909.5,561.9c-0.4,0-0.8-0.1-1.1-0.3c-1.2-0.6-1.7-2.1-1.1-3.4l52.8-104.7c0.4-0.7,1-1.2,1.8-1.3
					c0.8-0.1,1.6,0.1,2.2,0.7l64.7,63.9l62-77.9c0.9-1.1,2.4-1.3,3.5-0.4c1.1,0.9,1.3,2.4,0.4,3.5l-63.8,80.1
					c-0.4,0.6-1.1,0.9-1.8,0.9c-0.7,0-1.4-0.2-1.9-0.7l-64.2-63.4l-51.3,101.7C2911.3,561.4,2910.4,561.9,2909.5,561.9z"/>
			</g>
			<path fill="#017326" d="M2962.3,564.1L2962.3,564.1c0-9.5,7.7-17.2,17.2-17.2h93.8c9.5,0,17.2,7.7,17.2,17.2l0,0
				c0,9.5-7.7,17.2-17.2,17.2h-93.8C2970,581.3,2962.3,573.6,2962.3,564.1z"/>
			<circle fill="#FF6162" cx="2962.3" cy="454.8" r="10.5"/>
			<circle fill="#FF6162" cx="3092.7" cy="440.4" r="10.5"/>
		</g>
		<g>
			<path fill="#FFFFFF" d="M2155.3,711.2v-87.4c0-24.9,20.2-45.1,45.1-45.1h87.4c24.9,0,45.1,20.2,45.1,45.1v87.4
				c0,24.9-20.2,45.1-45.1,45.1h-87.4C2175.6,756.3,2155.3,736.1,2155.3,711.2z"/>
			<polygon fill="#7AD001" points="2244.2,614.7 2190.3,672.1 2218.5,672.1 2218.5,720.3 2244.2,720.3 2269.9,720.3 2269.9,672.1 
				2298,672.1 			"/>
		</g>
		<g>
			<path fill="#FFFFFF" d="M2567.9,623.8v87.4c0,24.9-20.2,45.1-45.1,45.1h-87.4c-24.9,0-45.1-20.2-45.1-45.1v-87.4
				c0-24.9,20.2-45.1,45.1-45.1h87.4C2547.6,578.7,2567.9,598.9,2567.9,623.8z"/>
			<polygon fill="#FF6162" points="2479,720.3 2532.9,662.9 2504.7,662.9 2504.7,614.7 2479,614.7 2453.3,614.7 2453.3,662.9 
				2425.2,662.9 			"/>
		</g>
		<g>
			<path fill="#00ABFE" d="M944.8,1127.9V959.7c0-24.9,20.2-45.1,45.1-45.1h168.3c24.9,0,45.1,20.2,45.1,45.1v168.3
				c0,24.9-20.2,45.1-45.1,45.1H989.9C965,1173.1,944.8,1152.9,944.8,1127.9z"/>
			<g>
				<path fill="#FFFFFF" d="M1056.4,1115.3C1056.4,1115.3,1056.4,1115.3,1056.4,1115.3c-4.5,0-8.7-2.1-11.4-5.7l-54.3-71.1
					c-4.8-6.3-3.6-15.3,2.7-20.1c6.3-4.8,15.3-3.6,20.1,2.7l43,56.4l78-99.6c4.9-6.2,13.9-7.3,20.2-2.4c6.2,4.9,7.3,13.9,2.4,20.2
					l-89.5,114.2C1065,1113.3,1060.8,1115.3,1056.4,1115.3z"/>
			</g>
		</g>
		<g>
			<g>
				<path fill="#CEDCED" d="M1818.1,1367.6v354c0,23.9-19.4,43.2-43.2,43.2h-603c-23.9,0-43.2-19.4-43.2-43.2v-354
					c0-23.9,19.4-43.2,43.2-43.2h603C1798.7,1324.4,1818.1,1343.7,1818.1,1367.6z"/>
				<path fill="#BAC9D6" d="M1818.1,1367.6v19h-689.4v-19c0-23.9,19.4-43.2,43.2-43.2h603
					C1798.7,1324.4,1818.1,1343.7,1818.1,1367.6z"/>
				<circle fill="#939393" cx="1169.3" cy="1355.5" r="12"/>
				<circle fill="#CEDCED" cx="1207.5" cy="1355.5" r="12"/>
				<circle fill="#FFFFFF" cx="1246.8" cy="1355.5" r="12"/>
			</g>
			<g>
				<path fill="#FFFFFF" d="M1306.7,1427.3v108.1l-92.1,56.7c-10.2-16.5-16-35.9-16-56.7C1198.6,1475.7,1247,1427.3,1306.7,1427.3z"
					/>
				<path fill="#7AD001" d="M1435.7,1535.4c0,23.7-7.6,45.6-20.5,63.4l-87.6-63.4l82.2-70.2
					C1426,1484.1,1435.7,1508.6,1435.7,1535.4z"/>
				<path fill="#FF6162" d="M1388.9,1465.2l-82.2,70.2v-108.1C1339.6,1427.3,1369.1,1442,1388.9,1465.2z"/>
				<path fill="#FEB000" d="M1306.7,1535.4v108.1c-38.9,0-73-20.6-92.1-51.4L1306.7,1535.4z"/>
				<path fill="#C87AED" d="M1394.3,1598.8c-19.6,27.1-51.6,44.7-87.6,44.7v-108.1L1394.3,1598.8z"/>
			</g>
			<path fill="#BAC9D6" d="M1395.1,1675.9h-176.9c-10.8,0-19.5,8.7-19.5,19.5l0,0c0,10.8,8.7,19.5,19.5,19.5h176.9
				c10.8,0,19.5-8.7,19.5-19.5l0,0C1414.6,1684.6,1405.9,1675.9,1395.1,1675.9z"/>
			<g>
				<path fill="#FFFFFF" d="M1613.9,1427.3v108.1l-92.1,56.7c-10.2-16.5-16-35.9-16-56.7C1505.8,1475.7,1554.2,1427.3,1613.9,1427.3
					z"/>
				<path fill="#FF6162" d="M1696.1,1465.2l-82.2,70.2v-108.1C1646.8,1427.3,1676.2,1442,1696.1,1465.2z"/>
				<path fill="#C87AED" d="M1722,1535.4c0,23.7-7.6,45.6-20.5,63.4c-7.2,9.9-16.1,18.6-26.2,25.6l-61.4-89l104.1-29.5
					C1720.6,1515.3,1722,1525.2,1722,1535.4z"/>
				<path fill="#7AD001" d="M1748.1,1490.9l-104.1,29.5l82.2-70.2C1736.2,1461.9,1743.8,1475.7,1748.1,1490.9z"/>
				<path fill="#FEB000" d="M1675.3,1624.4c-17.4,12.1-38.6,19.1-61.4,19.1c-38.9,0-73-20.6-92.1-51.4l92.1-56.7L1675.3,1624.4z"/>
			</g>
			<path fill="#BAC9D6" d="M1702.3,1675.9h-176.9c-10.8,0-19.5,8.7-19.5,19.5l0,0c0,10.8,8.7,19.5,19.5,19.5h176.9
				c10.8,0,19.5-8.7,19.5-19.5l0,0C1721.8,1684.6,1713.1,1675.9,1702.3,1675.9z"/>
		</g>
	</g>
	<g>
		<ellipse fill="#E9F2FF" cx="2297.5" cy="2766.9" rx="641.5" ry="43.1"/>
		<g>
			<rect x="1904.9" y="1740.9" fill="#ABB9C4" width="785.2" height="1024.6"/>
			<rect x="1904.9" y="1740.9" fill="#BAC9D6" width="476.6" height="1024.6"/>
			<g>
				<rect x="1942.8" y="1778.6" fill="#CEDCED" width="400.8" height="151.3"/>
				<g>
					<path fill="#939393" d="M2316.8,1907.4h-164.7c-0.8,0-1.5-0.7-1.5-1.5v-44c0-0.8,0.7-1.5,1.5-1.5h164.7c0.8,0,1.5,0.7,1.5,1.5
						v44C2318.3,1906.7,2317.6,1907.4,2316.8,1907.4z M2153.6,1904.4h161.7v-41h-161.7V1904.4z"/>
				</g>
				<g>
					<path fill="#939393" d="M2316.8,1836.6h-164.7c-0.8,0-1.5-0.7-1.5-1.5v-24.9c0-0.8,0.7-1.5,1.5-1.5h164.7
						c0.8,0,1.5,0.7,1.5,1.5v24.9C2318.3,1835.9,2317.6,1836.6,2316.8,1836.6z M2153.6,1833.6h161.7v-21.9h-161.7V1833.6z"/>
				</g>
				<circle fill="#7AD001" cx="1996.3" cy="1854.2" r="8.1"/>
				<circle fill="#FEB000" cx="2046.5" cy="1854.2" r="8.1"/>
				<circle fill="#FF6162" cx="2097" cy="1854.2" r="8.1"/>
			</g>
			<g>
				<rect x="1942.8" y="1970.1" fill="#CEDCED" width="400.8" height="151.3"/>
				<g>
					<path fill="#939393" d="M2316.8,2098.9h-164.7c-0.8,0-1.5-0.7-1.5-1.5v-44c0-0.8,0.7-1.5,1.5-1.5h164.7c0.8,0,1.5,0.7,1.5,1.5
						v44C2318.3,2098.2,2317.6,2098.9,2316.8,2098.9z M2153.6,2095.9h161.7v-41h-161.7V2095.9z"/>
				</g>
				<g>
					<path fill="#939393" d="M2316.8,2028.1h-164.7c-0.8,0-1.5-0.7-1.5-1.5v-24.9c0-0.8,0.7-1.5,1.5-1.5h164.7
						c0.8,0,1.5,0.7,1.5,1.5v24.9C2318.3,2027.4,2317.6,2028.1,2316.8,2028.1z M2153.6,2025.1h161.7v-21.9h-161.7V2025.1z"/>
				</g>
				<circle fill="#7AD001" cx="1996.3" cy="2045.7" r="8.1"/>
				<circle fill="#FEB000" cx="2046.5" cy="2045.7" r="8.1"/>
				<circle fill="#FF6162" cx="2097" cy="2045.7" r="8.1"/>
			</g>
			<g>
				<rect x="1942.8" y="2161.6" fill="#CEDCED" width="400.8" height="151.3"/>
				<g>
					<path fill="#939393" d="M2316.8,2290.4h-164.7c-0.8,0-1.5-0.7-1.5-1.5v-44c0-0.8,0.7-1.5,1.5-1.5h164.7c0.8,0,1.5,0.7,1.5,1.5
						v44C2318.3,2289.8,2317.6,2290.4,2316.8,2290.4z M2153.6,2287.4h161.7v-41h-161.7V2287.4z"/>
				</g>
				<g>
					<path fill="#939393" d="M2316.8,2219.6h-164.7c-0.8,0-1.5-0.7-1.5-1.5v-24.9c0-0.8,0.7-1.5,1.5-1.5h164.7
						c0.8,0,1.5,0.7,1.5,1.5v24.9C2318.3,2218.9,2317.6,2219.6,2316.8,2219.6z M2153.6,2216.6h161.7v-21.9h-161.7V2216.6z"/>
				</g>
				<circle fill="#7AD001" cx="1996.3" cy="2237.2" r="8.1"/>
				<circle fill="#FEB000" cx="2046.5" cy="2237.2" r="8.1"/>
				<circle fill="#FF6162" cx="2097" cy="2237.2" r="8.1"/>
			</g>
			<g>
				<rect x="1942.8" y="2353.1" fill="#CEDCED" width="400.8" height="151.3"/>
				<g>
					<path fill="#939393" d="M2316.8,2481.9h-164.7c-0.8,0-1.5-0.7-1.5-1.5v-44c0-0.8,0.7-1.5,1.5-1.5h164.7c0.8,0,1.5,0.7,1.5,1.5
						v44C2318.3,2481.3,2317.6,2481.9,2316.8,2481.9z M2153.6,2478.9h161.7v-41h-161.7V2478.9z"/>
				</g>
				<g>
					<path fill="#939393" d="M2316.8,2411.1h-164.7c-0.8,0-1.5-0.7-1.5-1.5v-24.9c0-0.8,0.7-1.5,1.5-1.5h164.7
						c0.8,0,1.5,0.7,1.5,1.5v24.9C2318.3,2410.4,2317.6,2411.1,2316.8,2411.1z M2153.6,2408.1h161.7v-21.9h-161.7V2408.1z"/>
				</g>
				<circle fill="#7AD001" cx="1996.3" cy="2428.7" r="8.1"/>
				<circle fill="#FEB000" cx="2046.5" cy="2428.7" r="8.1"/>
				<circle fill="#FF6162" cx="2097" cy="2428.7" r="8.1"/>
			</g>
			<g>
				<rect x="1935.1" y="2544.6" fill="#CEDCED" width="400.8" height="151.3"/>
				<g>
					<path fill="#939393" d="M2309.1,2673.4h-164.7c-0.8,0-1.5-0.7-1.5-1.5v-44c0-0.8,0.7-1.5,1.5-1.5h164.7c0.8,0,1.5,0.7,1.5,1.5
						v44C2310.6,2672.8,2310,2673.4,2309.1,2673.4z M2145.9,2670.4h161.7v-41h-161.7V2670.4z"/>
				</g>
				<g>
					<path fill="#939393" d="M2309.1,2602.6h-164.7c-0.8,0-1.5-0.7-1.5-1.5v-24.9c0-0.8,0.7-1.5,1.5-1.5h164.7
						c0.8,0,1.5,0.7,1.5,1.5v24.9C2310.6,2601.9,2310,2602.6,2309.1,2602.6z M2145.9,2599.6h161.7v-21.9h-161.7V2599.6z"/>
				</g>
				<circle fill="#7AD001" cx="1988.7" cy="2620.2" r="8.1"/>
				<circle fill="#FEB000" cx="2038.8" cy="2620.2" r="8.1"/>
				<circle fill="#FF6162" cx="2089.3" cy="2620.2" r="8.1"/>
			</g>
		</g>
		<g>
			<path fill="#00ABFE" d="M2641.6,1399.3c-6.9,16.4-15.1,32.3-24.4,47.5c-15.5,27.4-55.8,33.2-86.6,20.5
				c-30.7-12.7-53.3-39.7-70.9-67.9c-17.6-28.2-31.7-58.8-52.4-84.8c-8.1-35.2-6.1-71.4,1.9-105.5c8-34.1,15-73.3,28.6-105.6
				c20.3,9.2,37.1,37.3,46,57.7c29,67.1,53.7,136,73.8,206.3L2641.6,1399.3z"/>
			<g>
				<path fill="#008EC6" d="M2532.5,1399.1c-0.3,0-0.7-0.1-0.9-0.3c-0.6-0.5-0.8-1.5-0.2-2.1l24.2-30.5c0.5-0.6,1.5-0.8,2.1-0.2
					c0.6,0.5,0.8,1.5,0.2,2.1l-24.2,30.5C2533.3,1398.9,2532.9,1399.1,2532.5,1399.1z"/>
			</g>
			<g>
				<path fill="#FFAD92" d="M2523.6,2152c-10.1,32-19.2,64.4-27.2,97c-22.9-11.8-46.1-24.2-68.6-37.7c8.7-26.3,15.8-53.4,19-81.1
					C2473.6,2134.3,2500,2141.2,2523.6,2152z"/>
				<path fill="#FFAD92" d="M2693.8,2168c0.7,25.6,0.5,51.3-0.5,76.9c-10,0.6-21.8,1.4-33.5-0.1c-11.7-1.5-23.2-5.5-32.6-12.6
					c-6-22.5-10.9-46.8-13.1-70.2C2638.6,2157.8,2664,2159.3,2693.8,2168z"/>
				<path fill="#ED9100" d="M2507.1,2378.4c-53.7-37.9-135.4-131.1-135.4-131.1c22.4-42.1,61-56.2,61.1-57.2
					c6.6,11.9,17.2,21.6,29.6,27.1c12.4,5.6,26.6,7,39.2,4.7c11.6,36.4,23.5,73.4,44.2,105.5c6.1,9.4,13.3,19.9,10.8,30.8
					c-2.3,10-11.9,16.5-21.2,20.9C2526.2,2383.5,2515.4,2384.3,2507.1,2378.4z"/>
				<path fill="#ED9100" d="M2728.2,2381c-57.1-28-108.9-66.6-152-113.2c1.4-10.3,7.6-21.7,16-30.8c8.4-9.1,18.8-16,29.7-24.1
					c22.6,11.6,47.3,22.4,71.2,17c16.5,31.2,34.6,61.6,54,91.1c8.2,12.4,17.1,26.8,13.1,41.2
					C2756.6,2374.7,2740.8,2387.2,2728.2,2381z"/>
				<path fill="#4D5A6D" d="M2230.5,1685c0.5-33.3,1.9-69.2,22.7-95.2c8.6-10.8,20.1-19,32.2-25.6c41.1-22.4,92.3-26.5,135.5-8.4
					c53.5,21.2,105.7,43.1,156.6,68c32.6,15.9,65.5,33.7,89.2,61.3c23.6,27.6,36.3,67.3,22,100.9c2.8,136.8,12.2,273.5,25.9,409.4
					c-40.2-2-80-12-118.8-33.4c-16.6-124.4-25.2-249.9-29.7-374.8c-104.3-5.7-208.4-28.3-302.3-74.1
					C2249.3,1706.3,2230.4,1695.2,2230.5,1685z"/>
				<path fill="#4D5A6D" d="M2497.4,1807.4c-38.4,108.2-65.9,220.2-82,332.1c36.8,26.8,69.1,41.5,118,50.1
					c41.5-137.2,84.2-271.6,106-415.7c15.4-40.4-4.8-89.1-41-112.6c-19-12.4-41.3-18.6-63.1-24.8c-94.1-26.3-188.7-52.7-282.3-68.2
					c-46,2.3-92,4.5-137.9,6.8c-7.1,0.3-14.4,0.8-20.7,3.9c-7.3,3.6-12.5,10.5-16.8,17.4c-11.8,18.8-19.5,40.1-20.3,63.1
					c-5.3,13.2-7.6,28-4.1,41.8c5.3,21.6,23.8,38,44.3,46.6c20.5,8.7,43,10.9,65.1,13.2C2275.2,1773.1,2387.1,1791,2497.4,1807.4z"
					/>
				<g>
					<path fill="#3C4A5B" d="M2533.4,2191.1c-0.1,0-0.3,0-0.4-0.1c-0.8-0.2-1.2-1.1-1-1.9c3.3-10.9,6.6-21.8,9.9-32.7
						c39.1-128.7,76-250.3,96-382.8c0-0.1,0-0.2,0.1-0.3c14.5-38-3.3-86.7-40.4-110.9c-19-12.4-41.2-18.6-62.7-24.6
						c-92.6-25.9-188.3-52.6-282.1-68.2c-0.8-0.1-1.4-0.9-1.2-1.7c0.1-0.8,0.9-1.4,1.7-1.2c93.9,15.6,189.7,42.4,282.4,68.3
						c21.7,6.1,44.1,12.3,63.5,24.9c18.1,11.8,32.5,29.8,40.4,50.7c8.2,21.5,8.6,44.1,1.2,63.5c-20.1,132.6-58.7,259.9-96.1,383
						c-3.3,10.9-6.6,21.8-9.9,32.7C2534.6,2190.7,2534,2191.1,2533.4,2191.1z"/>
				</g>
				<g>
					<path fill="#3C4A5B" d="M2550.5,1803.4c-0.7,0-1.3-0.5-1.5-1.2c-0.2-0.8,0.4-1.6,1.2-1.8c1.5-0.3,37.3-7.5,52.4-5.5
						c0.8,0.1,1.4,0.9,1.3,1.7c-0.1,0.8-0.9,1.4-1.7,1.3c-14.6-2-51,5.4-51.4,5.4C2550.7,1803.4,2550.6,1803.4,2550.5,1803.4z"/>
				</g>
				<g>
					<path fill="#3C4A5B" d="M2497.4,1808.9c-0.1,0-0.2,0-0.3,0c-0.8-0.1-1.4-0.9-1.2-1.7l4.6-26.7c0.1-0.8,0.9-1.4,1.7-1.2
						c0.8,0.1,1.4,0.9,1.2,1.7l-4.6,26.7C2498.7,1808.4,2498.1,1808.9,2497.4,1808.9z"/>
				</g>
				<g>
					<path fill="#3C4A5B" d="M2649.4,1797.6c-0.6,0-1.2-0.4-1.4-1c-0.3-0.8,0.1-1.6,0.9-1.9l18.4-7.2c0.8-0.3,1.6,0.1,1.9,0.9
						s-0.1,1.6-0.9,1.9l-18.4,7.2C2649.8,1797.6,2649.6,1797.6,2649.4,1797.6z"/>
				</g>
				<g>
					<path fill="#3C4A5B" d="M2516.3,2161.2c-0.1,0-0.2,0-0.3,0c-42.8-8-80.1-34.2-80.5-34.5c-0.7-0.5-0.8-1.4-0.4-2.1
						c0.5-0.7,1.4-0.8,2.1-0.4c0.4,0.3,37.1,26.1,79.3,34c0.8,0.2,1.3,0.9,1.2,1.8C2517.7,2160.7,2517,2161.2,2516.3,2161.2z"/>
				</g>
				<g>
					<path fill="#3C4A5B" d="M2690.1,2163.1C2690.1,2163.1,2690.1,2163.1,2690.1,2163.1c-29.6-1.4-76-18.9-76.5-19.1
						c-0.8-0.3-1.2-1.2-0.9-1.9c0.3-0.8,1.2-1.2,1.9-0.9c0.5,0.2,46.5,17.5,75.5,18.9c0.8,0,1.5,0.7,1.4,1.6
						C2691.6,2162.5,2690.9,2163.1,2690.1,2163.1z"/>
				</g>
			</g>
			<g>
				<path fill="#FFAD92" d="M2380,1008.2c-2.4,24.3-4.8,48.5-7.2,72.8c-8.2,10.2-28.2,32-42.1,32.5c-29,1-47.7-45.9-55.3-73.9
					c16.9-36.9,28.3-62.3,41.8-94.6c17.1,17.5,34.1,34.9,51.2,52.4C2372.6,1001.7,2377,1006.1,2380,1008.2z"/>
				<path fill="#00ABFE" d="M2430.3,1289.2c-7.2,50.2-10.2,105-11.1,159.8c8,18.4,9.7,35.7,5.4,51.4c7.3,19.9,12.4,41.5,13.8,63.3
					c-32.5,1.7-72.3,6.3-111.1,15.2c-38.9,6.3-81.4,21.8-117.2,46.8c-31.4,21.9-61.1,52.3-99.4,53.7c-3.1-20.1-6.4-44.7-9.7-69.3
					c-11.5,34.4-23.5,65.2-37.7,95c-19.9,6.1-41.5,4.7-61.5-1.8c0.3-2,0.7-4,1-6c32.6-120.8,76.2-245.3,95.1-374.9
					c4.3-24.6,8.6-49.9,12.8-75.1c18.4-65.1,36.5-124.9,54.6-184.7c37-10.9,74.5-20.3,112.3-28c1.6,6.9,4.6,13.5,9,19.2
					c7.3,9.5,18.3,16.2,30.1,18.4c6.1,4.8,7.7,11.2,8.6,17.3c1,6.3,1.6,12.6,1.7,18.9c2.4-10.9,6.9-21.2,13-30.6
					c14.4,2.1,29.7-2.5,39.9-12.5c22.4,10.7,43.3,23.6,61.1,41c11.8,26,9.4,53.5,6.1,79.9C2442.8,1220.6,2437.2,1255,2430.3,1289.2z
					"/>
				<g>
					<path fill="#008EC6" d="M2324.7,1577.4c-0.5,0-1-0.3-1.3-0.8c-6-10.5-16.9-16.2-28.4-22.3c-10.5-5.6-21.4-11.3-28.3-21.1
						c-12.5-17.8-7.3-42-3.1-61.5c8.2-38.2,13.4-77.4,15.4-116.5c0-0.1,0-0.1,0-0.2c16.3-80.7,31.8-165.2,46.8-247
						c0.1-0.8,0.9-1.4,1.7-1.2c0.8,0.1,1.4,0.9,1.2,1.7c-15,81.7-30.5,166.2-46.8,246.9c-2,39.2-7.2,78.5-15.4,116.8
						c-4,18.9-9.1,42.5,2.6,59.2c6.5,9.2,17,14.8,27.3,20.2c11.4,6,23.1,12.2,29.6,23.4c0.4,0.7,0.2,1.6-0.6,2
						C2325.2,1577.3,2325,1577.4,2324.7,1577.4z"/>
				</g>
				<g>
					<path fill="#008EC6" d="M2232.7,1531.9c-0.2,0-0.4,0-0.6-0.1c-33.3-13.5-69.7-18.4-105.3-14.1c-0.8,0.1-1.6-0.5-1.7-1.3
						c-0.1-0.8,0.5-1.6,1.3-1.7c36.1-4.3,73.1,0.6,106.8,14.3c0.8,0.3,1.1,1.2,0.8,2C2233.8,1531.6,2233.3,1531.9,2232.7,1531.9z"/>
				</g>
				<g>
					<path fill="#008EC6" d="M2290.2,1520.1c-0.4,0-0.9-0.2-1.2-0.5c-0.5-0.6-0.4-1.6,0.2-2.1c19.6-16.4,45.6-25.5,71.1-25
						c0.8,0,1.5,0.7,1.5,1.5c0,0.8-0.7,1.5-1.5,1.5c0,0,0,0,0,0c-24.9-0.5-50.1,8.4-69.1,24.3
						C2290.8,1520,2290.5,1520.1,2290.2,1520.1z"/>
				</g>
				<g>
					<path fill="#008EC6" d="M2139.1,1636.7c-0.7,0-1.3-0.5-1.5-1.2c-0.2-0.8,0.4-1.6,1.2-1.8c19.1-3.8,36-14.9,52.3-25.7
						c14.5-9.5,29.5-19.4,46.3-24.4c0.8-0.2,1.6,0.2,1.9,1c0.2,0.8-0.2,1.6-1,1.9c-16.4,4.9-31.2,14.6-45.5,24.1
						c-16.6,10.9-33.7,22.1-53.4,26.1C2139.3,1636.7,2139.2,1636.7,2139.1,1636.7z"/>
				</g>
				<path fill="#4D5A6D" d="M2354.1,1113.5c-1.5-12.8-6.4-25.1-14.1-35.4c15.4-5.2,27.1-14.6,35-27.3c2.7,5.9,5.7,11.6,8.2,17.2
					C2373.2,1081.7,2363.2,1095.5,2354.1,1113.5z"/>
				<path fill="#4D5A6D" d="M2296.5,1097.8c5.7-9.7,13.2-18.4,22-25.4c-16.2-15.9-27.3-34.8-33.7-55.3c-3.8,6.3-7.7,12.5-12,18.3
					C2279.4,1057,2287.3,1078.2,2296.5,1097.8z"/>
			</g>
			<g>
				<path fill="#3B2C26" d="M2314.7,928.2c-7.9-23.2-7.9-48.2-8.2-71.2c11.8-19.6,36.8-30.1,59.7-23c27.5-21.5,68.2-21.2,98.4-3.8
					s50.1,49.5,55.3,85.8c-2.9-2.4-5.8-4.9-8.7-7.3c0.9,11,0.3,22-1.6,32.8c-3.1-4.4-6.8-8.4-11-11.7c-1.3,7.1-3.3,14-6,20.6
					c-3.1-6.3-7.7-11.8-15.8-16.7c-27.2,4-54,11.2-81.4,13.4S2338.8,946.2,2314.7,928.2z"/>
				<path fill="#FFAD92" d="M2311,963.7c7.2,29.5,27.9,55.4,55,68.9c6.7,3.3,14,6,21.5,5.3c8-0.8,15.1-5.4,21.5-10.4
					c31.4-24.7,51.5-60.8,69.2-97.9c-18-15.8-37.9-29.4-59.1-40.6c-8.6-4.5-17.8-8.7-28-8.7c0.1,6.7-6.1,11.9-12.5,14.3
					c-6.3,2.4-13.3,3-19.3,6c-10.1,5.2-15.6,16.1-22.7,25c-1.2,1.5-2.8,3.1-4.7,3c-3.6-0.3-3.8-5.4-4.8-8.9
					c-2.2-8.2-14.3-10.4-21.1-5.3c-6.8,5.1-8.9,14.6-8.3,23.1C2298.2,945.8,2301.3,954.4,2311,963.7z"/>
				<g>
					<path fill="#EB7154" d="M2396.8,999.1C2396.8,999.1,2396.8,999.1,2396.8,999.1c-7.5-0.1-15.2-2.8-22.1-7.8
						c-5.7-4.1-10.9-9.7-15.9-17c-0.5-0.7-0.3-1.6,0.4-2.1c0.7-0.5,1.6-0.3,2.1,0.4c4.8,7.1,9.7,12.4,15.2,16.3
						c6.5,4.6,13.5,7.1,20.4,7.2c0.8,0,1.5,0.7,1.5,1.5C2398.3,998.4,2397.6,999.1,2396.8,999.1z"/>
				</g>
				<g>
					<path fill="#EB7154" d="M2382.4,1039.1c-9.8,0-20.2-4.4-31.8-13.3c-21.9-17-36.6-39.4-41.3-63c-0.2-0.8,0.4-1.6,1.2-1.8
						c0.8-0.2,1.6,0.4,1.8,1.2c4.6,22.9,18.9,44.7,40.2,61.2c12.2,9.5,23,13.6,33,12.5c0.8-0.1,1.6,0.5,1.6,1.3
						c0.1,0.8-0.5,1.6-1.3,1.6C2384.7,1039,2383.5,1039.1,2382.4,1039.1z"/>
				</g>
			</g>
			<g>
				<path fill="#FFAD92" d="M2273.6,1241.5c27-11.9,54.1-23.9,81.1-35.8c4-1.7,8.1-3.5,11.8-4.5c25,9.6,50.6,19.6,70.2,37.7
					c1.8,1.6,3.6,3.9,2.8,6.2c-1,2.6-4.7,2.7-7.4,2c-3.8-1-7.3-2.8-12.6-5.3c-3.1-2-6.5-3.5-13.2-4.6c2.3,3.4,4.5,6.7,6.8,10.1
					c0.6,0.8,1.1,1.7,1.2,2.7c0.1,0.8-0.3,1.7-0.6,2.4c-2.4,5.7-5.6,11-9.9,15.5c0,3.3-2.7,6-5.2,8.2c-2.4,2.1-5.4,4.4-8.5,3.5
					c-2.3-0.6-3.9-2.9-4.3-5.2c-0.5-2.3-0.1-4.8,0-7.2c-5.8-4.5-11.6-9-19.4-14.7c2.6,4.6,5.2,9.1,7.8,13.7c0.8,1.4,1.6,2.9,1.6,4.5
					c-0.1,1.3-0.7,2.5-1.3,3.6c-2.1,3.8-4.1,7.6-6.2,11.4c-0.3,0.5-0.6,1.1-1,1.5c-1.3,1.2-3.6,0.6-4.7-0.8
					c-1.1-1.4-1.3-3.3-1.2-5.1c0.1-3.6,1.1-7.2,1.7-10.8c-2.9-1.8-5.6-4.1-10.6-8c-13.9,9.6-30.8,14.8-47.7,14.9
					c-2.4,0-4.7-0.1-7,0.5c-1.6,0.4-3.1,1.2-4.5,2c-4.9,2.6-9.7,5.2-15.6,5.4c-3-6.7-6.1-13.4-7.2-20.6
					C2269.2,1257.4,2270.2,1249.9,2273.6,1241.5z"/>
				<g>
					<path fill="#EB7154" d="M2408.7,1239.6c-0.3,0-0.7-0.1-0.9-0.3c-11.1-8.9-23.6-15.6-37.2-19.9c-0.8-0.3-1.2-1.1-1-1.9
						c0.3-0.8,1.1-1.2,1.9-1c13.9,4.5,26.7,11.3,38.1,20.5c0.6,0.5,0.8,1.5,0.2,2.1C2409.6,1239.5,2409.1,1239.6,2408.7,1239.6z"/>
				</g>
				<g>
					<path fill="#EB7154" d="M2403.2,1270.5c-0.2,0-0.5-0.1-0.7-0.2c-0.7-0.4-1-1.3-0.6-2c1.5-2.7,1.4-6.4-0.3-9.8
						c-1.6-3.4-4.3-6-7-8.5c-8.2-7.4-17.5-13.3-27.7-17.5c-0.8-0.3-1.1-1.2-0.8-2c0.3-0.8,1.2-1.1,2-0.8
						c10.5,4.4,20.1,10.5,28.6,18.1c2.8,2.5,5.8,5.6,7.7,9.4c2.1,4.3,2.1,9,0.2,12.6C2404.2,1270.2,2403.7,1270.5,2403.2,1270.5z"/>
				</g>
				<g>
					<path fill="#EB7154" d="M2368.4,1256.2c-0.3,0-0.6-0.1-0.9-0.3c-5.6-4.2-10.9-9-15.7-14c-0.6-0.6-0.6-1.5,0-2.1
						c0.6-0.6,1.5-0.6,2.1,0c4.7,5,9.9,9.6,15.4,13.7c0.7,0.5,0.8,1.4,0.3,2.1C2369.3,1256,2368.9,1256.2,2368.4,1256.2z"/>
				</g>
				<g>
					<path fill="#EB7154" d="M2338.9,1247.7c-0.2,0-0.3,0-0.5-0.1c-0.8-0.3-1.2-1.1-0.9-1.9c3.9-11.2,9-22.1,15.2-32.3
						c0.4-0.7,1.4-0.9,2.1-0.5c0.7,0.4,0.9,1.4,0.5,2.1c-6.1,10-11.1,20.6-14.9,31.7C2340.1,1247.3,2339.5,1247.7,2338.9,1247.7z"/>
				</g>
				<path fill="#00ABFE" d="M2182.4,1211.8c-11.7,20.1-23.3,40.2-35,60.3c28.1-10.5,54.9-19.7,81.7-29c4.8-1.7,9.7-3.3,14.8-3.4
					c5.1,0,10.4,1.9,13.3,6.1c8-2,13.1-3.5,18.2-5.1c1.9,16.5,6.1,33,12.4,48.6c-6.7,2.8-13.2,6-19.4,9.7
					c-7.7,23.5-33,38.4-56.4,51.1c-18.8,10.2-37.5,20.4-56.3,30.6c-16.4,8.9-33,17.9-51,23.2c-17.9,5.3-37.6,6.7-55.2,0.3
					c-17.1-6.1-31.4-19.5-38.6-36.2c-5.6-12.9-7-27.3-5.9-41.3c4.5-56.8,47.4-103.1,63.2-157.9c20.1-27.7,27.4-62.6,52.3-83.6
					c12.8-10.7,32.1-18.7,45-22.8c10.2,4.6,12.1,18.1,15.6,28.8C2193.3,1129.4,2203.7,1175.1,2182.4,1211.8z"/>
				<g>
					<path fill="#008EC6" d="M2088.5,1294.3c-0.6,0-1.2-0.4-1.4-1c-0.3-0.8,0.1-1.6,0.9-1.9l134.8-47.7c12.7-4.5,26.9-7.9,37,0.3
						l13.8-4.4c0.8-0.2,1.6,0.2,1.9,1c0.3,0.8-0.2,1.6-1,1.9l-14.6,4.7c-0.5,0.2-1,0-1.4-0.3c-8.9-7.8-21.9-4.7-34.7-0.2
						l-134.8,47.7C2088.8,1294.3,2088.6,1294.3,2088.5,1294.3z"/>
				</g>
				<g>
					<path fill="#008EC6" d="M2146.9,1274.2c-0.3,0-0.5-0.1-0.8-0.2c-0.7-0.4-1-1.3-0.5-2l40.4-69.7c0.4-0.7,1.3-1,2-0.5
						c0.7,0.4,1,1.3,0.5,2l-40.4,69.7C2147.9,1273.9,2147.4,1274.2,2146.9,1274.2z"/>
				</g>
				<g>
					<path fill="#008EC6" d="M2175.6,1225.4c-0.4,0-0.9-0.2-1.2-0.6c-0.5-0.6-0.4-1.6,0.2-2.1c6.1-4.9,12.7-9.2,19.6-12.7
						c0.7-0.4,1.6-0.1,2,0.6c0.4,0.7,0.1,1.6-0.6,2c-6.8,3.5-13.2,7.7-19.1,12.4C2176.3,1225.3,2175.9,1225.4,2175.6,1225.4z"/>
				</g>
				<g>
					<path fill="#008EC6" d="M2078.6,1411.6c-5.4,0-10.8-0.7-16.1-2.3c-0.8-0.2-1.2-1.1-1-1.9c0.2-0.8,1.1-1.2,1.9-1
						c20.8,6.2,43.3-2,64.5-11.8c36.2-16.7,71.6-36,105.2-57.5c15.2-9.7,29.6-21,31.9-37.2c0.1-0.4,0.3-0.8,0.7-1.1
						c7-4.5,13.6-8,20.2-10.6c0.8-0.3,1.6,0.1,2,0.8c0.3,0.8-0.1,1.6-0.8,2c-6.2,2.5-12.4,5.8-19.1,10c-2.7,17-17.5,28.6-33.1,38.6
						c-33.7,21.6-69.2,41-105.6,57.7C2112.6,1405,2095.4,1411.6,2078.6,1411.6z"/>
				</g>
				<g>
					<path fill="#008EC6" d="M2266.6,1289.2c-0.6,0-1.1-0.3-1.4-0.9c-5-11.3-7.3-23.8-6.7-36.2c0-0.8,0.7-1.5,1.6-1.4
						c0.8,0,1.5,0.7,1.4,1.6c-0.6,11.9,1.6,23.9,6.4,34.8c0.3,0.8,0,1.6-0.8,2C2267,1289.1,2266.8,1289.2,2266.6,1289.2z"/>
				</g>
			</g>
			<g>
				<path fill="#ABB9C4" d="M2405.1,1335.2l114.3-248.3c1.2-2.7,3.9-4.4,6.8-4.4h185.3c5.5,0,9.1,5.7,6.8,10.6L2604,1341.5
					c-1.2,2.7-3.9,4.4-6.8,4.4h-185.3C2406.4,1345.8,2402.8,1340.2,2405.1,1335.2z"/>
				<path fill="#EB7154" d="M2617.1,1296.7c11.1-24.1,25.6-46.6,42.9-66.7c5.4,10.5,9,21.8,10.6,33.5c0.3,2.2,0.5,4.5-0.2,6.6
					c-0.5,1.4-1.3,2.6-2.1,3.8c-9.7,14.1-19.3,28.2-29,42.3c-0.5,0.8-1.1,1.6-2,1.8c-1.3,0.3-2.5-0.7-3.4-1.6
					C2628.1,1310.4,2623.1,1303.8,2617.1,1296.7z"/>
				<path fill="#4D5A6D" d="M2413,1335.2l114.3-248.3c1.2-2.7,3.9-4.4,6.8-4.4h185.3c5.5,0,9.1,5.7,6.8,10.6l-114.3,248.3
					c-1.2,2.7-3.9,4.4-6.8,4.4h-185.3C2414.4,1345.8,2410.7,1340.2,2413,1335.2z"/>
				<path fill="#FFFFFF" d="M2534.4,1130.9l11.9-22c0.1-0.3,0.5-0.5,0.8-0.5h21.7c0.6,0,1.1,0.7,0.8,1.2l-11.9,22
					c-0.1,0.3-0.5,0.5-0.8,0.5h-21.7C2534.6,1132.1,2534.1,1131.5,2534.4,1130.9z"/>
				<g>
					<path fill="#FFAD92" d="M2662.5,1319.3c13.9-24.9,27.5-49.9,40.8-75.2c1-1.9,2-3.8,2.1-5.9c0.1-2.5-1-4.8-2-7.1
						c-3-6.2-5.9-12.3-9.9-18.5c-8-6.5-16.1-13-24.1-19.4c-1.4-1.1-3.1-2.3-4.9-2c-3.2,0.5-3.6,5-2.9,8.1c1.4,5.6,4.1,11,5.8,16.4
						c-7.1-6.5-15.6-11.5-24.7-14.6c-0.9-0.3-2-0.6-2.9-0.3c-1.8,0.7-1.9,3.2-1.4,5.1c1,3.5,3.1,6.6,3.9,9.8c-3.7,0.8-6,5.4-4.5,8.8
						c0.4,0.9,1.1,1.8,1.7,2.6c3.8,4.9,7.7,9.9,11.4,15.6c1.3,5.8,2.5,11.6,3,18.1c-4.6-4.8-9.5-9.4-14.8-13.6
						c-4.6-0.4-9.2,0.1-13.6,1.4c-1.2,0.3-2.6,0.9-3.1,1.9c2.2,5.3,9.1,8.1,14.2,6.1c2.9,7.6,7.8,14.5,13.6,20.2
						c-8.7,9.9-13,23.6-12.2,37.6c2.9,4.2,6.6,8.2,11.4,9.8C2654.3,1325.8,2660,1323.9,2662.5,1319.3z"/>
					<g>
						<path fill="#EB7154" d="M2679.8,1243.3c-0.6,0-1.2-0.4-1.4-1l-5.4-16.9c-2.3-3.9-4.7-7-8-10.4c-0.6-0.6-0.6-1.5,0-2.1
							c0.6-0.6,1.5-0.6,2.1,0c3.5,3.6,6.1,7,8.5,11.1c0.1,0.1,0.1,0.2,0.1,0.3l5.5,17c0.3,0.8-0.2,1.6-1,1.9
							C2680.1,1243.3,2679.9,1243.3,2679.8,1243.3z"/>
					</g>
					<g>
						<path fill="#EB7154" d="M2669,1254.7c-0.6,0-1.2-0.4-1.4-1l-8-22.6c-5.2-4.8-11.1-9.7-18.2-15c-0.7-0.5-0.8-1.4-0.3-2.1
							c0.5-0.7,1.4-0.8,2.1-0.3c7.3,5.5,13.4,10.5,18.7,15.4c0.2,0.2,0.3,0.4,0.4,0.6l8.1,23c0.3,0.8-0.1,1.6-0.9,1.9
							C2669.3,1254.7,2669.1,1254.7,2669,1254.7z"/>
					</g>
					<g>
						<path fill="#EB7154" d="M2678.9,1264.3c-0.4,0-0.8-0.2-1.1-0.5c-0.6-0.6-0.5-1.6,0.1-2.1c7.6-6.9,14.5-13.9,17-22.9
							c0.2-0.8,1-1.3,1.8-1.1c0.8,0.2,1.3,1,1.1,1.8c-2.6,9.8-10.3,17.4-17.8,24.4C2679.6,1264.2,2679.2,1264.3,2678.9,1264.3z"/>
					</g>
					<path fill="#00ABFE" d="M2656.2,1338.7c2.2,11.4-0.4,20.9-3.3,30c-3.3,10.3-7.1,20.5-11.3,30.5l-84-31.8l1.1-3l0.1-0.3
						c3.5-9.2,7-14.7,10.4-20.2c8.9-14.1,19.7-29.5,36.2-32.1c5.6-7.6,9.3-13.7,13.1-19.8c13.7,13.6,28.6,23.5,44.9,27.4
						C2661.8,1326,2659.3,1332.6,2656.2,1338.7z"/>
				</g>
			</g>
		</g>
	</g>
</g>
</svg>
