<?xml version="1.0" standalone="no"?>
<!DOCTYPE svg PUBLIC "-//W3C//DTD SVG 20010904//EN"
 "http://www.w3.org/TR/2001/REC-SVG-20010904/DTD/svg10.dtd">
<svg version="1.0" xmlns="http://www.w3.org/2000/svg"
 width="164.000000pt" height="152.000000pt" viewBox="0 0 164.000000 152.000000"
 preserveAspectRatio="xMidYMid meet">

<g transform="translate(0.000000,152.000000) scale(0.100000,-0.100000)"
fill="#000000" stroke="none">
<path d="M645 1362 c-108 -32 -175 -73 -261 -157 -59 -59 -90 -99 -117 -152
-153 -310 -30 -676 275 -822 99 -47 161 -61 268 -61 168 0 307 57 423 173 126
126 181 260 180 437 0 118 -25 207 -84 305 -74 122 -192 219 -320 265 -89 31
-278 38 -364 12z m288 -17 c111 -23 192 -69 282 -160 130 -130 181 -260 172
-440 -8 -166 -62 -281 -183 -395 -223 -208 -560 -212 -787 -9 -138 123 -215
331 -188 508 23 146 71 242 172 342 140 138 338 195 532 154z"/>
<path d="M725 1269 c-75 -11 -186 -64 -247 -118 -246 -219 -218 -615 55 -792
162 -105 382 -110 537 -11 111 70 203 203 229 330 69 336 -228 642 -574 591z
m329 -220 c15 -97 -35 -238 -114 -319 -64 -66 -128 -94 -222 -98 l-77 -4 9 33
c5 18 27 51 47 73 l38 40 -35 -28 c-49 -40 -70 -75 -70 -117 0 -51 25 -127 51
-155 l22 -24 -29 0 c-44 0 -66 50 -72 165 -9 191 52 276 256 361 100 41 145
74 157 112 8 28 11 31 21 17 6 -8 14 -34 18 -56z"/>
</g>
</svg>
