<?xml version="1.0" standalone="no"?>
<!DOCTYPE svg PUBLIC "-//W3C//DTD SVG 20010904//EN"
 "http://www.w3.org/TR/2001/REC-SVG-20010904/DTD/svg10.dtd">
<svg version="1.0" xmlns="http://www.w3.org/2000/svg"
 width="503.000000pt" height="166.000000pt" viewBox="0 0 503.000000 166.000000"
 preserveAspectRatio="xMidYMid meet">

<g transform="translate(0.000000,166.000000) scale(0.100000,-0.100000)"
fill="#000000" stroke="none">
<path d="M730 1435 c-224 -61 -396 -240 -446 -462 -32 -145 -6 -307 71 -439
16 -27 60 -81 99 -120 55 -55 91 -81 156 -112 107 -51 183 -66 308 -60 315 16
563 278 566 598 0 102 -15 171 -59 265 -68 142 -201 264 -346 315 -84 29 -267
37 -349 15z m273 -20 c111 -23 192 -69 283 -160 88 -87 129 -157 159 -275 23
-86 15 -239 -15 -327 -141 -407 -660 -524 -966 -218 -228 228 -227 593 1 820
145 145 339 203 538 160z"/>
<path d="M801 1339 c-79 -10 -190 -62 -253 -118 -246 -218 -218 -616 55 -792
197 -127 455 -105 616 53 106 104 154 214 155 358 1 143 -38 243 -137 347
-114 121 -265 174 -436 152z m323 -220 c15 -97 -35 -238 -114 -319 -64 -66
-128 -94 -222 -98 l-77 -4 9 33 c5 18 27 51 47 73 l38 40 -35 -28 c-49 -40
-70 -75 -70 -117 0 -52 25 -128 52 -156 l23 -25 -35 4 c-32 3 -36 7 -53 53
-13 38 -17 74 -14 150 2 89 6 106 32 153 40 73 69 95 221 168 130 61 164 88
164 129 1 19 1 19 14 2 7 -9 16 -36 20 -58z"/>
<path d="M3670 1100 l0 -190 30 0 30 0 0 68 c0 78 16 116 50 120 37 6 50 -22
50 -110 l0 -78 35 0 35 0 0 73 c0 134 -32 186 -105 173 -20 -4 -39 -14 -42
-22 -13 -36 -23 -7 -23 71 l0 85 -30 0 -30 0 0 -190z"/>
<path d="M1800 1090 l0 -180 83 0 c138 0 191 27 191 95 0 36 -35 85 -62 85 -8
0 -2 12 17 29 21 20 31 38 31 59 0 65 -54 91 -192 92 l-68 0 0 -180z m168 104
c45 -32 15 -74 -54 -74 l-44 0 0 38 c0 21 3 42 7 45 12 13 68 7 91 -9z m29
-161 c13 -19 12 -24 -6 -42 -16 -16 -34 -21 -71 -21 l-50 0 0 45 0 46 56 -3
c45 -2 60 -7 71 -25z"/>
<path d="M2127 1264 c-14 -14 -7 -54 12 -64 28 -15 71 21 55 47 -11 19 -54 29
-67 17z"/>
<path d="M2922 1258 c-18 -18 -15 -35 10 -52 30 -21 60 -4 56 32 -2 20 -9 28
-28 30 -14 2 -31 -3 -38 -10z"/>
<path d="M2357 1140 c-30 -24 -37 -25 -37 -5 0 10 -10 15 -30 15 l-30 0 0
-120 0 -120 30 0 c30 0 30 0 30 59 0 62 13 110 33 123 7 4 24 8 40 8 23 0 27
4 27 30 0 36 -24 40 -63 10z"/>
<path d="M2566 1139 c-21 -17 -26 -18 -26 -5 0 12 -10 16 -35 16 l-35 0 0
-120 0 -120 35 0 35 0 0 79 c0 84 12 111 50 111 29 0 40 -31 40 -114 l0 -76
35 0 34 0 3 87 c3 86 3 88 31 98 43 15 57 -11 57 -107 l0 -78 30 0 30 0 0 100
c0 95 -2 102 -26 127 -21 21 -32 24 -61 20 -20 -4 -44 -14 -54 -23 -17 -15
-20 -15 -45 5 -34 27 -64 27 -98 0z"/>
<path d="M3146 1139 c-21 -17 -26 -18 -26 -5 0 12 -10 16 -35 16 l-35 0 0
-120 0 -120 35 0 35 0 0 79 c0 83 12 111 49 111 33 0 41 -22 41 -107 l0 -83
35 0 35 0 0 90 c0 101 -15 144 -52 154 -38 10 -54 7 -82 -15z"/>
<path d="M3390 1138 c-69 -46 -73 -148 -9 -202 35 -30 99 -36 119 -11 18 22
30 18 30 -10 0 -55 -84 -87 -136 -51 -19 14 -22 12 -38 -15 l-17 -29 35 -15
c77 -32 176 -10 207 47 8 14 15 75 17 161 l4 137 -36 0 c-27 0 -36 -4 -36 -17
0 -15 -1 -15 -19 1 -32 29 -81 31 -121 4z m118 -54 c15 -10 22 -25 22 -46 0
-81 -106 -95 -125 -16 -5 21 -1 33 19 52 29 30 52 33 84 10z"/>
<path d="M4013 1149 c-40 -12 -50 -27 -30 -47 13 -12 19 -13 31 -3 8 7 32 11
53 9 31 -2 39 -7 41 -25 3 -21 -1 -23 -37 -23 -77 0 -121 -31 -121 -85 0 -24
7 -39 22 -49 28 -20 88 -21 114 -1 25 19 34 19 34 0 0 -10 10 -15 31 -15 l31
0 -4 93 c-5 102 -17 131 -62 147 -34 12 -59 12 -103 -1z m102 -151 c-14 -48
-76 -63 -99 -25 -15 25 16 47 67 47 35 0 38 -2 32 -22z"/>
<path d="M4350 1153 c-8 -3 -23 -12 -32 -21 -16 -14 -18 -13 -18 1 0 13 -9 17
-35 17 l-35 0 0 -120 0 -120 35 0 35 0 0 73 c0 78 16 117 49 117 33 0 41 -22
41 -107 l0 -83 35 0 35 0 0 79 c0 84 12 111 50 111 29 0 40 -31 40 -114 l0
-76 36 0 37 0 -5 102 c-5 96 -7 103 -33 126 -23 19 -36 23 -63 18 -19 -3 -43
-13 -54 -23 -13 -11 -22 -14 -26 -7 -17 26 -60 39 -92 27z"/>
<path d="M2120 1030 l0 -120 35 0 35 0 0 120 0 120 -35 0 -35 0 0 -120z"/>
<path d="M2920 1030 l0 -120 35 0 35 0 0 120 0 120 -35 0 -35 0 0 -120z"/>
</g>
</svg>
