<svg xmlns="http://www.w3.org/2000/svg" xmlns:xlink="http://www.w3.org/1999/xlink" viewBox="0 0 4680 3120"><defs><style>.cls-1{fill:none;}.cls-2,.cls-7{fill:#fff;}.cls-2{opacity:0;}.cls-3{fill:#f4e2c9;}.cls-4{clip-path:url(#clip-path);}.cls-5{fill:#edb277;}.cls-6{fill:#dceeff;}.cls-8{fill:#efd0ab;}.cls-9{fill:#f29353;}.cls-10{clip-path:url(#clip-path-2);}.cls-11{fill:#ffc299;}.cls-12{fill:#512a10;}.cls-13{fill:#6fb983;}.cls-14{fill:#35633d;}.cls-15{fill:#548e61;}.cls-16{clip-path:url(#clip-path-3);}.cls-17{clip-path:url(#clip-path-4);}.cls-18{fill:#c4b7bc;}.cls-19{clip-path:url(#clip-path-5);}.cls-20{fill:#a09298;}.cls-21{fill:#e2dcde;}.cls-22{fill:#9b7885;}.cls-23{clip-path:url(#clip-path-6);}.cls-24{fill:#70515e;}.cls-25{fill:#4c608e;}.cls-26{fill:#ecb658;}.cls-27{fill:#b7564a;}.cls-28{clip-path:url(#clip-path-7);}.cls-29{fill:#933932;}.cls-30{fill:#ba2441;}.cls-31{clip-path:url(#clip-path-8);}.cls-32{fill:#911a37;}.cls-33{clip-path:url(#clip-path-9);}.cls-34{fill:#e5e5e5;}.cls-35{fill:#ffb38d;}.cls-36{fill:#f78259;}.cls-37{fill:#7f1f34;}.cls-38{clip-path:url(#clip-path-10);}.cls-39{fill:#63172b;}.cls-40{clip-path:url(#clip-path-11);}.cls-41{fill:#5b1323;}.cls-42{fill:#7f361c;}.cls-43{clip-path:url(#clip-path-12);}.cls-44{clip-path:url(#clip-path-13);}.cls-45{fill:#bf8a86;}.cls-46{fill:#a56b6a;}.cls-47{clip-path:url(#clip-path-14);}.cls-48{fill:#935d5c;}.cls-49{fill:#161114;}.cls-50{fill:#382d33;}.cls-51{fill:#5f183b;}.cls-52{clip-path:url(#clip-path-15);}.cls-53{fill:#330c21;}.cls-54{clip-path:url(#clip-path-16);}.cls-55{fill:#d3d3d3;}.cls-56{fill:#b22630;}.cls-57{clip-path:url(#clip-path-17);}.cls-58{fill:#8e1b29;}.cls-59{clip-path:url(#clip-path-18);}.cls-60{fill:#75202c;}.cls-61{clip-path:url(#clip-path-19);}.cls-62{fill:#b2af9e;}.cls-63{fill:#a3468b;}.cls-64{clip-path:url(#clip-path-20);}.cls-65{clip-path:url(#clip-path-21);}.cls-66{clip-path:url(#clip-path-22);}.cls-67{fill:#931928;}.cls-68{fill:#871b2d;}.cls-69{clip-path:url(#clip-path-24);}.cls-70{fill:#440f2b;}.cls-71{clip-path:url(#clip-path-25);}.cls-72{clip-path:url(#clip-path-26);}.cls-73{fill:#3c4f77;}.cls-74{clip-path:url(#clip-path-27);}.cls-75{fill:#f2d0a2;}.cls-76{fill:#ffecc2;}.cls-77{clip-path:url(#clip-path-28);}.cls-78{fill:#edb89d;}.cls-79{fill:#db9572;}.cls-80{fill:#f4ae7f;}.cls-81{fill:#ffdfca;}.cls-82{fill:#ffe8c2;}</style><clipPath id="clip-path"><path class="cls-1" d="M1319.63,2640H3360.37c290.25-240.5,471.6-582.39,471.6-961.72C3832,950.19,3164,360,2340,360S848,950.19,848,1678.23C848,2057.56,1029.38,2399.45,1319.63,2640Z"/></clipPath><clipPath id="clip-path-2"><path class="cls-1" d="M1047.1,2430.79s369-41.73,386.46,0l-52,271.35c0,12.47-64.91,22.58-145,22.58s-145-10.11-145-22.58a4.56,4.56,0,0,1,1.15-2.8Z"/></clipPath><clipPath id="clip-path-3"><path class="cls-1" d="M1235.48,2370.49s-57.24-36.37-52.38-218.07,39.53-203.34,86.41-312,30.31-63.46,19.26,121.84-18.06,158.18-37.66,247.58S1228.24,2360.57,1235.48,2370.49Z"/></clipPath><clipPath id="clip-path-4"><path class="cls-1" d="M1236.86,2370.49s-34.22-58.55,53.31-217.84,128.27-162.66,219.72-237.8,56-42.53-38.67,117.13-88.5,132.35-146.87,202.84S1235,2358.36,1236.86,2370.49Z"/></clipPath><clipPath id="clip-path-5"><path class="cls-1" d="M2542.55,2001.32s62.19,332.53,50.3,428.87-105.12,206.57-105.12,206.57h284.62s-103.48-120.76-117.75-208c-13.6-83.1,31.31-441.78,31.31-441.78Z"/></clipPath><clipPath id="clip-path-6"><path class="cls-1" d="M2362.29,1553.64c3.16-14-53.76-334.6,0-365.27s401.63-108.75,550.27-16.73,56.92,705.44,0,783.51-759,145-714.72,64.13,202.4-69.7,202.4-122.68S2362.29,1553.64,2362.29,1553.64Z"/></clipPath><clipPath id="clip-path-7"><path class="cls-1" d="M2461.64,1717.28s-171,93.82-209.9,187.63S2340,2537.52,2340,2537.52l119.79-16.09-19-514.66s13.4-9.34,12.06-30.13,108.64-69,108.64-69,5.81,75.05-5.17,155.47-17.87,474.45-17.87,474.45H2664s54.31-534.55,83.28-579,31.19-43.81,36.55-86.24-42.07-210.55-42.07-210.55S2463.79,1666.35,2461.64,1717.28Z"/></clipPath><clipPath id="clip-path-8"><path class="cls-1" d="M2528.33,1216.91s-90.08,20.56-113.42,55.4-84.09,284-84.09,284l112.58,18.9L2472,1698.06h278.78l10.72-112.49,141.17-54.77s-32.16-225.43-66.12-268.32-176.91-79.08-176.91-79.08Z"/></clipPath><clipPath id="clip-path-9"><path class="cls-1" d="M2421.12,1683.4s13.7,48.1,23,72.76l9.34,24.67s58.4-70.8,124.38-73.83,89.9,0,89.9,0-59.75-49.51-64.56-128.13-25.34-171.13-25.34-171.13L2394.63,1454l-33.64,18.5Z"/></clipPath><clipPath id="clip-path-10"><path class="cls-1" d="M2635.09,921.16s-11.46-37.52-70.18-46.46-26.53,8.94-26.53,8.94c-31.08,17.43-69.89,12.64-70,36.63-63.87,23.23-56.29,63.44-48.25,67s29.49-23.23,29.49-23.23-43.79,84,21.44,85.78,183.17,18.11,183.17,18.11,31.27-15.9,16.08-37.11c12.51-23-6.35-50.69-6.35-50.69S2705.26,956.9,2635.09,921.16Z"/></clipPath><clipPath id="clip-path-11"><path class="cls-1" d="M2634,1101.43a38.7,38.7,0,0,0,20.64-12.82c12.65-14.9,12.52-35.81-.3-46.7-9.45-8-23.15-8.35-34.77-2-3.12-11.93-5.47-20.45-5.47-20.45s-36.82,5.94-51.25-5.88a1.44,1.44,0,0,0-2.23,1.67c2.74,6.43,9,11.36,9,11.36s-87-.9-77.51-46.46c0,0-26.28,14.29-31.64,45.56s4.64,39.35,9.11,58,4,107.23,95.27,71.55c4.77,19.77,0,67.08,0,67.08s21.17,24.12,31.22,23.23,63.65-62.11,63.65-62.11-23.17-54.94-24.54-73.71C2634.94,1107.57,2634.54,1104.73,2634,1101.43Z"/></clipPath><clipPath id="clip-path-12"><path class="cls-1" d="M2897,1533s77,215.11-20.82,245.73-211.76-68.56-211.76-68.56-13.85-1.34-41.1-14.75-54.87-11.08-60.5-25-14.49-51.42,24.12-52.76,52.27-3.56,83.64,8.94,69.68,37.61,91.4,43.82,43.17-11.21,43.17-11.21l-17.59-83.79Z"/></clipPath><clipPath id="clip-path-13"><path class="cls-1" d="M3149.07,1992.89s62.19,349.19,50.3,450.35-105.12,216.92-105.12,216.92h284.62s-103.48-126.81-117.76-218.43c-13.59-87.26,31.32-463.9,31.32-463.9Z"/></clipPath><clipPath id="clip-path-14"><path class="cls-1" d="M3042.27,1590c2.59-12.37-44-296.83,0-324s328.93-96.48,450.66-14.85,46.62,625.83,0,695.09-621.6,128.63-585.34,56.9,165.76-61.84,165.76-108.84S3042.27,1590,3042.27,1590Z"/></clipPath><clipPath id="clip-path-15"><path class="cls-1" d="M3293.48,1604.88s69.31,134,52.53,216.22-240.17,148.33-240.17,148.33-30.38,25-23.23,42.88,1.4,201.94-1.09,260.91,0,193,0,193S2920,2503.74,2836,2482.3v-26.81l-39.31-14.29s-98.29-453.9-26.81-529,334.17-271.62,334.17-271.62Z"/></clipPath><clipPath id="clip-path-16"><path class="cls-1" d="M3156.32,1245.24s-91.13,42.89-116.6,69.69-32.16,202.38-32.16,202.38,57.63,14.74,64.33,18.77S3083.53,1650,3083.53,1650s112.46,6.7,148.92,0,74-18.77,74-18.77L3290.35,1520s66.62-115.84,54.09-169.16-134.7-131.06-134.7-131.06Z"/></clipPath><clipPath id="clip-path-17"><path class="cls-1" d="M3209.74,996.4s-29.74-21.45-86-18.77-81.31,44.23-93.82,75.28,29.49,61.43,40.21,65,120.62,56.3,120.62,56.3,127.78-56.3,78.63-130.46c85.78-28.59,92.93-78.63,47.36-87.56s-57.19,8.93-57.19,8.93-8-14.29-20.55,0-14.29,42-14.29,42Z"/></clipPath><clipPath id="clip-path-18"><path class="cls-1" d="M3204.45,1168a35.22,35.22,0,0,0,13.22-5.52c14.23-9.69,19-27.46,10.68-39.68s-26.61-14.27-40.84-4.57c-.32.22-.61.46-.92.69a40.37,40.37,0,0,1-11.5-11.41c-13.41-20.41-20.78-54.59-20.78-54.59s-24.24,28.82-46.29,34.18l1.56-14.74s-35.68,24.79-53.11,10.72c0,0-4.69,23.92-4,45.13s5.36,29.25,4,32.6-3.54,13.41.24,14.08,6.47,83.09,79.51,51.6c3.35,33.5,4,30.82,0,38.86s-16.07,91.81-4,85.11,89.13-100.52,87.79-117.94-20-44.23-17.4-57C3203,1173.51,3203.67,1170.91,3204.45,1168Z"/></clipPath><clipPath id="clip-path-19"><path class="cls-1" d="M3147.81,1492.29,3063,1621l-155.47,103.65s-32.16-17.88-71.48,32.16h143.86s155.37-70.18,183.57-103.89,101.45-133.78,101.45-133.78S3223.74,1448.51,3147.81,1492.29Z"/></clipPath><clipPath id="clip-path-20"><path class="cls-1" d="M1768,2110s-62.19,301-50.3,388.17,105.11,187,105.11,187H1538.22s103.49-109.3,117.76-188.28c13.59-75.21-31.32-399.85-31.32-399.85Z"/></clipPath><clipPath id="clip-path-21"><path class="cls-1" d="M1948.28,1596.3c-3.16-15.81,53.77-379.49,0-414.28s-401.63-123.33-550.26-19-56.92,800.09,0,888.64,759,164.45,714.71,72.74-202.39-79.06-202.39-139.15S1948.28,1596.3,1948.28,1596.3Z"/></clipPath><clipPath id="clip-path-22"><path class="cls-1" d="M1764.56,980.14s24-12.07,50.88,0,102.58,29.48,115.31,69.69,3.35,86.67,3.35,86.67l-26.13-3.22s1.34,4.34,7.37,54.6,3.35,106.55,3.35,106.55l-41.58-4V1269l-13.37,25.47-32.84-10.06v-26.13l-14.5,21.44-29-10.51-63.31-12.94-47.36-3.35,3.35-26.81-18.76,22.79-29.48-19.44,26.13-45.83s32.84-63.4,30.16-76.13S1682.8,984.16,1764.56,980.14Z"/></clipPath><clipPath id="clip-path-24"><path class="cls-1" d="M1900.15,1136.5l-2.68-26.81-5.8,23.59-39.19-7.39-5.06-12.11v12.11l-44.59-10.84,5.29-29.48L1762,1134.21c-11.31-8.78-26.26-8.87-34.21.14-8.34,9.46-5.81,25.33,5.66,35.45a31.6,31.6,0,0,0,15.09,7.48l0,0-24.47,78.93,78.7,16.08s0-33.06,4-50.26c15.41,9.38,44.9,21.45,67,0s34.18-88.77,34.18-88.77Z"/></clipPath><clipPath id="clip-path-25"><path class="cls-1" d="M1799.78,2204.78l66.49,336.69s28.54,79.61,96.6,89.89-16.69-89.89-16.69-89.89V2186.38S1851.12,2094.08,1799.78,2204.78Z"/></clipPath><clipPath id="clip-path-26"><path class="cls-1" d="M1612.44,1746.76s-32.16,2.68-48.25,80.42,58.81,150.11,155.39,144.75c6.78,72.37,11.47,238.56,11.47,238.56s113.26-2.68,176.92-16.08S2162,2173,2162,2173s-114.81-390.18-126.34-415.27S1612.44,1746.76,1612.44,1746.76Z"/></clipPath><clipPath id="clip-path-27"><path class="cls-1" d="M1726.36,1222.5l77.75,18.88s-6.69,48.36,0,53,80.4,3.35,103.86,65,57,211.76,57,211.76-113.92,36.19-123.3,59-2.68,116.6-2.68,116.6H1612.44l10.72-205.06h-126s9.38-160.83,37.53-201,142.06-44.23,159.49-61.66S1726.36,1222.5,1726.36,1222.5Z"/></clipPath><clipPath id="clip-path-28"><path class="cls-1" d="M1505.22,1541.7s-24.12,138.94-8,183.62,76.84,57.18,133.13,57.18,218-17,218-17l99.18-1.79s-43.51-54.5-83.41-61.65-66.7,6.25-66.7,6.25l-166.2-52.71,7.16-113.93Z"/></clipPath></defs><title>04</title><g id="_04" data-name="04"><rect id="_04-2" data-name="04" class="cls-2" width="4680" height="3120"/><path class="cls-3" d="M2340,360C1516,360,848,950.19,848,1678.23c0,379.33,181.35,721.22,471.6,961.72H3360.37c290.25-240.5,471.6-582.39,471.6-961.72C3832,950.19,3164,360,2340,360Z"/><g class="cls-4"><rect class="cls-5" x="2252.73" y="269.37" width="1945.02" height="1480.61"/><rect class="cls-6" x="2301.4" y="336.68" width="1842.93" height="1364.71"/><path class="cls-7" d="M2966.87,689.3c-22.66.09-38.61,19.58-62,14.19-25.7-5.59-37.28-33.29-61.46-45.58-39.65-18.88-61.32,36-99.07,21.51-21.15-7.48-36.17-22-62.5-23.06-23.83-.88-48.07,6.7-64.2,21.57-10.46,9.6-18.21,26.86-31,33.26,1.63,2,417.54,0,417.54,0C2995.84,699.52,2981.71,689.27,2966.87,689.3Z"/><path class="cls-7" d="M3028.63,1089c-35.05,11.77-72.72,25.64-108,14.42-55.37-17.63-78.44-88.52-132.36-110.19-71.1-28.59-147.2,42.73-223.18,32.86-32.4-4.22-60.92-22.86-91.87-33.37-73.13-24.77-100.58,28.13-140.05,77.15-8.62,10.68-19.59,19.89-31.82,24.44v33.5h906.35c-24.06-12.18-48.07-34.57-71.47-41.74C3097.39,1074.19,3067.68,1075.89,3028.63,1089Z"/><rect class="cls-3" x="2704.1" y="336.68" width="17.27" height="1366.27"/><rect class="cls-3" x="3109.06" y="336.68" width="17.27" height="1366.27"/><rect class="cls-3" x="3514.01" y="336.68" width="17.27" height="1366.27"/><rect class="cls-7" x="3918.97" y="336.68" width="17.27" height="1366.27"/><path d="M3917,1704.94h21.27V334.68H3917Zm4-1366.26h13.27V1700.94H3921Z"/><rect class="cls-8" x="2295.17" y="784.65" width="1849.15" height="22.89"/><rect class="cls-8" x="2295.17" y="1222.33" width="1849.15" height="22.89"/><rect class="cls-5" x="747.08" y="246.13" width="1291.25" height="1480.61"/><rect class="cls-6" x="779.4" y="313.43" width="1223.47" height="1364.71"/><path class="cls-7" d="M1888.08,999.25c-46.1.19-78.56,39.84-126.17,28.87-52.3-11.38-75.84-67.73-125-92.73-80.66-38.41-124.75,73.32-201.57,43.76-43-15.23-73.57-44.78-127.14-46.92-48.48-1.79-97.79,13.63-130.62,43.9-21.28,19.53-37,54.63-63,67.65,3.31,4.13,849.48,0,849.48,0C1947,1020,1918.28,999.19,1888.08,999.25Z"/><rect class="cls-3" x="1198.46" y="313.43" width="17.27" height="1366.27"/><rect class="cls-3" x="1603.41" y="313.43" width="17.27" height="1366.27"/><rect class="cls-8" x="789.53" y="761.41" width="1215.57" height="22.89"/><rect class="cls-8" x="789.53" y="1205.9" width="1213.33" height="16.07"/></g><path class="cls-9" d="M1047.1,2430.79l45.64,268.55a4.56,4.56,0,0,0-1.15,2.8c0,12.47,64.91,22.58,145,22.58s145-10.11,145-22.58l52-271.35C1416.14,2389.06,1047.1,2430.79,1047.1,2430.79Z"/><g class="cls-10"><path class="cls-11" d="M1284.56,2586.7c-8.39,25.28-17.45,50.64-31.34,72-12.19,18.68-31.71,34.79-50.18,27.13-20.6-8.53-26.87-40-29.37-66.51a1879.52,1879.52,0,0,1-7.49-232.55c-11.93-11.82-31.15-.64-37.51,16.48s-4,37-2,55.61a939,939,0,0,1,2.56,169.5c-.5,6.58-1.71,14.29-6.6,17-7.86,4.4-14.72-8-17.35-18.14a882.84,882.84,0,0,1-28.17-218.89l-46.79-9.77c-4.7-1-9.81-1.89-14,.89-7.49,5-7.6,17.89-6.69,28.29q13.8,158.18,27.62,316.34c1.37,15.71,3.07,32.43,11.31,44.56,7.32,10.77,18.58,16.07,29.48,20.3a298.89,298.89,0,0,0,209.38,2.85c17.57-6.28,35.23-14.57,48.69-29.8,38.21-43.24,141.18-313.47,164.3-370.61l-164-12.06C1322.18,2463,1304.85,2525.56,1284.56,2586.7Z"/></g><path class="cls-11" d="M1018.51,2416.46c10.19,21.45,106.26,38.27,223.33,38.27s213.13-16.82,223.32-38.27l.95-61.41v-3.56l-448.54,3.56Z"/><ellipse class="cls-9" cx="1241.84" cy="2355.05" rx="224.27" ry="42.05"/><ellipse class="cls-12" cx="1245.93" cy="2355.05" rx="188.14" ry="24.03"/><path class="cls-13" d="M1141.7,2198.27c-100.11-97.43-130.8-90.76-214.92-125.47-53.48-22.09-59.45-23.64-29.57,2.89,17.08,15.18,45.92,39.54,84.31,74.52,105.47,96.13,94.78,77.44,153.51,116.15,40.8,26.89,70,50.53,84.46,65.62,6.41,6.65,9.92,11.63,10.32,14.47C1229.81,2346.45,1241.85,2295.74,1141.7,2198.27Z"/><path class="cls-14" d="M1141.7,2198.27c-100.11-97.43-130.8-90.76-214.92-125.47-53.48-22.09-59.45-23.64-29.57,2.89,59.46,38.84,168.37,95.48,210.4,125.56,36.27,25.95,83.55,89.77,111.88,130.73,6.41,6.65,9.92,11.63,10.32,14.47C1229.81,2346.45,1241.85,2295.74,1141.7,2198.27Z"/><path class="cls-15" d="M1533.76,2096.82c-7.78,3.21-15.09,6-22.06,8.68-68.33,25.68-102,28.36-192.87,116.82-100.11,97.44-88.11,148.18-88.11,148.18.41-2.9,4-7.94,10.51-14.66,14.53-15.1,43.67-38.66,84.28-65.44,58.73-38.73,48.06-20,153.51-116.14S1617.87,2062.1,1533.76,2096.82Z"/><path class="cls-14" d="M1230.72,2370.5c.41-2.9,4-7.94,10.51-14.66,14.18-28.58,31.79-60,44.18-68.25,24.12-16.08,163.51-131.35,199.78-163.43,6.21-5.5,15.46-11.88,26.51-18.66-68.33,25.68-102,28.36-192.87,116.82C1218.72,2319.76,1230.72,2370.5,1230.72,2370.5Z"/><path class="cls-15" d="M1269.51,1840.4c-46.88,108.68-81.56,130.33-86.41,312s52.38,218.07,52.38,218.07c-7.24-9.92-4-71.28,15.63-160.67s26.61-62.29,37.66-247.58S1316.38,1731.72,1269.51,1840.4Z"/><g class="cls-16"><path class="cls-13" d="M1295.59,1800.61q3.51-18.91,5.39-38.07Q1298.56,1781.61,1295.59,1800.61Z"/><path class="cls-13" d="M1313.16,1959c-16.43,3.28-32.1-11.31-36.36-27.51s-.29-33.3,3.37-49.65q9-40.35,15.42-81.22a444.48,444.48,0,0,1-33.4,105c-5.89,12.73-13.93,26.48-27.55,29.87-6.71,1.66-14,.52-20.43,3.12-11,4.46-15.18,18.43-13.42,30.18s7.81,22.36,11.49,33.66c12.68,39-7.42,85.78-44.39,103.43-6.64,3.17-14.8,6.9-15.43,14.22-.33,3.88,1.73,7.55,4,10.7,8.44,11.65,20.67,20.07,29.53,31.41,22.82,29.21,18.94,70.16,20.83,107.18a300.19,300.19,0,0,0,38.79,132.77c-25.51-63.36-14.44-134.8-3-202.14,2-11.61,4.09-23.59,10.57-33.42,6.18-9.38,15.55-15.71,25-22.09a13.43,13.43,0,0,1-3.78-1.14c-8.86-4.22-13.24-14.22-16.08-23.61C1240.64,2061.24,1260.18,1989.46,1313.16,1959Z"/><path class="cls-13" d="M1295.26,2131.51c-5.19,4.88-11.15,8.95-17.11,13C1286.58,2145.8,1296.49,2139.91,1295.26,2131.51Z"/><path class="cls-13" d="M1301.66,1755c-.2,2.5-.44,5-.68,7.51.24-2,.51-3.88.75-5.83Z"/></g><path class="cls-13" d="M1509.89,1914.85c-91.45,75.14-132.18,78.5-219.72,237.8s-53.31,217.84-53.31,217.84c-1.89-12.13,29.12-65.18,87.49-135.67s52.18-43.18,146.87-202.84S1601.34,1839.7,1509.89,1914.85Z"/><g class="cls-17"><path class="cls-15" d="M1259.5,2024.62c-12.51,12.51-99.6,321-99.6,321s117.47,138.23,90.87,62.79,33.74-155.08,51.61-183.67,187.15-78.85,126.69-71.13-65.93-55.75-23.47-64.69,139.34-69.12,139.34-69.12-99.6,11.94-105,8.37,32.17-48.25,78.63-78.63,62.3-81.9,65.49-81.18l11.35-51.06s-151.89,42.89-162.61,51.05S1272,2012.11,1259.5,2024.62Z"/></g><path class="cls-18" d="M2685.91,1987l-143.36,14.35s62.19,332.53,50.3,428.87-105.12,206.57-105.12,206.57h284.62s-103.48-120.76-117.75-208C2641,2345.65,2685.91,1987,2685.91,1987Z"/><g class="cls-19"><path class="cls-20" d="M2758.77,1987l-143.37,14.35s46.46,331.73,50.3,428.87c6.51,164.57-105.11,206.57-105.11,206.57h284.62s-103.49-120.76-117.76-208C2713.86,2345.65,2758.77,1987,2758.77,1987Z"/><path class="cls-21" d="M2575.54,1981.87,2526.67,1955a68.79,68.79,0,0,0-30,9.17c-5.59,3.24-11,7.5-14,13.65-3.75,7.78-3,17.18-1.85,25.91,11.92,89.74,56.74,170.19,75.45,258.51,13.48,63.64,13.07,129.75,12,195.1,46.93-70.54,52.72-164.52,46.47-251.8A1112,1112,0,0,0,2575.54,1981.87Z"/><path class="cls-21" d="M2569.27,2557.41c-15.06,23.87-30.87,48.52-53.74,63l-5.18,1.53c13.41,8.1,34,9.27,51.69,4.64,11-2.88,17.64-14.89,22.48-26.13a339.74,339.74,0,0,0,27.16-121.53c-3.14,16.14-11.88,30.15-20.42,43.68Z"/></g><path class="cls-22" d="M2912.56,1171.64c-148.64-92-496.51-14-550.27,16.73s3.16,351.32,0,365.27c0,0,37.95,290,37.95,343s-158.12,41.82-202.4,122.68,657.79,14,714.72-64.13S3061.19,1263.65,2912.56,1171.64Z"/><g class="cls-23"><path class="cls-24" d="M3005.59,1199.39l-31.56-6.58c-26.4-6.42-54.42,9.8-67.36,31.08s-14.4,46.33-15.58,70.45q-13,266.22-26.06,532.45c-1.7,34.66-4.23,71.54-27.28,99.67-15.45,18.86-38.55,31.62-61.76,42.69-153.52,73.16-339.95,90.73-507.53,47.81-33.22-8.51-74.36-17.6-98.1,4.58-20.66,19.31-13.73,51.43,2.41,73.84,23.88,33.15,63.75,55.58,106.16,67.57s87.52,14.41,132.06,14.44c171,.15,339.49-33.39,506.27-66.75,42.9-8.58,90.87-20.41,111.79-54.53,8.07-13.15,11-28.2,13.83-42.94,35.47-185.31,71.07-372.74,56.19-560.21C3091.91,1362.82,3070.84,1269.06,3005.59,1199.39Z"/></g><path class="cls-25" d="M2465,2543.63c-9.91-23.08-19-41.31-19-41.31l-103.2,13.75s-13.4,56.29-53.61,75.06c-8,3.75-15.81,6.78-23.13,9.41-29.35,10.53-51.65,14.71-55.94,33.18-2.76,12-3,29.33,1.63,43.4,4.34,13.11,13,23.32,27.85,23.51,10.08.13,40.64-4.51,77.12-12,63.69-13.16,145.45-35.17,167.72-56.13,4-3.75,6.09-7.48,5.79-11.12a97,97,0,0,0-2.6-14.77C2483.15,2588,2473.75,2563.92,2465,2543.63Z"/><path class="cls-7" d="M2266.14,2600.54c-29.35,10.53-51.65,14.71-55.94,33.18-5.36,23.08-1.34,66.53,29.48,66.91,10.08.13,40.64-4.51,77.12-12-3.38-18.12-8.39-38.79-15.47-54.87C2295,2619.3,2280.88,2608.42,2266.14,2600.54Z"/><path class="cls-7" d="M2492.3,2621.18a97.6,97.6,0,0,0-2.65-15.09c-3.85-15.74-11.52-37-22.78-63.25l-.57-1.33-1.45.13c-20,1.82-34.13,20.83-40.79,55-4.93,25.29-4.11,50.39-4.1,50.64l.09,2.43,65.45-15.4.39-.36c4.59-4.31,6.75-8.6,6.41-12.74Zm-8.77,9.46-59.62,14c-.13-15,1.06-93.47,39.87-98.87,10.86,25.39,18.25,46,22,61.25a95.64,95.64,0,0,1,2.55,14.46C2488.54,2624.26,2486.93,2627.34,2483.53,2630.64Z"/><path class="cls-26" d="M2487.71,2606.57c-35.41,12.27-124.59,43.26-150.19,52.67-24.74,9.11-94.73,15.47-125.69,17.88,4.34,13.11,13,23.32,27.85,23.51,10.08.13,40.64-4.51,77.12-12,75.16-15.55,175.44-43.37,173.51-67.25A97,97,0,0,0,2487.71,2606.57Z"/><path class="cls-25" d="M2660.78,2522.1c3.14-25.31-93.21-30.79-112.57,14.86,0,0,6.72,22.27-26.09,37.09h0a108.67,108.67,0,0,1-15.87,5.62c-45.8,12.53-72.66,36.29-69.71,72a74,74,0,0,0,2,11.86c10.43,42.39,89.39,27.83,131.12,26.75a119.43,119.43,0,0,0,17.86-1.71c27.4-4.81,38-18,63-20.77,8.64-1,12.88-11.45,14.59-26.51a8.34,8.34,0,0,0,.12-.91c1.73-16,.71-36.92-.8-57C2662.39,2557.06,2659.53,2532.22,2660.78,2522.1Z"/><path class="cls-7" d="M2522.12,2574.05h0a108.67,108.67,0,0,1-15.87,5.62c-45.8,12.53-72.66,36.29-69.71,72a74,74,0,0,0,2,11.86c10.43,42.39,89.39,27.83,131.12,26.75a119.43,119.43,0,0,0,17.86-1.71,164.92,164.92,0,0,0,4.2-23.38C2602.78,2566.6,2523.93,2573.86,2522.12,2574.05Z"/><path class="cls-7" d="M2666.2,2581.24l-2,.2a32.64,32.64,0,0,0-23.55,12.81c-7.16,9.26-11.07,23.09-11.63,41.11a142.15,142.15,0,0,0,1.29,24.2l.44,2.8,36.14-19.77.16-1c.05-.34.11-.68.13-1.05,1.84-17,.54-39.57-.79-57.3Zm-3,58.8-29.33,16.05c-1.11-9.73-3.55-42,9.92-59.39a28.5,28.5,0,0,1,18.74-11C2663.78,2602.85,2664.9,2624,2663.19,2640Z"/><path class="cls-26" d="M2497.67,2643.31c-24.93-7.3-47,.44-61.16,8.38a74,74,0,0,0,2,11.86c10.43,42.39,89.39,27.83,131.12,26.75s51.07-19.22,80.86-22.48c8.81-1,13.05-11.87,14.71-27.42-12.59,3.68-33.61,17.75-54.7,23C2581.74,2670.45,2541.11,2656,2497.67,2643.31Z"/><path class="cls-27" d="M2461.64,1717.28s-171,93.82-209.9,187.63S2340,2537.52,2340,2537.52l119.79-16.09-19-514.66s13.4-9.34,12.06-30.13,108.64-69,108.64-69,5.81,75.05-5.17,155.47-17.87,474.45-17.87,474.45H2664s54.31-534.55,83.28-579,31.19-43.81,36.55-86.24-42.07-210.55-42.07-210.55S2463.79,1666.35,2461.64,1717.28Z"/><g class="cls-28"><path class="cls-29" d="M2461.72,1926.84a147.64,147.64,0,0,1-70.32,29.26c-9.54,1.27-22.8,6.92-19,15.77,1.53,3.57,5.49,5.35,9.15,6.67a160.14,160.14,0,0,0,38.1,8.67c-7.9,1.56-13.3,9.42-14.6,17.37s.62,16,2.5,23.86a2707.73,2707.73,0,0,1,52.31,283.67c-1-55.43,18.68-108.83,30.45-163,14.08-64.76,17.79-134.23,53.21-190.26l10.29-29.06a479.54,479.54,0,0,1,45.53-112.89,363.44,363.44,0,0,0-93.17,67C2491.52,1898.4,2478.05,1914.25,2461.72,1926.84Z"/><path class="cls-29" d="M2307.74,2494.86l-10.28,40.8a117.83,117.83,0,0,0,160.77,9.32c12.16-10.13,22.46-23.16,26.6-38.44s1.28-32.95-9.68-44.37A856.5,856.5,0,0,1,2307.74,2494.86Z"/><path class="cls-29" d="M2694.85,2486.85c-3.3-2.87-8-3.44-12.34-3.78-53.52-4.1-108.18,8-160.61-3.56l-20.55,54.5c-6.71,4-5.88,14.84-.37,20.41s13.71,7.28,21.41,8.74l66.83,12.69c23.55,4.47,49.14,8.67,70.48-2.25,24.3-12.44,35.75-41.11,39.21-68.19C2699.75,2498.86,2699.83,2491.19,2694.85,2486.85Z"/></g><path class="cls-30" d="M2659.63,1183.4l-131.3,33.51s-90.08,20.56-113.42,55.4-84.09,284-84.09,284l112.58,18.9L2472,1698.06h278.78l10.72-112.49,141.17-54.77s-32.16-225.43-66.12-268.32S2659.63,1183.4,2659.63,1183.4Z"/><g class="cls-31"><path class="cls-32" d="M2492,1669.32c-6.64-6.16-9.45-15.32-11.73-24.09-25.44-98-17.79-201.09-22.43-302.26-.42,56-1.12,113.49-21.69,165.58-4.19,10.6-9.53,21.33-18.76,28-10.27,7.45-23.69,8.73-36.37,8.82a260.12,260.12,0,0,1-62.15-7.09L2275.63,1577c2.73,12.88,18.41,17.11,30.59,22.09a80.13,80.13,0,0,1,43.9,44.79c9.87,25.63,6.72,56.76,24.17,78,16.8,20.42,46.34,23.84,72.76,24.63,25.6.76,51.21.47,76.81.18,88.46-1,180.09-2.69,260.08-40.45q-132.14-9.17-263.5-26.83C2510.29,1678,2499.46,1676.28,2492,1669.32Z"/><path class="cls-32" d="M2879,1510.25l-71.09,21.41c-4.58,1.38-9.52,2.76-14,1.23-5.55-1.86-8.83-7.47-11.24-12.8-6.85-15.1-10.74-31.34-14.6-47.47q-11.88-49.63-23.77-99.28c10.81,74.3,8.75,149.11,15.62,224.18l26.23,10c-1.76,3.33,1.29,7.58,5,8.46s7.46-.53,11-2a369.06,369.06,0,0,0,148.3-112.41C2926.69,1496.21,2902.2,1503.26,2879,1510.25Z"/><path class="cls-32" d="M2564.31,1157.94l-15,42c9.74,32.18-16.7,66.26-21,102.68,15.26-19.28,47.45-27.33,66.5-42.88,1.8-1.48,3.81-3,6.13-3s4.33,1.35,6.18,2.7c24.83,18,44.09,12.8,68.91,30.75,8.06-27.4,5.9-43,14-70.41,6.49-22,28.82-33.34,27.54-56.3A439.71,439.71,0,0,1,2564.31,1157.94Z"/></g><path class="cls-7" d="M2603.22,1578.87c-4.8-78.63-25.34-171.13-25.34-171.13L2394.63,1454l-33.64,18.5,60.13,210.91s13.7,48.1,23,72.76l9.34,24.67s58.4-70.8,124.38-73.83,89.9,0,89.9,0S2608,1657.49,2603.22,1578.87Z"/><g class="cls-33"><path class="cls-34" d="M2573.8,1610.94c-28.64-13.08-62.86-7.21-92.23-18.58-33.2-12.85-54.23-45-73-75.22l-42.64-68.57-23.52,83.84c-11.41,48.5-8.24,99.35.09,148.48s21.7,97.28,30.7,146.29c.81,4.42,1.7,9.09,4.65,12.48,5.47,6.29,15.31,5.56,23.48,3.9,56.36-11.44,106.88-41.38,159.06-65.55a824.75,824.75,0,0,1,148-52.08c-23-14.37-46.24-28.93-65.25-48.27C2620.48,1654.6,2603.21,1624.37,2573.8,1610.94Z"/></g><path class="cls-35" d="M2511.57,1611c-12.34-6.17-100.73.21-112,13.58-2.1,2.48-14.39,53.44,10.28,76.05s89.41-21.5,105.86-34.86S2523.9,1617.2,2511.57,1611Z"/><path class="cls-36" d="M2500.58,1627.3c-2.52.58-5.07,1.08-7.62,1.55l-7.64,1.43-7.66,1.33-7.69,1.21c-5.13.76-10.28,1.47-15.46,2l.77,3.93c5-1.48,10-2.76,15.06-4l7.58-1.78,7.6-1.66,7.62-1.56c2.54-.53,5.08-1,7.64-1.44a104.34,104.34,0,0,1,15.55-1.52l-.77-3.93A104.39,104.39,0,0,1,2500.58,1627.3Z"/><path class="cls-36" d="M2505.45,1642.77c-2.53.58-5.07,1.08-7.62,1.55l-7.65,1.43-7.66,1.33-7.69,1.21c-5.13.76-10.28,1.47-15.46,2l.77,3.93c5-1.48,10-2.77,15.07-4l7.57-1.78,7.6-1.66,7.62-1.56c2.54-.53,5.08-1,7.64-1.44a104.34,104.34,0,0,1,15.55-1.52l-.77-3.93A104.27,104.27,0,0,1,2505.45,1642.77Z"/><path class="cls-36" d="M2507.33,1658.24c-2.53.58-5.07,1.08-7.62,1.55l-7.65,1.43-7.66,1.33-7.69,1.21c-5.13.76-10.27,1.47-15.46,2l.77,3.93c5-1.48,10-2.77,15.07-4l7.57-1.77,7.6-1.66,7.62-1.57c2.54-.52,5.08-1,7.64-1.43a105.69,105.69,0,0,1,15.55-1.53l-.76-3.92A104.77,104.77,0,0,1,2507.33,1658.24Z"/><polygon class="cls-7" points="2574.75 1183.4 2528.32 1216.91 2525.82 1290.18 2585.47 1256.23 2664 1282.14 2683.76 1183.4 2641.97 1168.27 2574.75 1183.4"/><path class="cls-37" d="M2635.09,921.16s-11.46-37.52-70.18-46.46-26.53,8.94-26.53,8.94c-31.08,17.43-69.89,12.64-70,36.63-63.87,23.23-56.29,63.44-48.25,67s29.49-23.23,29.49-23.23-43.79,84,21.44,85.78,183.17,18.11,183.17,18.11,31.27-15.9,16.08-37.11c12.51-23-6.35-50.69-6.35-50.69S2705.26,956.9,2635.09,921.16Z"/><g class="cls-38"><path class="cls-39" d="M2407,962.43l.53-10.79C2405.14,954.86,2405.3,958.88,2407,962.43Z"/><path class="cls-39" d="M2675.59,990.55c-4.17-4.27-10-8.91-15.45-6.5,3.82,9.05,6.86,21.35-1,27.18-6.14,4.53-15.14,1.53-20.86-3.53s-9.72-11.9-15.78-16.56c-14.17-10.9-34.48-6.75-51.37-.88q-17.25,6-33.86,13.65c-10.5,4.84-21,10.23-32.44,11.88s-24.33-1.22-31.44-10.34c-6.1-7.83-6.82-18.6-5.69-28.46s3.86-19.58,3.69-29.5a7.66,7.66,0,0,0-1-4.36c-2.11-3-6.87-2-10-.07-7.49,4.51-12.85,11.76-19.15,17.83s-14.62,11.28-23.27,10a15.19,15.19,0,0,1-10.88-8.43l-4.27,88c5.58,11.1,16.53,18.44,27.62,24,35.15,17.7,75.36,22.47,114.69,23.64,23.37.7,46.78.23,70.1-1.4,23.93-1.68,48.84-5,68.62-18.52,9.33-6.39,17.43-15.36,20.26-26.3,2.95-11.44-.18-23.76-6-34S2683.83,999,2675.59,990.55Z"/></g><path class="cls-35" d="M2654.6,1088.61c12.65-14.9,12.52-35.81-.3-46.7-9.45-8-23.15-8.35-34.77-2-3.12-11.93-5.47-20.45-5.47-20.45s-36.82,5.94-51.25-5.88a1.44,1.44,0,0,0-2.23,1.67c2.74,6.43,9,11.36,9,11.36s-87-.9-77.51-46.46c0,0-26.28,14.29-31.64,45.56s4.64,39.35,9.11,58,4,107.23,95.27,71.55c4.77,19.77,0,67.08,0,67.08s21.17,24.12,31.22,23.23,63.65-62.11,63.65-62.11-23.17-54.94-24.54-73.71c-.15-2.12-.55-5-1.13-8.26A38.7,38.7,0,0,0,2654.6,1088.61Z"/><g class="cls-40"><path class="cls-36" d="M2607.25,974.7c-17-14.66-37.24-25.87-59.23-30.23s-45.71-1.49-65,9.91l8.06,22.63c1.71,12.69,3.77,26.18,12.23,35.79,8.87,10.1,22.89,13.72,36.13,16a345.61,345.61,0,0,0,43.16,4.84,9.73,9.73,0,0,0-4.52-9l37.9,15.16c6.77-9.76,12.7-21.07,11.63-32.9C2626.45,994,2617.12,983.23,2607.25,974.7Z"/><path class="cls-36" d="M2598.39,1134.64a5.25,5.25,0,0,0-3.54,1.15c-15.33,9.64-30.23,22-48.26,23.66L2527,1180.64c-1,4.62,2.11,9.39,6.28,11.63s9.11,2.47,13.84,2.28c15-.6,30.33-5.14,41.47-15.23s17.29-26.32,13-40.72C2601.09,1136.88,2600.15,1135,2598.39,1134.64Z"/></g><path class="cls-36" d="M2514.82,1094.79c.74,9.35,11.22,1.49,13.31,1.16s-13.57-28-13.57-28S2514.26,1087.66,2514.82,1094.79Z"/><path class="cls-36" d="M2556.56,1114.16a4.16,4.16,0,0,0-1.92-2,3.9,3.9,0,0,0-1.36-.38,5.73,5.73,0,0,0-1.32.07,10.51,10.51,0,0,0-2.26.79l-1.92.86-2,.73a61.12,61.12,0,0,1-8.26,2,40.46,40.46,0,0,1-8.51.83,31.08,31.08,0,0,1-4.3-.38,18.33,18.33,0,0,1-4.22-1.15,3.16,3.16,0,1,0-.12,5.85l.11,0a50.68,50.68,0,0,1,8.69-2.38c2.86-.58,5.73-.88,8.58-1.36a73.5,73.5,0,0,0,8.5-1.93l2.09-.67,2.06-.8a8.16,8.16,0,0,1,1.83-.55,2.29,2.29,0,0,1,1.5.22,2.18,2.18,0,0,1,.95,1.12,4.15,4.15,0,0,1,.27.82,9.25,9.25,0,0,1,.12.92,12,12,0,0,1-.49,3.86,16.83,16.83,0,0,1-3.87,6.88,14.39,14.39,0,0,1-2.94,2.48,12.68,12.68,0,0,1-10.63,1.37,2.77,2.77,0,0,0-.64-.11,3,3,0,1,0-.39,6h.06a20.58,20.58,0,0,0,9.75-1.59,18.73,18.73,0,0,0,7.4-6,20.32,20.32,0,0,0,2.32-4,19.76,19.76,0,0,0,1.42-4.39,14.62,14.62,0,0,0,.21-4.68A8.08,8.08,0,0,0,2556.56,1114.16Z"/><path class="cls-41" d="M2557.67,1051.44c-3,0-5.37,4-5.33,8.81s2.49,8.74,5.47,8.72,5.37-4,5.34-8.81S2560.66,1051.42,2557.67,1051.44Z"/><path class="cls-7" d="M2559.27,1054.23c-1.49,0-2.68,2-2.66,4.4s1.24,4.37,2.73,4.36,2.69-2,2.67-4.4S2560.77,1054.21,2559.27,1054.23Z"/><path class="cls-41" d="M2567.42,1031.28c-.85-.46-1.75-.83-2.65-1.22a26.9,26.9,0,0,0-2.86-.83,16,16,0,0,0-3-.34,12,12,0,0,0-6.14,1.33,9.25,9.25,0,0,0-2.53,2,7,7,0,0,0-1.6,2.8.81.81,0,0,0,.11.64.76.76,0,0,0,1.07.21l.17-.11a20.56,20.56,0,0,1,2.1-1.27,15.71,15.71,0,0,1,6.82-1.65,28.17,28.17,0,0,1,5,.38c.85.18,1.72.33,2.61.49s1.76.41,2.69.55h.06a.78.78,0,0,0,.75-.32.77.77,0,0,0-.17-1.08C2569.07,1032.29,2568.25,1031.78,2567.42,1031.28Z"/><path class="cls-41" d="M2490.49,1056c-2.94.52-4.64,4.81-3.79,9.57s3.92,8.21,6.86,7.68,4.63-4.81,3.78-9.57S2493.42,1055.51,2490.49,1056Z"/><path class="cls-7" d="M2492.53,1058.5c-1.47.26-2.32,2.41-1.89,4.79s2,4.1,3.42,3.84,2.32-2.41,1.9-4.79S2494,1058.24,2492.53,1058.5Z"/><path class="cls-41" d="M2499.37,1035.66c-.86-.42-1.75-.8-2.66-1.14s-1.87-.53-2.82-.77a28.5,28.5,0,0,0-3-.33,16.37,16.37,0,0,0-3,.17,12,12,0,0,0-5.83,2.34,9.27,9.27,0,0,0-2.16,2.39,7,7,0,0,0-1.1,3,.71.71,0,0,0,.21.61.76.76,0,0,0,1.09,0l.14-.14a18.82,18.82,0,0,1,1.87-1.6,16.11,16.11,0,0,1,2-1.25,16.36,16.36,0,0,1,4.45-1.52,28,28,0,0,1,5-.47c.88,0,1.76,0,2.66,0a27.36,27.36,0,0,0,2.74.09h.06a.76.76,0,0,0,.69-.43A.79.79,0,0,0,2499.37,1035.66Z"/><path class="cls-36" d="M2581.71,1073.76a15.61,15.61,0,1,0,14.21,16.9A15.59,15.59,0,0,0,2581.71,1073.76Z"/><path class="cls-36" d="M2640,1058.87a9.31,9.31,0,0,0-2.75-.46,20.08,20.08,0,0,0-4.81.55,32.42,32.42,0,0,0-4.47,1.34,3.74,3.74,0,0,0-.45.22,3,3,0,1,0,3,5.19l0,0a21.71,21.71,0,0,1,6.85-2.74,5.1,5.1,0,0,1,1.43-.06,1.72,1.72,0,0,1,.83.27,1.51,1.51,0,0,1,.51.95,3.48,3.48,0,0,1,.05,1.44,6.63,6.63,0,0,1-1.68,3,18.28,18.28,0,0,1-3,2.62,37.9,37.9,0,0,1-7.36,3.94.07.07,0,0,0,0,.09.07.07,0,0,0,.09.06,39,39,0,0,0,8.13-2.69,20.33,20.33,0,0,0,3.81-2.3,9.43,9.43,0,0,0,3-3.85,6.83,6.83,0,0,0,.44-2.74,5.1,5.1,0,0,0-3.65-4.85Z"/><path class="cls-42" d="M2511.44,1069.62a23.39,23.39,0,0,0-7.94-5.55,34.87,34.87,0,0,0-9.16-2.63,46.17,46.17,0,0,0-9.47-.45,43.09,43.09,0,0,0-9.34,1.61,34.68,34.68,0,0,0-8.75,3.81,23.86,23.86,0,0,0-7.14,6.56,15.8,15.8,0,0,0-2.95,9.53,16,16,0,0,0,3.84,9.34,24.11,24.11,0,0,0,7.88,6.05,39.18,39.18,0,0,0,19.07,3.56,37.77,37.77,0,0,0,18.47-6,24.56,24.56,0,0,0,7-7,16,16,0,0,0,2.61-9.75A15.74,15.74,0,0,0,2511.44,1069.62Zm-1.08,17.08a20.94,20.94,0,0,1-6.37,5.75,32.19,32.19,0,0,1-8.06,3.45,43.38,43.38,0,0,1-8.7,1.56,36.88,36.88,0,0,1-17.29-2.79,21.32,21.32,0,0,1-7-4.91,12.1,12.1,0,0,1-1.33-15.5,21.18,21.18,0,0,1,6.25-6.22,36.25,36.25,0,0,1,17.14-5.55,35,35,0,0,1,17.73,3.27,21.5,21.5,0,0,1,7,5.4,13.2,13.2,0,0,1,3.17,7.71A13,13,0,0,1,2510.36,1086.7Z"/><path class="cls-42" d="M2590.8,1064.5a23.53,23.53,0,0,0-8-5.55,34.77,34.77,0,0,0-9.16-2.63,46.1,46.1,0,0,0-9.46-.45,43.08,43.08,0,0,0-9.35,1.61,34.68,34.68,0,0,0-8.75,3.81,23.86,23.86,0,0,0-7.14,6.56,15.8,15.8,0,0,0-2.95,9.53,16,16,0,0,0,3.84,9.34,24,24,0,0,0,7.89,6,39,39,0,0,0,19.07,3.56,37.8,37.8,0,0,0,18.47-6,24.28,24.28,0,0,0,7-7,16,16,0,0,0,2.61-9.75A15.79,15.79,0,0,0,2590.8,1064.5Zm-1.09,17.09a21,21,0,0,1-6.37,5.74,31.92,31.92,0,0,1-8.05,3.45,43.47,43.47,0,0,1-8.71,1.56,36.9,36.9,0,0,1-17.29-2.79,21.17,21.17,0,0,1-7-4.91,13,13,0,0,1-3.48-7.44,13.12,13.12,0,0,1,2.15-8.06,21.14,21.14,0,0,1,6.24-6.22,36.29,36.29,0,0,1,17.14-5.55,35.09,35.09,0,0,1,17.73,3.27,21.53,21.53,0,0,1,7,5.41,12.08,12.08,0,0,1,.69,15.54Z"/><path class="cls-42" d="M2532.72,1071.47a13.85,13.85,0,0,0-3.46-1.92,11.7,11.7,0,0,0-4.1-.7,10.85,10.85,0,0,0-7.44,3.26,12.33,12.33,0,0,0-3.5,6.67,33.46,33.46,0,0,1,5.45-4.21,11.11,11.11,0,0,1,5.58-1.72,11.51,11.51,0,0,1,2.88.32,20.25,20.25,0,0,1,3,1c2,.83,4,2,6.29,3.11A15.44,15.44,0,0,0,2532.72,1071.47Z"/><path class="cls-41" d="M2557,1007.77h0a50.36,50.36,0,0,1-15.2-8.75,45.56,45.56,0,0,1-6.09-6.4,46.51,46.51,0,0,1-4.7-7.55,55.11,55.11,0,0,1-5.14-17.17,66.31,66.31,0,0,1-.05-18.13,67.1,67.1,0,0,0-.95,18.24,56.85,56.85,0,0,0,4.32,17.9,48.59,48.59,0,0,0,4.5,8.18,47.67,47.67,0,0,0,6.09,7.15,54,54,0,0,0,15.74,10.25l.1,0a2,2,0,0,0,1.4-3.75Z"/><path class="cls-41" d="M2632.4,980.19a51.53,51.53,0,0,0-7.66-10.27,60.78,60.78,0,0,0-9.67-8.19,79.9,79.9,0,0,0-10.86-6.34,122.94,122.94,0,0,0-23.47-8.51,152.34,152.34,0,0,0-24.49-4.27,151.47,151.47,0,0,1,24.22,5.24,121,121,0,0,1,22.82,9.31,78.48,78.48,0,0,1,10.31,6.6,58.47,58.47,0,0,1,8.94,8.19,48.91,48.91,0,0,1,6.77,9.88,47.15,47.15,0,0,1,3.83,11.23v.07s0,0,0,.06a2,2,0,0,0,3.89-1A50.56,50.56,0,0,0,2632.4,980.19Z"/><path class="cls-35" d="M2787.54,1575.46l17.59,83.79s-21.45,17.42-43.17,11.21-60-31.32-91.4-43.82-45-10.28-83.64-8.94-29.74,38.87-24.12,52.76,33.25,11.57,60.5,25,41.1,14.75,41.1,14.75,113.92,99.18,211.76,68.56S2897,1533,2897,1533Z"/><g class="cls-43"><path class="cls-36" d="M2891.15,1667.13c-16-8.61-33.37-14.19-49.67-22.15s-32-18.93-40.55-34.91c-12.78-23.79-7.45-53.67-17.91-78.56-20.48,11.36-27.72,37.32-28.64,60.71s2.4,47.54-5,69.74l8,.81c23.69,18.23,57.25,11.18,86.94,14.6a117.88,117.88,0,0,1,60.61,25.6c6.32-4.41,7-14.06,3.42-20.87S2897.94,1670.79,2891.15,1667.13Z"/></g><path class="cls-36" d="M2610,1670.53c-2.58-.31-5.14-.7-7.7-1.12l-7.67-1.24-7.66-1.34-7.65-1.46c-5.09-1-10.17-2.1-15.22-3.36l-.6,4c5.2.3,10.37.79,15.53,1.34l7.73.89,7.71,1,7.7,1.11c2.56.36,5.13.76,7.68,1.23a106.58,106.58,0,0,1,15.14,3.83l.61-4A105.07,105.07,0,0,1,2610,1670.53Z"/><path class="cls-36" d="M2607.69,1650.77c-2.58-.32-5.14-.7-7.7-1.12l-7.67-1.24-7.67-1.35-7.64-1.46c-5.09-1-10.17-2.09-15.22-3.36l-.6,4c5.2.3,10.37.79,15.53,1.34l7.73.89,7.71,1,7.7,1.11c2.56.36,5.12.76,7.68,1.23a105.21,105.21,0,0,1,15.14,3.82l.61-3.95A106.44,106.44,0,0,1,2607.69,1650.77Z"/><path class="cls-36" d="M2604.71,1636.15c-2.39-.31-4.77-.7-7.14-1.12l-7.13-1.24-7.11-1.34-7.09-1.46c-4.72-1-9.43-2.09-14.11-3.36l-.65,3.94c4.84.3,9.65.8,14.44,1.34l7.19.89,7.16,1,7.15,1.11c2.39.36,4.76.76,7.13,1.23a90.84,90.84,0,0,1,14,3.82l.65-4A91.06,91.06,0,0,1,2604.71,1636.15Z"/><rect class="cls-29" x="2304.18" y="2067.68" width="11.87" height="40.7" rx="2.33"/><rect class="cls-29" x="2666.06" y="1864.2" width="2.48" height="35.61" rx="0.49"/><rect class="cls-29" x="2646.16" y="2088.03" width="9.04" height="53.65" rx="1.78"/><rect class="cls-29" x="2590.36" y="2150.31" width="4.14" height="24.2" rx="0.81"/><path class="cls-18" d="M3292.43,1977.83l-143.36,15.06s62.19,349.19,50.3,450.35-105.12,216.92-105.12,216.92h284.62s-103.48-126.81-117.76-218.43C3247.52,2354.47,3292.43,1977.83,3292.43,1977.83Z"/><g class="cls-44"><path class="cls-20" d="M3365.29,1977.83l-143.37,15.06s46.46,348.35,50.3,450.35c6.51,172.82-105.11,216.92-105.11,216.92h284.62S3348.24,2533.35,3334,2441.73C3320.38,2354.47,3365.29,1977.83,3365.29,1977.83Z"/><path class="cls-21" d="M3182.05,1972.47l-48.86-28.18a66.66,66.66,0,0,0-30,9.63c-5.58,3.4-11,7.87-14,14.33-3.75,8.18-3,18-1.85,27.21,11.92,94.24,56.74,178.72,75.45,271.47,13.48,66.82,13.07,136.24,12,204.86,46.93-74.07,52.71-172.76,46.46-264.4A1220,1220,0,0,0,3182.05,1972.47Z"/><path class="cls-21" d="M3175.79,2576.84c-15.06,25.07-30.87,50.94-53.74,66.11l-5.18,1.61c13.41,8.5,34,9.73,51.68,4.87,11-3,17.65-15.64,22.49-27.44a371.79,371.79,0,0,0,27.16-127.61c-3.14,16.94-11.88,31.65-20.42,45.87Z"/></g><path class="cls-45" d="M3492.93,1251.11c-121.73-81.63-406.63-12.36-450.66,14.85s2.59,311.67,0,324c0,0,31.08,257.26,31.08,304.26s-129.5,37.1-165.76,108.84,538.72,12.36,585.34-56.9S3614.66,1332.74,3492.93,1251.11Z"/><path class="cls-46" d="M3370.1,1324.47c-85.51-63.64-285.65-9.64-316.58,11.57s1.82,243,0,252.64c0,0,21.83,200.57,21.83,237.22s-91,28.92-116.44,84.85,378.44,9.65,411.19-44.35S3455.61,1388.11,3370.1,1324.47Z"/><g class="cls-47"><path class="cls-48" d="M3569.13,1275.73l-25.85-5.83c-21.62-5.69-44.57,8.69-55.17,27.57s-11.79,41.1-12.76,62.5q-10.67,236.17-21.34,472.36c-1.39,30.75-3.46,63.47-22.34,88.42-12.66,16.73-31.57,28-50.59,37.87-125.72,64.91-278.41,80.49-415.66,42.41-27.2-7.54-60.9-15.61-80.34,4.07-16.92,17.13-11.24,45.62,2,65.5,19.55,29.41,52.2,49.31,86.94,60s71.68,12.78,108.15,12.81c140.06.13,278-29.62,414.64-59.22,35.13-7.61,74.42-18.11,91.55-48.37,6.61-11.67,9-25,11.33-38.1,29-164.4,58.21-330.67,46-497C3639.82,1420.72,3622.57,1337.54,3569.13,1275.73Z"/></g><path class="cls-49" d="M2864.35,2519.09s-31.92,60.76-135.57,78.63-60.76,76.84,32.17,66.12,180.49-7.15,187.63-34,0-124.94,0-124.94Z"/><path class="cls-36" d="M2850.3,2540.53c-23.23,23.23-79,44.68-69,48.25s138.67-25,167.26-55.39V2431.53H2850.3S2873.53,2517.3,2850.3,2540.53Z"/><path class="cls-50" d="M2905.46,2543.06s-31.93,60.76-135.58,78.63-60.76,76.84,32.17,66.11,180.49-7.14,187.64-34,0-124.94,0-124.94Z"/><path class="cls-35" d="M2891.4,2564.5c-23.23,23.23-79,44.68-69,48.25s138.67-25,167.27-55.4V2455.49H2891.4S2914.63,2541.27,2891.4,2564.5Z"/><path class="cls-51" d="M3104.05,1640.62s-262.69,196.57-334.17,271.62,26.81,529,26.81,529l39.31,14.29v26.81c84,21.44,245.52-16.08,245.52-16.08s-2.48-134,0-193,8.24-243,1.09-260.91,23.23-42.88,23.23-42.88,223.38-66.12,240.17-148.33-52.53-216.22-52.53-216.22Z"/><g class="cls-52"><path class="cls-53" d="M2829.58,2086.06c-12.34,120.84-24.72,242-50.44,360.68l-3,18c7.81,9.3,19,16.08,31.17,16.84s24.84-5.2,30.59-15.89c5.07-9.44,4.32-20.81,3.48-31.5Q2827.67,2260.51,2829.58,2086.06Z"/></g><path class="cls-36" d="M3025.35,1492.29,2940.49,1621,2785,1724.61s-32.17-17.88-71.49,32.16H2844s168.78-70.18,197-103.89,101.46-133.78,101.46-133.78S3101.27,1448.51,3025.35,1492.29Z"/><path class="cls-7" d="M3209.74,1219.77l-53.42,25.47s-91.13,42.89-116.6,69.69-32.16,202.38-32.16,202.38,57.63,14.74,64.33,18.77S3083.53,1650,3083.53,1650s112.46,6.7,148.92,0,74-18.77,74-18.77L3290.35,1520s66.62-115.84,54.09-169.16S3209.74,1219.77,3209.74,1219.77Z"/><g class="cls-54"><path class="cls-55" d="M3265.56,1512.17a7,7,0,0,0-3-.35c-2.1.36-3.44,2.38-4.52,4.21a652.23,652.23,0,0,1-132.57,158.85l23,11c0,6.15,5,11.41,10.8,13.57s12.12,1.91,18.27,1.6c41.35-2,83.4-4.78,122.1-19.48,14.14-5.37,28.45-13,36-26.09,12.54-21.68,2.32-48.9-8-71.71C3314.16,1554,3297,1521,3265.56,1512.17Z"/><path class="cls-55" d="M3057.47,1456.17c.1-13.57,3.68-26.84,7.23-39.94l14.34-52.88-2.71-1A211.41,211.41,0,0,0,3039,1469.71c-.42,6.82-.71,14.23-5.1,19.47-3.1,3.71-7.76,5.67-12.18,7.63a253.89,253.89,0,0,0-32.29,17.17c-3.06,1.92-6.37,4.33-6.91,7.91-.4,2.67.87,5.28,2.27,7.59,11.85,19.43,34.21,29.62,55.86,36.65,6.46,2.09,13.16,4.1,18.39,8.42,6.19,5.1,9.56,12.8,12.17,20.38a165.61,165.61,0,0,1,8.24,38.62c-.07-42.18-1.86-84.42-12-125.24C3063.15,1491.09,3057.34,1473.92,3057.47,1456.17Z"/><path class="cls-55" d="M3079.29,1665.44a165.75,165.75,0,0,0,.17-31.89C3079.47,1644.19,3079.38,1654.83,3079.29,1665.44Z"/></g><path class="cls-56" d="M3316.71,956.19c-45.57-8.94-57.19,8.93-57.19,8.93s-8-14.29-20.55,0-14.29,42-14.29,42l-14.94-10.72s-29.74-21.45-86-18.77-81.31,44.23-93.82,75.28,29.49,61.43,40.21,65,120.62,56.3,120.62,56.3,127.78-56.3,78.63-130.46C3355.13,1015.16,3362.28,965.12,3316.71,956.19Z"/><g class="cls-57"><path class="cls-58" d="M3345.78,972.82a61.11,61.11,0,0,0-44.34-2.49c-2,.66-4.05,1.52-5.17,3.28-2,3.08-.09,7,.68,10.61,2,9.48-4.55,18.86-12.5,24.39-4.16,2.9-9.08,5.19-14.13,4.69s-10-4.66-9.82-9.72c.11-4.41,3.66-7.83,6.17-11.46s3.73-9.34.14-11.9c-1.8-1.28-4.23-1.24-6.38-.75-8.83,2-14.83,10.81-16.43,19.74s.31,18.06,2.21,26.93c0,0,15.66,6.2,22.44,14.43,3.6,4.38,6.94,9.89,12.51,10.92,2.51.47,5.08-.09,7.56-.65l13.5-3c7.64-1.71,15.4-3.46,22.24-7.26,19.57-10.84,27-35.57,27-57.93,0-2.44-.12-5.06-1.61-7A10.6,10.6,0,0,0,3345.78,972.82Z"/><path class="cls-58" d="M3235.51,1098.41c-5.56-4-13.2-2.18-19.87-.6-34.76,8.25-72.37,5-104.61-10.42-21.15-10.09-41-25.48-64.43-26.56-10.69-.5-21.95,2.45-29.52,10l98.22,104.45c9.4,13.29,27,18.86,43.23,17.75s31.51-7.9,46.1-15.13c8.91-4.41,17.87-9.13,25-16.1,14.12-13.86,19-36.37,11.75-54.81C3240.08,1103.72,3238.36,1100.46,3235.51,1098.41Z"/></g><path class="cls-35" d="M3187.51,1118.22c-.32.22-.61.46-.92.69a40.37,40.37,0,0,1-11.5-11.41c-13.41-20.41-20.78-54.59-20.78-54.59s-24.24,28.82-46.29,34.18l1.56-14.74s-35.68,24.79-53.11,10.72c0,0-4.69,23.92-4,45.13s5.36,29.25,4,32.6-3.54,13.41.24,14.08,6.47,83.09,79.51,51.6c3.35,33.5,4,30.82,0,38.86s-16.07,91.81-4,85.11,89.13-100.52,87.79-117.94-20-44.23-17.4-57c.43-2,1.08-4.64,1.86-7.56a35.22,35.22,0,0,0,13.22-5.52c14.23-9.69,19-27.46,10.68-39.68S3201.74,1108.52,3187.51,1118.22Z"/><g class="cls-59"><path class="cls-36" d="M3164.69,1019.2c-11.77-8.37-27.5-8.54-41.76-6.22a144.07,144.07,0,0,0-60.55,25c-8.65,6.2-16.94,13.87-20.23,24l6.52,18.7c13.34,11.71,34.53,13.35,49.51,3.82,3.07,8.59,14.38,11.71,23.06,8.9s15.26-9.77,21.44-16.47c14.25,17,29.56,34.65,50.52,41.84q-3.43-24.74-6.86-49.47C3183.77,1050.74,3180,1030.06,3164.69,1019.2Z"/><path class="cls-36" d="M3123.94,1230.08l-1.82,18.7c4.43,3.87,11.29,3.08,16.72.8a39.94,39.94,0,0,0,23.86-37C3150.63,1220.22,3138.08,1228,3123.94,1230.08Z"/><path class="cls-36" d="M3045.2,1174a9,9,0,0,0,17.58,2.09c1.75-6-3-11.86-7.44-16.26Z"/></g><path class="cls-36" d="M3117.79,1182.58a5,5,0,0,0-2.46-.43,8.34,8.34,0,0,0-2.22.47l-1.88.64c-1.26.38-2.53.76-3.83,1a71.32,71.32,0,0,1-7.87,1.29,41.93,41.93,0,0,1-8,.34,29,29,0,0,1-4-.55,17,17,0,0,1-3.93-1.26,3.19,3.19,0,0,0-4.36,4,3.19,3.19,0,0,0,4.13,1.82l.1,0a38.89,38.89,0,0,1,8.16-2.09c2.68-.46,5.37-.6,8.06-.87s5.37-.63,8-1.14c1.34-.24,2.67-.54,4-.88l2-.55a6.24,6.24,0,0,1,1.72-.28,3.19,3.19,0,0,1,1.45.31,2.24,2.24,0,0,1,.86,1,5.15,5.15,0,0,1,.06,3.19,11.36,11.36,0,0,1-3.91,5.85,13.47,13.47,0,0,1-6.42,2.79,17.25,17.25,0,0,1-7-.52,3.2,3.2,0,0,0-.7-.11,3,3,0,1,0-.25,6h.07a26,26,0,0,0,9-1.08,18.62,18.62,0,0,0,7.65-4.66,16,16,0,0,0,2.63-3.6,13.11,13.11,0,0,0,1.49-4.22,7.36,7.36,0,0,0-.59-4.68A4.74,4.74,0,0,0,3117.79,1182.58Z"/><path class="cls-41" d="M3113.89,1115c-1-.5-2-.9-3-1.33a30.86,30.86,0,0,0-3.2-.9,18,18,0,0,0-3.38-.37,13.6,13.6,0,0,0-6.81,1.46,10.52,10.52,0,0,0-2.82,2.17,7.85,7.85,0,0,0-1.83,3.06.75.75,0,0,0,.12.69.77.77,0,0,0,1.08.16l.14-.11a18,18,0,0,1,2.34-1.52,16.81,16.81,0,0,1,2.47-1.08,18,18,0,0,1,5.32-.89,31.22,31.22,0,0,1,5.71.48c1,.22,1.95.4,2.94.6s2,.49,3,.68h.07a.77.77,0,0,0,.57-1.4C3115.75,1116.07,3114.83,1115.51,3113.89,1115Z"/><path class="cls-41" d="M3110.24,1129.56c-3.36,0-6.11,4.37-6.15,9.82s2.64,9.88,6,9.91,6.12-4.37,6.16-9.82S3113.6,1129.58,3110.24,1129.56Z"/><path class="cls-7" d="M3108.44,1132.69c-1.68,0-3.05,2.18-3.07,4.91s1.32,4.94,3,5,3.06-2.18,3.08-4.91S3110.12,1132.7,3108.44,1132.69Z"/><circle class="cls-36" cx="3147.81" cy="1153.73" r="15.61" transform="translate(1731.57 4192.5) rotate(-85.14)"/><path class="cls-36" d="M3209.2,1129.19a5.45,5.45,0,0,0-3.11-1.1,9.54,9.54,0,0,0-2.76.33,19.77,19.77,0,0,0-4.47,1.85,33.52,33.52,0,0,0-3.93,2.53,4,4,0,0,0-.38.34,3,3,0,0,0,4.38,4.14l0,0a21.57,21.57,0,0,1,5.82-4.54,5.26,5.26,0,0,1,1.36-.45,1.73,1.73,0,0,1,.87,0,1.59,1.59,0,0,1,.76.77,3.68,3.68,0,0,1,.44,1.37,6.58,6.58,0,0,1-.78,3.39,17.71,17.71,0,0,1-2.17,3.35,38,38,0,0,1-6,5.82.08.08,0,0,0,0,.1.08.08,0,0,0,.11,0,38.79,38.79,0,0,0,7.06-4.84,19.68,19.68,0,0,0,3-3.26,9.42,9.42,0,0,0,1.84-4.54,7,7,0,0,0-.34-2.75A5.32,5.32,0,0,0,3209.2,1129.19Z"/><path class="cls-60" d="M3216.59,1105.69h0a49.29,49.29,0,0,1-17.64-15.63,73.26,73.26,0,0,1-6.25-10.36,101.09,101.09,0,0,1-4.86-11.19,153,153,0,0,1-6.48-23.64,180.32,180.32,0,0,1-3.09-24.42,179.47,179.47,0,0,0,2.11,24.59,152.31,152.31,0,0,0,5.58,24.13,104.15,104.15,0,0,0,4.48,11.61,76.34,76.34,0,0,0,6,11,52.69,52.69,0,0,0,18.26,17.46l.08,0a2,2,0,0,0,1.8-3.57Z"/><path class="cls-60" d="M3097.85,1022.54a97.82,97.82,0,0,0-15.69,10.13,55.39,55.39,0,0,0-6.84,6.61,33.22,33.22,0,0,0-5.28,8.19.36.36,0,0,0,0,.09,2,2,0,0,0,3.74,1.43h0c2-5.33,6-10,10.38-14a94.57,94.57,0,0,1,14.71-10.67,165.3,165.3,0,0,1,16.28-8.49c5.59-2.55,11.28-4.88,17.09-6.88-5.91,1.68-11.74,3.71-17.48,6A167,167,0,0,0,3097.85,1022.54Z"/><path class="cls-35" d="M3147.81,1492.29,3063,1621l-155.47,103.65s-32.16-17.88-71.48,32.16h143.86s155.37-70.18,183.57-103.89,101.45-133.78,101.45-133.78S3223.74,1448.51,3147.81,1492.29Z"/><g class="cls-61"><path class="cls-36" d="M3191.27,1404.41c-56.84,6.54-108.48,37.33-151.15,75.45l36.76,106.82c2.18-8.39,9.79-14.14,17.32-18.45,71.59-41.08,170.32-12,237.5-59.94,8.36-6,16.59-14.36,16.36-24.62-.13-5.93-3.11-11.4-6.37-16.36C3310.3,1419.47,3248.12,1397.87,3191.27,1404.41Z"/><path class="cls-36" d="M2836.46,1756l-3.23-1C2834.3,1755.37,2835.38,1755.7,2836.46,1756Z"/><path class="cls-36" d="M2976.19,1749.7c-10.15-3.62-20.58-7.29-31.35-7-8.83.22-17.36,3.08-25.79,5.76-26.74,8.49-55.8,15.33-82.59,7.57l90.68,28.14a74.86,74.86,0,0,0,49.13,3.81c10.37-2.78,21.77-10.75,20.11-21.36C2995,1757.47,2984.89,1752.81,2976.19,1749.7Z"/></g><path class="cls-62" d="M3177.33,1421.16l-6.34,14-6.15,14.12c-2,4.73-4,9.44-6,14.21-3.89,9.5-7.67,19.06-11.08,28.77,4.93-9,9.49-18.25,13.92-27.51,2.26-4.62,4.38-9.29,6.56-13.94l6.35-14,6.15-14.11c2-4.74,4-9.44,5.95-14.21,3.9-9.5,7.66-19.06,11.07-28.78-4.93,9-9.49,18.25-13.93,27.51C3181.63,1411.84,3179.52,1416.52,3177.33,1421.16Z"/><path class="cls-63" d="M2937,1857.54c-20.67,22.14-40.92,44.69-60.11,68.14-9.57,11.74-18.88,23.72-27.54,36.17-4.32,6.23-8.49,12.58-12.29,19.16-1.91,3.28-3.71,6.64-5.36,10.07a81.78,81.78,0,0,0-4.36,10.59c-2.2,7.37-3.05,15-3.69,22.53l-.47,5.68-.34,5.67-.32,5.68-.22,5.68c-.6,15.15-.8,30.31-.83,45.46-.08,30.3.48,60.59,1.22,90.87s1.75,60.56,2.9,90.83q3.49,90.79,8.46,181.54h0a2,2,0,1,0,4-.24h0q-5.46-90.68-9.45-181.44-2-45.37-3.4-90.77c-.91-30.26-1.64-60.53-1.72-90.8-.06-15.14.07-30.27.57-45.39l.19-5.67.3-5.66.3-5.66.44-5.65c.6-7.52,1.4-15.06,3.5-22.22a81.43,81.43,0,0,1,4.22-10.42q2.43-5.1,5.26-10c3.74-6.56,7.85-12.91,12.13-19.14,8.56-12.46,17.79-24.47,27.29-36.25,19-23.53,39.16-46.18,59.7-68.43s41.58-44,63.08-65.37Q2968,1824.34,2937,1857.54Z"/><path class="cls-63" d="M3081.32,2001.92a24.72,24.72,0,0,0-7.17-7.87,34.2,34.2,0,0,0-9.33-4.64,50.37,50.37,0,0,0-10-2.18,78.69,78.69,0,0,0-20.23.31,73.69,73.69,0,0,0-9.88,2,41.88,41.88,0,0,0-4.76,1.66,14.67,14.67,0,0,0-4.33,2.52,14.76,14.76,0,0,1,4.42-2.29,41.87,41.87,0,0,1,4.8-1.4,73.23,73.23,0,0,1,9.86-1.54,77.36,77.36,0,0,1,19.83.68c6.46,1.1,12.85,3.29,17.83,7.23a21.67,21.67,0,0,1,5.91,7.14,23.67,23.67,0,0,1,2.37,8.92v0s0,.06,0,.09a2,2,0,1,0,4-.5A27.26,27.26,0,0,0,3081.32,2001.92Z"/><path class="cls-18" d="M1768,2110l-143.37-13s44.91,324.64,31.32,399.85c-14.27,79-117.76,188.28-117.76,188.28h284.62s-93.22-99.77-105.11-187S1768,2110,1768,2110Z"/><g class="cls-64"><path class="cls-20" d="M1644.87,2498.18c3.84-87.92,50.3-388.17,50.3-388.17l-143.36-13s44.91,324.64,31.31,399.85c-14.27,79-117.75,188.28-117.75,188.28H1750S1638.37,2647.14,1644.87,2498.18Z"/><path class="cls-21" d="M1813.86,2076.42a74.23,74.23,0,0,0-30-8.3L1735,2092.4a920,920,0,0,0-39.23,202.49c-6.25,79-.47,164.05,46.47,227.9-1.13-59.15-1.53-119,11.94-176.58,18.71-79.94,63.54-152.76,75.46-234,1.16-7.89,1.9-16.4-1.86-23.45C1824.85,2083.2,1819.45,2079.35,1813.86,2076.42Z"/><path class="cls-21" d="M1741.3,2613.33l-22-31.54c-8.54-12.25-17.27-24.93-20.41-39.54a283.35,283.35,0,0,0,27.15,110c4.84,10.17,11.53,21.05,22.49,23.65,17.65,4.19,38.27,3.13,51.69-4.2l-5.19-1.39C1772.18,2657.24,1756.37,2634.94,1741.3,2613.33Z"/></g><path class="cls-45" d="M2112.73,2124.42c-44.28-91.7-202.4-79.05-202.4-139.15s38-389,38-389c-2.38-11.93,29.44-221.92,22.12-339.22-2.39-38.17-8.93-66.53-22.12-75-53.77-34.8-401.62-123.33-550.25-19s-56.94,800.11,0,888.64c56.23,87.5,742.55,162.66,716,75.89A22.84,22.84,0,0,0,2112.73,2124.42Z"/><path class="cls-46" d="M1910.33,1911.49c0-54.41,38-352.33,38-352.33-2.38-10.81,29.44-201,22.12-307.27-69.27-30.79-336.59-89.59-454.86-9.93-125.74,84.69-48.14,649.33,0,721.2,43.4,64.78,530.13,121.21,598.45,77.24a19.76,19.76,0,0,0-1.26-2.87C2068.45,1954.47,1910.33,1965.93,1910.33,1911.49Z"/><g class="cls-65"><path class="cls-48" d="M2042.11,2121.79c-167.58,48.68-354,28.76-507.52-54.22-23.22-12.55-46.31-27-61.77-48.42-23-31.9-25.58-73.73-27.27-113.05q-13-301.93-26.06-603.89c-1.18-27.35-2.64-55.77-15.58-79.9s-41-42.52-67.37-35.25l-31.55,7.46c-65.26,79-86.32,185.37-93.48,287.6-14.89,212.63,20.72,425.2,56.19,635.38,2.82,16.72,5.76,33.78,13.82,48.7,20.92,38.69,68.89,52.11,111.79,61.84,166.78,37.84,335.26,75.87,506.28,75.72,44.54-.05,89.64-2.79,132.06-16.39s82.28-39,106.15-76.64c16.14-25.42,23.08-61.84,2.41-83.74C2116.48,2101.83,2075.34,2112.14,2042.11,2121.79Z"/></g><path class="cls-56" d="M1815.44,980.14c-26.85-12.07-50.88,0-50.88,0-81.76,4-79.07,114.59-76.39,127.32s-30.16,76.13-30.16,76.13l-26.13,45.83,29.48,19.44,18.76-22.79-3.35,26.81,47.36,3.35,63.31,12.94,29,10.51,14.5-21.44v26.13l32.84,10.06,13.37-25.47v21.45l41.58,4s2.68-56.29-3.35-106.55-7.37-54.6-7.37-54.6l26.13,3.22s9.39-46.46-3.35-86.67S1842.3,992.2,1815.44,980.14Z"/><g class="cls-66"><polygon class="cls-67" points="1852.11 1063.42 1835.51 1117.05 1820.42 1114.59 1808.12 1085.57 1793.96 1119.36 1846.95 1126.07 1858.37 1129.47 1903.25 1139.75 1952.87 1134.6 1866.72 1119.16 1852.11 1063.42"/></g><g class="cls-66"><path class="cls-68" d="M1656.06,1232.55a5,5,0,0,1-2.84-.84q-13-6.92-25.26-15l-13.77,21c1.64,4.89,6.55,7.82,11.18,10.08a153.85,153.85,0,0,0,34.31,11.92,4.86,4.86,0,0,0,3.24-.06,5,5,0,0,0,1.8-2.06,460.07,460.07,0,0,0,25.92-52.15l-32.14,25.79A5,5,0,0,1,1656.06,1232.55Z"/><path class="cls-68" d="M1937.14,1239.12c-.39-21.14-4.84-42-9.26-62.64q-3.51-16.38-7-32.75l-13.82-9.93c4,43.23-18.58,111.59-18.32,105.49,1.82-102.79-86-48.67-104.08-36.7l-20.82,105.79c-1.83.06-.81,3,.71,4,9.17,6.06,20.24,8.45,31.11,10.12,12.9,2,25.91,3.14,38.91,4.3l80,7.1c5.41.48,11.67.66,15.36-3.34,2.15-2.33,2.91-5.6,3.47-8.72a145.17,145.17,0,0,0,.58-48.5,9.67,9.67,0,0,0-1.59-4.6,6,6,0,0,0-2.45-1.73,20.18,20.18,0,0,0,1.86-2.39C1936.61,1257.28,1937.31,1248,1937.14,1239.12Z"/></g><path class="cls-35" d="M1897.47,1109.69l-5.8,23.59-39.19-7.39-5.06-12.11v12.11l-44.59-10.84,5.29-29.48L1762,1134.21c-11.31-8.78-26.26-8.87-34.21.14-8.34,9.46-5.81,25.33,5.66,35.45a31.6,31.6,0,0,0,15.09,7.48l0,0-24.47,78.93,78.7,16.08s0-33.06,4-50.26c15.41,9.38,44.9,21.45,67,0s34.18-88.77,34.18-88.77l-7.82,3.22Z"/><g class="cls-69"><path class="cls-36" d="M1897.06,1077.75c-9.8-6.75-21.17-10.79-32.49-14.44-27.33-8.81-56.73-15.8-84.52-8.54a86.3,86.3,0,0,0-35.59,19.09l17,59.12a197.37,197.37,0,0,0,32.21-26.44,61,61,0,0,1-.42,15.15l59.83,12.38c18,3.73,36.14,7.47,54.5,9a6.36,6.36,0,0,0,3.44-.36c1.48-.77,2.12-2.52,2.61-4.12,3.28-10.57,6.14-21.78,3.88-32.62C1915,1094.32,1906.86,1084.49,1897.06,1077.75Z"/><path class="cls-36" d="M1810.81,1222.47a68.85,68.85,0,0,1-19.48-7.11c-4.94-2.7-9.89-6.11-15.51-6.13-.4,10.42,5.94,19.76,12,28.24,2.57,3.58,5.2,7.23,8.76,9.85s8.25,4.06,12.45,2.71a10.86,10.86,0,0,0,7.08-12Z"/></g><path class="cls-36" d="M1797.15,2487.2c-4,8-7.76,13.49-11.05,15.75-32.53,22.26-18.85,160.94,13.67,190s119.67,19.65,155,12,12.84-30.81-28.25-44.53c-10.09-3.36-16.36-14-20.06-28.25-11.45-43.68,1.23-120.7,1.23-120.7l143.82-369.82H1894.56S1833.18,2415.73,1797.15,2487.2Z"/><path class="cls-70" d="M1926.48,2660.45c-10.09-3.36-16.36-14-20.06-28.25-38.08,3.78-89.91-68.13-92.94-108.71-1.31-17.54-8.22-28.92-16.33-36.29-4,8-7.76,13.49-11.05,15.75-32.53,22.26-18.85,160.94,13.67,190s119.67,19.65,155,12S1967.57,2674.17,1926.48,2660.45Z"/><path class="cls-51" d="M2044.24,2659.56c-37.23-36.46-82.44-99.12-82.44-99.12s-73.41-20.32-88.82-21.54-39.8,147.08-20.54,162.88,146.38,11.55,177.2,7.9S2081.48,2696,2044.24,2659.56Z"/><path class="cls-35" d="M1946.18,2186.38s-95.06-92.3-146.4,18.4l66.49,336.69s28.54,79.61,96.6,89.89-16.69-89.89-16.69-89.89Z"/><g class="cls-71"><path class="cls-36" d="M1822.18,2110.89c-14.29,8.78-26.92,20-38.87,31.75-32.52,32-62.06,73.14-59.06,118.65.85,12.87,4.67,26.12,13.75,35.29,19.55,19.77,52.65,12.64,78.49,2.36a606.49,606.49,0,0,0,211.78-142.24l-10.2-62.09C1951.85,2084.64,1879.25,2075.85,1822.18,2110.89Z"/></g><path class="cls-25" d="M1612.44,1746.76s-32.16,2.68-48.25,80.42,58.81,150.11,155.39,144.75c6.78,72.37,11.47,238.56,11.47,238.56s113.26-2.68,176.92-16.08S2162,2173,2162,2173s-114.81-390.18-126.34-415.27S1612.44,1746.76,1612.44,1746.76Z"/><g class="cls-72"><path class="cls-73" d="M1767.52,1978.52l13.18-26.33c-52.14.5-106-4.46-152-29.12s-82.32-72.84-79.87-124.94l-103.19,72.68,76.09,85c25.87,28.9,52.18,58.51,67.36,94.2,19.45,45.73,18.89,97.14,17.69,146.82-.62,25.6.32,55,20.11,71.25,13.58,11.15,32.64,12.74,50.15,11.17a174.54,174.54,0,0,0,53.32-13.49c6.36-2.74,13-6.23,16.2-12.36,3-5.64,2.52-12.39,2-18.75q-4.69-56.31-9.4-112.64c-1.76-21-3.47-42.55,2.14-62.88,6.27-22.71,21.32-42.2,39.11-57.64,2.73-2.38,5.81-5.28,5.48-8.88C1785.14,1984.56,1770.37,1986.12,1767.52,1978.52Z"/><path class="cls-73" d="M2192.79,2158.33c-.9-3.38-2-6.73-3.1-10q-25.16-75.57-50.74-151c-9-26.45-18.12-53.2-33.37-76.59a644.63,644.63,0,0,1,19.09,186.11c-.55,12.64-1.67,25.89-8.63,36.46a31,31,0,0,1-11,10,156.87,156.87,0,0,1-19.81-5.2c-23.56-7.95-46.07-22.38-69.53-28.89-2.89-8.05-5.26-16.32-7.6-24.54q-20.13-70.85-40.28-141.67a501.75,501.75,0,0,1,5.59,142.92c-.86,8.2-2.37,17-5.43,24.68-28,10.79-49.27,37.78-73.71,57a171.5,171.5,0,0,1-115.57,36.05l53.3,15.08q-2.6,9.38-5.2,18.75l143.62-19.65c64.76-8.86,131.16-18.31,191.35-42.35l21.21,8.46c7.53-3.78,11.46-12.6,11.76-21,0-.83,0-1.65,0-2.48q10.59-5.51,20.81-11.82Z"/></g><path class="cls-36" d="M1846,1181c2,.49,11.44,9,12.94,0,1.14-6.84,2.48-25.87,2.48-25.87S1844,1180.53,1846,1181Z"/><path class="cls-36" d="M1852.72,1197.13a14.27,14.27,0,0,1-3.74.84,23.66,23.66,0,0,1-3.76.1,32.71,32.71,0,0,1-7.3-1.32,51,51,0,0,1-7-2.4l-1.65-.78-1.59-.88a9.21,9.21,0,0,0-1.92-.88,5.5,5.5,0,0,0-1.17-.17,3.7,3.7,0,0,0-1.26.24,3.74,3.74,0,0,0-1.88,1.61,7.18,7.18,0,0,0-.83,2.06,12.83,12.83,0,0,0-.2,4.13,17.8,17.8,0,0,0,.89,4,17.56,17.56,0,0,0,1.7,3.72,16.62,16.62,0,0,0,6,5.94,18.46,18.46,0,0,0,8.49,2.23h.1a3.78,3.78,0,0,0,.74-.07,3,3,0,0,0-1.3-5.92,11.13,11.13,0,0,1-6.11-.29,11.45,11.45,0,0,1-2.8-1.49,12.46,12.46,0,0,1-2.35-2.3,14.54,14.54,0,0,1-2.85-6.15,10.43,10.43,0,0,1-.15-3.33,2.78,2.78,0,0,1,1.28-2.28,1.88,1.88,0,0,1,1.24-.08,7.09,7.09,0,0,1,1.51.59l1.74.85,1.76.73a63.16,63.16,0,0,0,7.23,2.3c2.44.63,4.91,1.1,7.33,1.86a38.13,38.13,0,0,1,7.35,3l.15.08a3.25,3.25,0,1,0,.33-5.87Z"/><path class="cls-41" d="M1825.34,1137.35c-3.36-.32-6.5,3.85-7,9.31s1.8,10.13,5.16,10.45,6.51-3.85,7-9.3S1828.71,1137.67,1825.34,1137.35Z"/><path class="cls-7" d="M1823.27,1140.33c-1.68-.16-3.26,1.93-3.51,4.65s.89,5.07,2.58,5.23,3.25-1.92,3.51-4.65S1825,1140.49,1823.27,1140.33Z"/><path class="cls-41" d="M1885.49,1145.49c-3.29-.76-7,3-8.18,8.3s.45,10.29,3.75,11,7-3,8.18-8.3S1888.78,1146.24,1885.49,1145.49Z"/><path class="cls-7" d="M1883,1148.17c-1.64-.37-3.48,1.49-4.09,4.16s.23,5.14,1.88,5.52,3.47-1.49,4.09-4.16S1884.69,1148.55,1883,1148.17Z"/><path class="cls-41" d="M1831.3,1121a10.3,10.3,0,0,0-5.31-1.66,14.14,14.14,0,0,0-2.69.08,23.69,23.69,0,0,0-2.56.53c-.81.29-1.63.56-2.4.92a24.87,24.87,0,0,0-2.2,1.24.79.79,0,0,0,.45,1.45h.06c.83,0,1.61-.11,2.38-.21s1.54-.1,2.29-.18a25.77,25.77,0,0,1,4.33.1,15.16,15.16,0,0,1,3.86,1,15.75,15.75,0,0,1,1.81.87c.58.32,1.2.77,1.77,1.16l.19.13a.78.78,0,0,0,1.21-.75,6.14,6.14,0,0,0-1.13-2.65A7.92,7.92,0,0,0,1831.3,1121Z"/><path class="cls-41" d="M1892.11,1131.22a10.37,10.37,0,0,0-5-2.53,14.31,14.31,0,0,0-2.66-.37,22.78,22.78,0,0,0-2.62.1c-.84.15-1.69.27-2.51.49a24,24,0,0,0-2.38.86.79.79,0,0,0,.2,1.5h.06c.82.11,1.61.17,2.38.2s1.54.16,2.29.21a27.59,27.59,0,0,1,4.25.81,14.89,14.89,0,0,1,5.28,2.75c.52.42,1.06,1,1.55,1.44l.17.17a.77.77,0,0,0,.53.22.79.79,0,0,0,.79-.77,6.05,6.05,0,0,0-.68-2.79A7.65,7.65,0,0,0,1892.11,1131.22Z"/><circle class="cls-36" cx="1793.96" cy="1164.14" r="13.57"/><path class="cls-36" d="M1761.75,1145.1a44.08,44.08,0,0,0-5.64-2.36,26,26,0,0,0-6.13-1.35,11.66,11.66,0,0,0-3.49.22,6.2,6.2,0,0,0-5,5.49,8.66,8.66,0,0,0,.2,3.48,12.2,12.2,0,0,0,3.38,5.34,26,26,0,0,0,4.69,3.56,52.13,52.13,0,0,0,10.41,4.74.08.08,0,0,0,.09,0,.07.07,0,0,0,0-.1,51,51,0,0,1-9.53-5.91,24.21,24.21,0,0,1-3.88-3.82,9.47,9.47,0,0,1-2.11-4.41,5.51,5.51,0,0,1,.16-2.15,3,3,0,0,1,.9-1.54,2.7,2.7,0,0,1,1.49-.52,7.42,7.42,0,0,1,2.14.17,29.63,29.63,0,0,1,9.26,4.36l.08,0,.29.17a3,3,0,0,0,2.72-5.37Z"/><path class="cls-60" d="M1779.43,1057a66.44,66.44,0,0,0-15.14,13.09,57.13,57.13,0,0,0-9.85,17.1,68.55,68.55,0,0,0-4,19.18,76.39,76.39,0,0,0,.49,15.49,74.86,74.86,0,0,1-.34-15.48,62.94,62.94,0,0,1,1.53-9.65,54.72,54.72,0,0,1,3-9.27,57,57,0,0,1,4.53-8.57,54.17,54.17,0,0,1,6.06-7.5,53,53,0,0,1,15.62-10.88h0a1.23,1.23,0,0,0,.25-.14,2,2,0,1,0-2.19-3.36Z"/><path class="cls-60" d="M1751,1121.87c.18,1.35.39,2.69.65,4C1751.36,1124.56,1751.15,1123.22,1751,1121.87Z"/><path class="cls-60" d="M1727,1056.75a2,2,0,0,0-2.48,1.37l-1.27,4.44-.64,2.22-.32,1.11L1722,1067c-.62,3-1.41,6-1.79,9-.22,1.53-.48,3-.67,4.57l-.42,4.59c0,.77-.15,1.53-.18,2.3l-.07,2.3c0,1.54-.14,3.07-.08,4.6a104.83,104.83,0,0,0,1.74,18.3,79.29,79.29,0,0,0,5.21,17.61.69.69,0,0,0,1.27-.54l0,0a78.19,78.19,0,0,1-4.46-17.37,102.5,102.5,0,0,1-1-17.93c0-1.5.17-3,.24-4.48l.15-2.24c.05-.74.18-1.48.26-2.23l.56-4.45c.25-1.47.54-2.94.81-4.4.47-3,1.35-5.82,2-8.72l.28-1.08.34-1.07.7-2.13,1.39-4.25,0-.13a.14.14,0,0,1,0-.06A2,2,0,0,0,1727,1056.75Z"/><path class="cls-26" d="M1804.11,1294.43c-6.69-4.69,0-53,0-53l-77.75-18.88s-14.74,39.09-32.16,56.51-131.35,21.45-159.49,61.66-37.53,201-37.53,201h126l-10.72,205.06H1839s-6.71-93.81,2.68-116.6,123.3-59,123.3-59-33.51-150.11-57-211.76S1810.8,1299.12,1804.11,1294.43Z"/><g class="cls-74"><path class="cls-75" d="M1798.24,1190.52c-9.51-3.09-19.69-3.21-29.68-3.3l-40.72-.35c-22.74-.2-47.5.27-65.21,14.55l26.7,84.08c11.53-1.77,19.61-12.18,25.26-22.38s10.6-21.53,20.23-28.11q-5.88,33.93-11.77,67.86a150.87,150.87,0,0,0,28.53-64.59c5.92,6,6.7,15.39,5.12,23.64s-5.13,16-6.62,24.28c-1.67,9.2,1.78,21.5,11.1,22.14a487.66,487.66,0,0,1,14.63-63.39c5.19,2.52,7.28,9,7.1,14.74s-2.09,11.36-2.52,17.12c-.56,7.41,1.66,15.39,7.34,20.19s15.13,5.27,20.24-.14a285.2,285.2,0,0,0,13.38-69.19c.4-6.05.59-12.28-1.41-18C1816.64,1200.23,1807.74,1193.62,1798.24,1190.52Z"/><path class="cls-75" d="M1958.77,1583.41c-6.3-1.13-9.94-7.61-12.7-13.39q-8-16.8-16-33.59a238.88,238.88,0,0,1-2.83,61.47c-8,.52-14.62-6.44-17.68-13.83s-3.77-15.57-6.86-23-9.81-14.28-17.78-13.66c3.65,22,7.27,44.65,2.13,66.32-.74,3.13-2.34,6.81-5.54,7.1a6.88,6.88,0,0,1-4.34-1.5c-17.45-11.81-11.62-42.47-28.82-54.64-10,27,3.28,58.88-7.9,85.47l47.47,10.29c-1.09,1.22.2,3.32,1.81,3.58s3.17-.62,4.57-1.47l47.85-29.23c12-7.33,24.17-14.8,33.53-25.28s15.67-24.59,13.56-38.48C1977.75,1568.81,1970.07,1585.45,1958.77,1583.41Z"/><path class="cls-75" d="M1603.32,1549.89a158.39,158.39,0,0,1-3.22-32.5c.06-10.34-.1-23-9.2-27.92a210.27,210.27,0,0,1-2.87,52.9c-1.37,7.44-4.18,16-11.4,18.26-14.11-15.12-7.4-39.84-14.32-59.33-1.39-3.91-5.91-8.21-8.94-5.38a6.74,6.74,0,0,0-1.63,4q-4.47,26.55-8.93,53.08c-.28,1.71-.66,3.57-2,4.68-3.64,3-8.24-2.61-9.19-7.23-4.46-21.71,2.58-46.86-10.62-64.67l-10.74,33.5c-4.74,14.8-11.4,31.59-26.21,36.3l-35.42,14.1c-4.42,4.59,1.93,11.52,7.56,14.5,28.83,15.25,61.62,28.3,93.37,20.85,25.12-5.89,45.26-23.59,63.77-41.92a6.3,6.3,0,0,1-3.14-.74C1605.91,1560,1604.31,1554.71,1603.32,1549.89Z"/><path class="cls-75" d="M1613.34,1563.14c3.85,0,7.83-3,6.67-6.67Q1616.71,1559.8,1613.34,1563.14Z"/></g><path class="cls-76" d="M1641.77,1541.25l1.94-1.55h-1.58l-.36,1.55Z"/><path class="cls-76" d="M1653,1467.8c-.42,8.27-1.2,16.51-2.21,24.72s-2.35,16.38-3.84,24.51c-1.41,7.6-3,15.2-4.78,22.67h1.58l-1.94,1.55h0l.36-1.55h-19a2,2,0,0,0,0,4h22.15l.35-1.54h0c1.67-8.21,3-16.4,4.21-24.64s2.14-16.5,2.87-24.79,1.14-16.59,1.22-24.9a206.29,206.29,0,0,0-1.31-24.86A203.74,203.74,0,0,1,1653,1467.8Z"/><path class="cls-76" d="M1869.32,1448a260,260,0,0,0-6-27.92v0a2,2,0,1,0-3.84,1.14l0,0a259.34,259.34,0,0,1,6.37,27.36,232.11,232.11,0,0,1,3.35,27.93c.26,4.67.38,9.36.24,14a127.81,127.81,0,0,1-1.07,14,97.91,97.91,0,0,1-2.82,13.7,75.56,75.56,0,0,1-5.15,13,218.09,218.09,0,0,0-19.07,53.41,184.93,184.93,0,0,0-3.8,28.11,127.35,127.35,0,0,0,1.38,28.27,127.66,127.66,0,0,1-.88-28.24,185.46,185.46,0,0,1,4.27-27.93,217.17,217.17,0,0,1,19.88-52.7,78.77,78.77,0,0,0,5.53-13.24,100.41,100.41,0,0,0,3.13-14,130.89,130.89,0,0,0,1.35-14.24c.23-4.76.19-9.53,0-14.29A236.71,236.71,0,0,0,1869.32,1448Z"/><path class="cls-36" d="M2216.45,1450.12c-14.29-8.94-37.53-25-38.42-29.49s29-55.82,20.12-64.76-45.14,48.68-59.43,56.72-49.15,80.42-67.91,95.61-100.07,109.9-100.07,109.9l-13.33-44.45s-101,27.47-111.76,55.17c0,0,27.64,84.48,53.61,109.9s74.16,22.34,108.11,8,145.64-216,145.64-216,26.81-9.2,34-24.39,12.5-21.78,12.5-21.78a54.18,54.18,0,0,0,17,0C2226.28,1483.18,2230.75,1459.05,2216.45,1450.12Z"/><path class="cls-35" d="M2171.78,1409c-8-5.74-10.73,8.93-26.81,21.44s-26.8,34-26.8,34l26.83,34.84c34-15.19,17.84-56.29,17.84-56.29S2179.56,1414.58,2171.78,1409Z"/><path class="cls-35" d="M1864.1,1702.09c-39.9-7.15-66.7,6.25-66.7,6.25l-166.2-52.71,7.16-113.93H1505.22s-24.12,138.94-8,183.62,76.84,57.18,133.13,57.18,218-17,218-17l99.18-1.79S1904,1709.24,1864.1,1702.09Z"/><g class="cls-77"><path class="cls-36" d="M1741.37,1606.79c-28.54-28.13-60.41-57.13-68.74-96.32-3.89-18.27-3.53-40.06-18.34-51.45l-14.88,64.69c-6.46,33.45-13.22,67.71-31,96.79-15,24.58-37.53,45-46.47,72.36q117.66,3.51,234.78,16.5C1798.42,1669.33,1769.9,1634.91,1741.37,1606.79Z"/><path class="cls-36" d="M1898.25,1738.45c-9.25-2.18-18.68-4.38-28.16-3.72-21,1.48-38.15,16.32-56.32,26.92a150.77,150.77,0,0,1-68.62,20.27l26.81,16.82A1037.32,1037.32,0,0,0,1993.08,1770c-11-11.45-27.36-15.6-42.82-19.24Z"/></g><path class="cls-78" d="M3183.81,1799.41l-7.55-6.15c-3.32-2.7-7.76-1.43-9.87,2.82l-468.31,943.71c-2.11,4.25-1.12,9.94,2.2,12.64l7.54,6.15c3.32,2.7,7.76,1.43,9.87-2.82L3186,1812.05C3188.11,1807.8,3187.12,1802.11,3183.81,1799.41Z"/><path class="cls-78" d="M2717.69,1796.08c-2.11-4.25-6.55-5.52-9.87-2.82l-7.54,6.15c-3.32,2.7-4.31,8.39-2.2,12.64l468.31,943.71c2.11,4.25,6.55,5.52,9.87,2.82l7.55-6.15c3.31-2.7,4.3-8.39,2.19-12.64Z"/><path class="cls-79" d="M1986.82,1799.41l-7.54-6.15c-3.32-2.7-7.76-1.43-9.87,2.82L1501.1,2739.79c-2.11,4.25-1.12,9.94,2.2,12.64l7.54,6.15c3.32,2.7,7.76,1.43,9.87-2.82L1989,1812.05C1991.13,1807.8,1990.14,1802.11,1986.82,1799.41Z"/><path class="cls-79" d="M1520.71,1796.08c-2.11-4.25-6.55-5.52-9.87-2.82l-7.54,6.15c-3.32,2.7-4.31,8.39-2.2,12.64l468.31,943.71c2.11,4.25,6.55,5.52,9.87,2.82l7.54-6.15c3.32-2.7,4.31-8.39,2.2-12.64Z"/><path class="cls-78" d="M3250.54,1757.7H1429.38a23.56,23.56,0,0,0,0,47.12H3250.54a23.56,23.56,0,1,0,0-47.12Z"/><path class="cls-79" d="M1405.82,1781.26a23.61,23.61,0,0,0,23.56,23.56H2084.3V1757.7H1429.38A23.61,23.61,0,0,0,1405.82,1781.26Z"/><polygon class="cls-51" points="2066.79 1453.5 2009.16 1703.88 1880.21 1742.78 1880.21 1757.69 2399.17 1757.69 2452.78 1470.67 2438.04 1453.5 2066.79 1453.5"/><polygon class="cls-53" points="2066.79 1453.5 2009.16 1703.88 1880.21 1742.78 1880.21 1757.69 2015.86 1757.69 2084.3 1470.67 2452.78 1470.67 2438.04 1453.5 2066.79 1453.5"/><path class="cls-7" d="M2279.18,1567c-13.83-4.57-29.69-4-44.65,1.64-31,11.67-48.57,41.71-39.08,67,4.63,12.31,14.88,21.63,28.86,26.25a62.12,62.12,0,0,0,19.44,3,71.8,71.8,0,0,0,25.21-4.69l-.7-1.87.7,1.87c31-11.68,48.57-41.71,39.08-67C2303.41,1581,2293.16,1571.66,2279.18,1567Zm-11.63,89.45c-14.11,5.31-29,5.87-42,1.59s-22.18-12.71-26.38-23.86c-8.71-23.18,7.77-50.9,36.75-61.8a67.76,67.76,0,0,1,23.8-4.43,57.93,57.93,0,0,1,18.18,2.85c12.82,4.23,22.18,12.7,26.38,23.85C2313,1617.87,2296.53,1645.6,2267.55,1656.49Z"/><rect class="cls-80" x="3261.01" y="2478.7" width="509.69" height="192.12"/><rect class="cls-81" x="3482.13" y="2478.7" width="288.57" height="192.12"/><polygon class="cls-7" points="3191.91 2402.01 3142.42 2402.01 3142.42 2483.3 3191.91 2483.3 3193.16 2483.3 3801.67 2483.3 3801.67 2253.47 3191.91 2253.47 3191.91 2402.01"/><polygon class="cls-11" points="3456.44 2402.01 3405.69 2402.01 3405.69 2483.3 3456.44 2483.3 3801.67 2483.3 3801.67 2253.47 3456.44 2253.47 3456.44 2402.01"/><path class="cls-82" d="M3317.93,2402l-21.08-.11-21.08.11c-7,.11-14.06.15-21.09.33-14,.3-28.11.73-42.16,1.56,14.05.83,28.11,1.26,42.16,1.55,7,.19,14.06.23,21.09.34l21.08.11,21.08-.11c7-.11,14.06-.14,21.09-.33,14.05-.29,28.11-.73,42.16-1.56-14-.83-28.11-1.27-42.16-1.56C3332,2402.11,3325,2402.08,3317.93,2402Z"/><polygon class="cls-7" points="3743.81 2629.45 3743.81 2603.09 3544.57 2603.09 3743.81 2629.45"/><path class="cls-7" d="M3314.77,2608.36c11.6-7.38,99.09-30.6,99.09-30.6H3261S3296.85,2596.89,3314.77,2608.36Z"/><path class="cls-7" d="M3627.85,2373.33c11.6-7.38,99.09-30.6,99.09-30.6H3574.09S3609.93,2361.86,3627.85,2373.33Z"/><path class="cls-82" d="M3261.23,2348.53c11.6-7.38,99.09-30.6,99.09-30.6H3207.47S3243.31,2337.06,3261.23,2348.53Z"/><path class="cls-7" d="M3551.43,2460.8c11.59-7.38,99.09-30.6,99.09-30.6H3497.67S3533.51,2449.33,3551.43,2460.8Z"/></g></svg>